<svg width="107" height="25" viewBox="0 0 107 25" fill="none" xmlns="http://www.w3.org/2000/svg">
<path d="M0.905273 0.210938H6.90381C10.8345 0.210938 13.3695 1.34456 14.5088 3.61182C14.9303 4.46631 15.1411 5.3151 15.1411 6.1582C15.1411 7.0013 15.05 7.6735 14.8677 8.1748C14.6968 8.66471 14.4632 9.11475 14.167 9.5249C13.6087 10.2996 12.8682 10.9604 11.9453 11.5073V11.5757C13.6543 12.0656 14.9132 12.9258 15.7222 14.1562C16.3374 15.0905 16.645 16.1273 16.645 17.2666C16.645 18.4059 16.4172 19.3914 15.9614 20.2231C15.5171 21.0549 14.8962 21.7498 14.0986 22.3081C12.4694 23.436 10.2933 24 7.57031 24H0.905273V0.210938ZM7.55322 10.5845C9.38753 10.5845 10.6237 9.861 11.2617 8.41406C11.4782 7.90137 11.5864 7.33171 11.5864 6.70508C11.5864 6.06706 11.5067 5.52018 11.3472 5.06445C11.1877 4.59733 10.9313 4.19857 10.5781 3.86816C9.82617 3.16178 8.69255 2.80859 7.17725 2.80859H4.32324V10.5845H7.55322ZM13.0903 17.335C13.0903 14.5664 11.4269 13.1821 8.1001 13.1821H4.32324V21.4023H7.57031C10.0768 21.4023 11.7687 20.6447 12.646 19.1294C12.9422 18.6167 13.0903 18.0186 13.0903 17.335ZM28.9326 0.210938H31.2739L41.3057 24H37.751L35.3413 18.0186H24.7798L22.3872 24H18.9009L28.9326 0.210938ZM34.2476 15.2842L30.0776 4.85938L25.8906 15.2842H34.2476ZM57.9683 22.3423C57.1593 22.9119 56.1226 23.362 54.8579 23.6924C53.5933 24.0114 52.0438 24.1709 50.2095 24.1709C48.3866 24.1709 46.5465 24.0627 44.6895 23.8462V20.5308C46.3529 20.9067 48.0277 21.0947 49.7139 21.0947C51.4001 21.0947 52.6647 21.0036 53.5078 20.8213C54.3509 20.6276 55.0288 20.377 55.5415 20.0693C56.4871 19.4997 56.96 18.7591 56.96 17.8477C56.96 17.1413 56.7777 16.5944 56.4131 16.207C55.832 15.6032 54.9946 15.0506 53.9009 14.5493L49.5259 12.5498C48.022 11.8434 46.9567 11.1883 46.3301 10.5845C44.9857 9.28564 44.3135 7.78174 44.3135 6.07275C44.3135 4.3182 45.0768 2.89974 46.6035 1.81738C48.2783 0.632487 50.6595 0.0400391 53.7471 0.0400391C55.7409 0.0400391 57.5638 0.119792 59.2158 0.279297V3.54346C57.8145 3.22445 56.2479 3.06494 54.5161 3.06494C52.7957 3.06494 51.5425 3.15609 50.7563 3.33838C49.9816 3.50928 49.3721 3.73145 48.9277 4.00488C48.1188 4.50618 47.7144 5.16699 47.7144 5.9873C47.7144 6.78483 47.9707 7.44564 48.4834 7.96973C48.9391 8.41406 49.7708 8.92676 50.9785 9.50781L55.4731 11.644C56.9657 12.3504 58.0081 13.0169 58.6006 13.6436C59.2044 14.2702 59.6488 14.9025 59.9336 15.5405C60.2184 16.1672 60.3608 16.9248 60.3608 17.8135C60.3608 18.6908 60.1672 19.5225 59.7798 20.3086C59.3924 21.0833 58.7886 21.7612 57.9683 22.3423ZM72.7168 0.210938H75.0581L85.0898 24H81.5352L79.1255 18.0186H68.564L66.1714 24H62.6851L72.7168 0.210938ZM78.0317 15.2842L73.8618 4.85938L69.6748 15.2842H78.0317ZM88.2002 0.210938H91.6182V9.61035H102.863V0.210938H106.281V24H102.863V12.6182H91.6182V24H88.2002V0.210938Z" fill="white"/>
<path d="M0.905273 0.210938V-0.789062H-0.0947266V0.210938H0.905273ZM14.5088 3.61182L15.4056 3.16938L15.4023 3.16281L14.5088 3.61182ZM14.8677 8.1748L13.9278 7.83303L13.9235 7.84543L14.8677 8.1748ZM14.167 9.5249L13.3563 8.93941L13.3557 8.94028L14.167 9.5249ZM11.9453 11.5073L11.4355 10.647L10.9453 10.9375V11.5073H11.9453ZM11.9453 11.5757H10.9453V12.3293L11.6697 12.537L11.9453 11.5757ZM15.7222 14.1562L14.8866 14.7056L14.887 14.7062L15.7222 14.1562ZM15.9614 20.2231L15.0844 19.7426L15.0794 19.7519L15.9614 20.2231ZM14.0986 22.3081L14.6679 23.1303L14.6721 23.1273L14.0986 22.3081ZM0.905273 24H-0.0947266V25H0.905273V24ZM11.2617 8.41406L12.1767 8.81753L12.1799 8.8103L12.183 8.80303L11.2617 8.41406ZM11.3472 5.06445L10.4008 5.38761L10.4033 5.3948L11.3472 5.06445ZM10.5781 3.86816L9.89345 4.59701L9.89497 4.59844L10.5781 3.86816ZM4.32324 2.80859V1.80859H3.32324V2.80859H4.32324ZM4.32324 10.5845H3.32324V11.5845H4.32324V10.5845ZM4.32324 13.1821V12.1821H3.32324V13.1821H4.32324ZM4.32324 21.4023H3.32324V22.4023H4.32324V21.4023ZM12.646 19.1294L13.5114 19.6304L13.5119 19.6297L12.646 19.1294ZM0.905273 1.21094H6.90381V-0.789062H0.905273V1.21094ZM6.90381 1.21094C10.6848 1.21094 12.7284 2.2959 13.6153 4.06083L15.4023 3.16281C14.0106 0.393224 10.9841 -0.789062 6.90381 -0.789062V1.21094ZM13.612 4.05424C13.9745 4.78916 14.1411 5.48746 14.1411 6.1582H16.1411C16.1411 5.14275 15.8861 4.14346 15.4056 3.16939L13.612 4.05424ZM14.1411 6.1582C14.1411 6.9444 14.0541 7.48602 13.9279 7.83306L15.8075 8.51655C16.0459 7.86099 16.1411 7.05821 16.1411 6.1582H14.1411ZM13.9235 7.84543C13.7836 8.24631 13.5944 8.60971 13.3563 8.93941L14.9777 10.1104C15.332 9.61978 15.6099 9.08311 15.8119 8.50418L13.9235 7.84543ZM13.3557 8.94028C12.8872 9.59036 12.2546 10.1617 11.4355 10.647L12.4551 12.3676C13.4818 11.7592 14.3302 11.0089 14.9783 10.1095L13.3557 8.94028ZM10.9453 11.5073V11.5757H12.9453V11.5073H10.9453ZM11.6697 12.537C13.1986 12.9752 14.235 13.7144 14.8866 14.7056L16.5578 13.6069C15.5915 12.1372 14.11 11.156 12.2209 10.6144L11.6697 12.537ZM14.887 14.7062C15.3926 15.474 15.645 16.3189 15.645 17.2666H17.645C17.645 15.9356 17.2822 14.707 16.5573 13.6063L14.887 14.7062ZM15.645 17.2666C15.645 18.2716 15.4447 19.0852 15.0844 19.7426L16.8384 20.7037C17.3896 19.6977 17.645 18.5402 17.645 17.2666H15.645ZM15.0794 19.7519C14.7116 20.4404 14.1982 21.0177 13.5252 21.4889L14.6721 23.1273C15.5941 22.4819 16.3226 21.6693 16.8434 20.6944L15.0794 19.7519ZM13.5294 21.4859C12.1195 22.462 10.164 23 7.57031 23V25C10.4226 25 12.8193 24.41 14.6678 23.1303L13.5294 21.4859ZM7.57031 23H0.905273V25H7.57031V23ZM1.90527 24V0.210938H-0.0947266V24H1.90527ZM7.55322 11.5845C8.59902 11.5845 9.55256 11.3782 10.3612 10.9049C11.1797 10.4259 11.7821 9.71247 12.1767 8.81753L10.3467 8.0106C10.1033 8.5626 9.7686 8.93439 9.35097 9.17881C8.92343 9.42904 8.34174 9.58447 7.55322 9.58447V11.5845ZM12.183 8.80303C12.4576 8.15266 12.5864 7.44852 12.5864 6.70508H10.5864C10.5864 7.21489 10.4988 7.65008 10.3405 8.02509L12.183 8.80303ZM12.5864 6.70508C12.5864 5.98858 12.4975 5.32396 12.291 4.7341L10.4033 5.3948C10.5159 5.71641 10.5864 6.14553 10.5864 6.70508H12.5864ZM12.2935 4.74131C12.0821 4.12227 11.7368 3.58274 11.2613 3.13789L9.89497 4.59844C10.1258 4.81439 10.2932 5.07239 10.4008 5.3876L12.2935 4.74131ZM11.2628 3.13932C10.2545 2.1921 8.82923 1.80859 7.17725 1.80859V3.80859C8.55586 3.80859 9.39787 4.13146 9.89345 4.59701L11.2628 3.13932ZM7.17725 1.80859H4.32324V3.80859H7.17725V1.80859ZM3.32324 2.80859V10.5845H5.32324V2.80859H3.32324ZM4.32324 11.5845H7.55322V9.58447H4.32324V11.5845ZM14.0903 17.335C14.0903 15.7433 13.6034 14.3845 12.4824 13.4517C11.3967 12.5481 9.87749 12.1821 8.1001 12.1821V14.1821C9.64952 14.1821 10.6255 14.5083 11.2031 14.989C11.7456 15.4404 12.0903 16.1581 12.0903 17.335H14.0903ZM8.1001 12.1821H4.32324V14.1821H8.1001V12.1821ZM3.32324 13.1821V21.4023H5.32324V13.1821H3.32324ZM4.32324 22.4023H7.57031V20.4023H4.32324V22.4023ZM7.57031 22.4023C10.2631 22.4023 12.3838 21.5781 13.5114 19.6304L11.7806 18.6284C11.1536 19.7113 9.89051 20.4023 7.57031 20.4023V22.4023ZM13.5119 19.6297C13.9088 18.9427 14.0903 18.1667 14.0903 17.335H12.0903C12.0903 17.8704 11.9757 18.2907 11.7801 18.6291L13.5119 19.6297ZM28.9326 0.210938V-0.789062H28.269L28.0112 -0.177623L28.9326 0.210938ZM31.2739 0.210938L32.1954 -0.177623L31.9375 -0.789062H31.2739V0.210938ZM41.3057 24V25H42.8126L42.2271 23.6114L41.3057 24ZM37.751 24L36.8234 24.3737L37.0757 25H37.751V24ZM35.3413 18.0186L36.2689 17.6449L36.0165 17.0186H35.3413V18.0186ZM24.7798 18.0186V17.0186H24.1028L23.8513 17.6472L24.7798 18.0186ZM22.3872 24V25H23.0642L23.3157 24.3714L22.3872 24ZM18.9009 24L17.9795 23.6114L17.3939 25H18.9009V24ZM34.2476 15.2842V16.2842H35.7246L35.176 14.9128L34.2476 15.2842ZM30.0776 4.85938L31.0061 4.48798L30.0795 2.17154L29.1497 4.48667L30.0776 4.85938ZM25.8906 15.2842L24.9627 14.9115L24.4113 16.2842H25.8906V15.2842ZM28.9326 1.21094H31.2739V-0.789062H28.9326V1.21094ZM30.3525 0.599498L40.3842 24.3886L42.2271 23.6114L32.1954 -0.177623L30.3525 0.599498ZM41.3057 23H37.751V25H41.3057V23ZM38.6785 23.6263L36.2689 17.6449L34.4137 18.3922L36.8234 24.3737L38.6785 23.6263ZM35.3413 17.0186H24.7798V19.0186H35.3413V17.0186ZM23.8513 17.6472L21.4587 23.6286L23.3157 24.3714L25.7083 18.3899L23.8513 17.6472ZM22.3872 23H18.9009V25H22.3872V23ZM19.8223 24.3886L29.854 0.599498L28.0112 -0.177623L17.9795 23.6114L19.8223 24.3886ZM35.176 14.9128L31.0061 4.48798L29.1492 5.23077L33.3191 15.6556L35.176 14.9128ZM29.1497 4.48667L24.9627 14.9115L26.8186 15.6569L31.0056 5.23208L29.1497 4.48667ZM25.8906 16.2842H34.2476V14.2842H25.8906V16.2842ZM57.9683 22.3423L58.544 23.1599L58.5463 23.1583L57.9683 22.3423ZM54.8579 23.6924L55.1025 24.662L55.1107 24.6599L54.8579 23.6924ZM44.6895 23.8462H43.6895V24.7364L44.5737 24.8395L44.6895 23.8462ZM44.6895 20.5308L44.9099 19.5554L43.6895 19.2795V20.5308H44.6895ZM53.5078 20.8213L53.7192 21.7988L53.7317 21.7959L53.5078 20.8213ZM55.5415 20.0693L56.056 20.9268L56.0575 20.9259L55.5415 20.0693ZM56.4131 16.207L57.1413 15.5216L57.1337 15.5137L56.4131 16.207ZM53.9009 14.5493L54.3175 13.6403L54.3166 13.6398L53.9009 14.5493ZM49.5259 12.5498L49.1007 13.455L49.1102 13.4593L49.5259 12.5498ZM46.3301 10.5845L45.6353 11.3037L45.6362 11.3046L46.3301 10.5845ZM46.6035 1.81738L46.026 1.00103L46.0252 1.0016L46.6035 1.81738ZM59.2158 0.279297H60.2158V-0.628801L59.3119 -0.716074L59.2158 0.279297ZM59.2158 3.54346L58.9939 4.51851L60.2158 4.79668V3.54346H59.2158ZM50.7563 3.33838L50.9718 4.31496L50.9822 4.31253L50.7563 3.33838ZM48.9277 4.00488L48.4036 3.15322L48.401 3.15487L48.9277 4.00488ZM48.4834 7.96973L47.7686 8.66902L47.7768 8.67747L47.7853 8.68573L48.4834 7.96973ZM50.9785 9.50781L50.545 10.4089L50.5492 10.411L50.9785 9.50781ZM55.4731 11.644L55.0439 12.5472L55.0454 12.5479L55.4731 11.644ZM58.6006 13.6436L57.8739 14.3306L57.8805 14.3374L58.6006 13.6436ZM59.9336 15.5405L59.0204 15.9482L59.0232 15.9543L59.9336 15.5405ZM59.7798 20.3086L60.6742 20.7558L60.6768 20.7506L59.7798 20.3086ZM57.3925 21.5247C56.7072 22.0073 55.7891 22.4155 54.6051 22.7249L55.1107 24.6599C56.456 24.3084 57.6115 23.8166 58.544 23.1599L57.3925 21.5247ZM54.6133 22.7228C53.4536 23.0153 51.9919 23.1709 50.2095 23.1709V25.1709C52.0957 25.1709 53.7329 25.0075 55.1025 24.662L54.6133 22.7228ZM50.2095 23.1709C48.4262 23.1709 46.6249 23.065 44.8052 22.8529L44.5737 24.8395C46.4682 25.0603 48.3469 25.1709 50.2095 25.1709V23.1709ZM45.6895 23.8462V20.5308H43.6895V23.8462H45.6895ZM44.469 21.5062C46.2039 21.8983 47.9527 22.0947 49.7139 22.0947V20.0947C48.1027 20.0947 46.5018 19.9152 44.9099 19.5554L44.469 21.5062ZM49.7139 22.0947C51.4174 22.0947 52.7687 22.0042 53.7191 21.7987L53.2965 19.8439C52.5608 20.003 51.3828 20.0947 49.7139 20.0947V22.0947ZM53.7317 21.7959C54.6357 21.5882 55.4227 21.3068 56.056 20.9268L55.027 19.2118C54.6349 19.4471 54.0662 19.667 53.2839 19.8467L53.7317 21.7959ZM56.0575 20.9259C57.2294 20.2199 57.96 19.1883 57.96 17.8477H55.96C55.96 18.3299 55.7449 18.7794 55.0255 19.2128L56.0575 20.9259ZM57.96 17.8477C57.96 16.9722 57.7314 16.1487 57.1413 15.5217L55.6849 16.8924C55.8239 17.0401 55.96 17.3104 55.96 17.8477H57.96ZM57.1337 15.5137C56.4367 14.7893 55.4796 14.1729 54.3175 13.6403L53.4842 15.4584C54.5096 15.9284 55.2274 16.4171 55.6925 16.9004L57.1337 15.5137ZM54.3166 13.6398L49.9416 11.6403L49.1102 13.4593L53.4852 15.4588L54.3166 13.6398ZM49.951 11.6447C48.4732 10.9506 47.5294 10.3514 47.024 9.8644L45.6362 11.3046C46.384 12.0252 47.5707 12.7363 49.1007 13.4549L49.951 11.6447ZM47.0249 9.86528C45.8553 8.73532 45.3135 7.48362 45.3135 6.07275H43.3135C43.3135 8.07985 44.1161 9.83597 45.6353 11.3037L47.0249 9.86528ZM45.3135 6.07275C45.3135 4.667 45.8989 3.54272 47.1819 2.63317L46.0252 1.0016C44.2547 2.25676 43.3135 3.9694 43.3135 6.07275H45.3135ZM47.1811 2.63373C48.6213 1.61481 50.7679 1.04004 53.7471 1.04004V-0.959961C50.5511 -0.959961 47.9354 -0.349835 46.026 1.00103L47.1811 2.63373ZM53.7471 1.04004C55.7149 1.04004 57.5052 1.11879 59.1197 1.27467L59.3119 -0.716074C57.6224 -0.879203 55.7668 -0.959961 53.7471 -0.959961V1.04004ZM58.2158 0.279297V3.54346H60.2158V0.279297H58.2158ZM59.4378 2.5684C57.9506 2.22985 56.3079 2.06494 54.5161 2.06494V4.06494C56.1879 4.06494 57.6783 4.21905 58.9939 4.51851L59.4378 2.5684ZM54.5161 2.06494C52.7852 2.06494 51.4349 2.1545 50.5305 2.36423L50.9822 4.31253C51.65 4.15768 52.8063 4.06494 54.5161 4.06494V2.06494ZM50.5409 2.36186C49.7078 2.54563 48.9792 2.79906 48.4036 3.15322L49.4518 4.85654C49.765 4.66384 50.2554 4.47292 50.9718 4.3149L50.5409 2.36186ZM48.401 3.15487C47.3533 3.80414 46.7144 4.76026 46.7144 5.9873H48.7144C48.7144 5.57373 48.8843 5.20823 49.4545 4.85489L48.401 3.15487ZM46.7144 5.9873C46.7144 7.02103 47.0562 7.94079 47.7686 8.66902L49.1982 7.27043C48.8852 6.95049 48.7144 6.54863 48.7144 5.9873H46.7144ZM47.7853 8.68573C48.3648 9.25078 49.323 9.82102 50.545 10.4089L51.4121 8.60669C50.2187 8.03249 49.5134 7.57735 49.1815 7.25373L47.7853 8.68573ZM50.5492 10.411L55.0439 12.5472L55.9024 10.7409L51.4078 8.60464L50.5492 10.411ZM55.0454 12.5479C56.5091 13.2407 57.413 13.8431 57.8739 14.3306L59.3272 12.9565C58.6032 12.1908 57.4222 11.4601 55.9009 10.7402L55.0454 12.5479ZM57.8805 14.3374C58.4229 14.9003 58.7929 15.4384 59.0205 15.9482L60.8467 15.1329C60.5046 14.3666 59.986 13.6401 59.3207 12.9497L57.8805 14.3374ZM59.0232 15.9543C59.2344 16.419 59.3608 17.0276 59.3608 17.8135H61.3608C61.3608 16.822 61.2024 15.9153 60.844 15.1267L59.0232 15.9543ZM59.3608 17.8135C59.3608 18.5376 59.2023 19.2181 58.8828 19.8666L60.6768 20.7506C61.132 19.8268 61.3608 18.8439 61.3608 17.8135H59.3608ZM58.8854 19.8614C58.5825 20.467 58.098 21.0249 57.3902 21.5263L58.5463 23.1583C59.4791 22.4975 60.2023 21.6997 60.6742 20.7558L58.8854 19.8614ZM72.7168 0.210938V-0.789062H72.0532L71.7954 -0.177623L72.7168 0.210938ZM75.0581 0.210938L75.9795 -0.177623L75.7217 -0.789062H75.0581V0.210938ZM85.0898 24V25H86.5968L86.0113 23.6114L85.0898 24ZM81.5352 24L80.6076 24.3737L80.8599 25H81.5352V24ZM79.1255 18.0186L80.053 17.6449L79.8007 17.0186H79.1255V18.0186ZM68.564 18.0186V17.0186H67.8869L67.6355 17.6472L68.564 18.0186ZM66.1714 24V25H66.8484L67.0999 24.3714L66.1714 24ZM62.6851 24L61.7636 23.6114L61.1781 25H62.6851V24ZM78.0317 15.2842V16.2842H79.5088L78.9602 14.9128L78.0317 15.2842ZM73.8618 4.85938L74.7903 4.48798L73.8637 2.17154L72.9339 4.48667L73.8618 4.85938ZM69.6748 15.2842L68.7469 14.9115L68.1955 16.2842H69.6748V15.2842ZM72.7168 1.21094H75.0581V-0.789062H72.7168V1.21094ZM74.1367 0.599498L84.1684 24.3886L86.0113 23.6114L75.9795 -0.177623L74.1367 0.599498ZM85.0898 23H81.5352V25H85.0898V23ZM82.4627 23.6263L80.053 17.6449L78.1979 18.3922L80.6076 24.3737L82.4627 23.6263ZM79.1255 17.0186H68.564V19.0186H79.1255V17.0186ZM67.6355 17.6472L65.2429 23.6286L67.0999 24.3714L69.4924 18.3899L67.6355 17.6472ZM66.1714 23H62.6851V25H66.1714V23ZM63.6065 24.3886L73.6382 0.599498L71.7954 -0.177623L61.7636 23.6114L63.6065 24.3886ZM78.9602 14.9128L74.7903 4.48798L72.9333 5.23077L77.1033 15.6556L78.9602 14.9128ZM72.9339 4.48667L68.7469 14.9115L70.6028 15.6569L74.7898 5.23208L72.9339 4.48667ZM69.6748 16.2842H78.0317V14.2842H69.6748V16.2842ZM88.2002 0.210938V-0.789062H87.2002V0.210938H88.2002ZM91.6182 0.210938H92.6182V-0.789062H91.6182V0.210938ZM91.6182 9.61035H90.6182V10.6104H91.6182V9.61035ZM102.863 9.61035V10.6104H103.863V9.61035H102.863ZM102.863 0.210938V-0.789062H101.863V0.210938H102.863ZM106.281 0.210938H107.281V-0.789062H106.281V0.210938ZM106.281 24V25H107.281V24H106.281ZM102.863 24H101.863V25H102.863V24ZM102.863 12.6182H103.863V11.6182H102.863V12.6182ZM91.6182 12.6182V11.6182H90.6182V12.6182H91.6182ZM91.6182 24V25H92.6182V24H91.6182ZM88.2002 24H87.2002V25H88.2002V24ZM88.2002 1.21094H91.6182V-0.789062H88.2002V1.21094ZM90.6182 0.210938V9.61035H92.6182V0.210938H90.6182ZM91.6182 10.6104H102.863V8.61035H91.6182V10.6104ZM103.863 9.61035V0.210938H101.863V9.61035H103.863ZM102.863 1.21094H106.281V-0.789062H102.863V1.21094ZM105.281 0.210938V24H107.281V0.210938H105.281ZM106.281 23H102.863V25H106.281V23ZM103.863 24V12.6182H101.863V24H103.863ZM102.863 11.6182H91.6182V13.6182H102.863V11.6182ZM90.6182 12.6182V24H92.6182V12.6182H90.6182ZM91.6182 23H88.2002V25H91.6182V23ZM89.2002 24V0.210938H87.2002V24H89.2002Z" fill="#FFFEFE"/>
</svg>
