<svg width="55" height="55" viewBox="0 0 55 55" fill="none" xmlns="http://www.w3.org/2000/svg">
<g clip-path="url(#clip0_85_103)">
<path d="M53.4722 39.7222C53.4722 41.343 52.8284 42.8974 51.6823 44.0434C50.5363 45.1895 48.9819 45.8333 47.3611 45.8333H7.63888C6.01811 45.8333 4.46373 45.1895 3.31767 44.0434C2.17162 42.8974 1.52777 41.343 1.52777 39.7222V9.64486C1.52777 6.27 10.3751 0 13.75 0H45.2604C49.9874 0 53.4722 3.53222 53.4722 8.2118V39.7222Z" fill="#093F68"/>
<path d="M50.4166 45.8333C50.4166 47.4541 49.7728 49.0085 48.6267 50.1545C47.4807 51.3006 45.9263 51.9445 44.3055 51.9445H10.6944C9.07366 51.9445 7.51927 51.3006 6.37322 50.1545C5.22716 49.0085 4.58332 47.4541 4.58332 45.8333V9.16668C4.58332 2.87376 4.55123 3.05557 12.2222 3.05557H44.3055C45.9263 3.05557 47.4807 3.69941 48.6267 4.84547C49.7728 5.99152 50.4166 7.54591 50.4166 9.16668V45.8333Z" fill="#F5F8FA"/>
<path d="M47.3611 47.3611C47.3611 48.5767 46.8782 49.7425 46.0187 50.602C45.1591 51.4616 43.9933 51.9444 42.7778 51.9444H6.1111C4.89553 51.9444 3.72974 51.4616 2.8702 50.602C2.01066 49.7425 1.52777 48.5767 1.52777 47.3611V10.6944C1.52777 9.47887 2.01066 8.31308 2.8702 7.45354C3.72974 6.594 4.89553 6.11111 6.1111 6.11111H42.7778C43.9933 6.11111 45.1591 6.594 46.0187 7.45354C46.8782 8.31308 47.3611 9.47887 47.3611 10.6944V47.3611Z" fill="white"/>
<path d="M47.3611 48.8889C47.3611 50.5096 46.7173 52.064 45.5712 53.2101C44.4251 54.3561 42.8708 55 41.25 55H9.16665C7.54589 55 5.9915 54.3561 4.84545 53.2101C3.69939 52.064 3.05554 50.5096 3.05554 48.8889V15.2778C3.05554 13.657 3.69939 12.1026 4.84545 10.9566C5.9915 9.8105 7.54589 9.16666 9.16665 9.16666H41.25C42.8708 9.16666 44.4251 9.8105 45.5712 10.9566C46.7173 12.1026 47.3611 13.657 47.3611 15.2778V48.8889Z" fill="#093F68"/>
<path d="M44.3055 48.8889C44.3055 50.5097 43.6617 52.064 42.5156 53.2101C41.3696 54.3562 39.8152 55 38.1944 55H9.16665C7.54589 55 5.9915 54.3562 4.84545 53.2101C3.69939 52.064 3.05554 50.5097 3.05554 48.8889V18.3333C3.05554 16.7126 3.69939 15.1582 4.84545 14.0121C5.9915 12.8661 7.54589 12.2222 9.16665 12.2222H38.7062C42.0811 12.2222 44.3055 14.4467 44.3055 17.8215V48.8889Z" fill="#093F68" fill-opacity="0.28"/>
<path d="M9.16666 9.16667C6.58777 9.16667 6.52208 6.23028 7.63888 4.96528C8.90999 3.52764 10.8854 3.05556 14.4192 3.05556H16.8055V0H12.6515C6.58777 0 1.52777 3.81944 1.52777 8.21181V48.8889C1.52777 50.5097 2.17162 52.064 3.31767 53.2101C4.46373 54.3562 6.01812 55 7.63888 55H10.6944V9.16667H9.16666Z" fill="#093F68"/>
<path d="M25.9722 6.11111V41.25L32.0833 32.0833L38.1945 41.25V6.11111H25.9722Z" fill="#DD2E44"/>
<path d="M38.1944 42.7778C37.943 42.7778 37.6954 42.7158 37.4737 42.5972C37.2519 42.4786 37.0629 42.3071 36.9233 42.0979L32.0833 34.8379L27.2433 42.0979C27.0626 42.3729 26.7979 42.582 26.4885 42.6941C26.1792 42.8062 25.8419 42.8152 25.5271 42.7198C25.2122 42.6244 24.9366 42.4297 24.7415 42.1648C24.5464 41.8999 24.4422 41.579 24.4444 41.25V6.11112C24.4444 5.70593 24.6054 5.31733 24.8919 5.03082C25.1784 4.74431 25.567 4.58334 25.9722 4.58334H38.1944C38.5996 4.58334 38.9882 4.74431 39.2747 5.03082C39.5613 5.31733 39.7222 5.70593 39.7222 6.11112V41.25C39.7222 41.6552 39.5613 42.0438 39.2747 42.3303C38.9882 42.6168 38.5996 42.7778 38.1944 42.7778ZM32.0833 30.5556C32.5936 30.5556 33.0703 30.8107 33.3544 31.2354L36.6667 36.2038V7.6389H27.5V36.2038L30.8122 31.2354C31.0964 30.8107 31.573 30.5556 32.0833 30.5556Z" fill="#DD2E44"/>
<path d="M22.9167 3.05554H41.25V6.1111H22.9167V3.05554Z" fill="#F5F8FA"/>
</g>
<defs>
<clipPath id="clip0_85_103">
<rect width="55" height="55" fill="white"/>
</clipPath>
</defs>
</svg>
