<svg width="67" height="53" viewBox="0 0 67 53" fill="none" xmlns="http://www.w3.org/2000/svg">
<path fill-rule="evenodd" clip-rule="evenodd" d="M6.70272 29.2945H41.0674C42.2624 29.2945 43.2258 28.3283 43.2258 27.1364V3.35575C43.2258 2.16485 42.2595 1.19769 41.0674 1.19769H2.15836C0.963438 1.19769 0 2.16389 0 3.35575V27.615V36.7419L6.70272 29.2945Z" fill="#F56132"/>
<path fill-rule="evenodd" clip-rule="evenodd" d="M6.70272 28.0968H41.0674C42.2624 28.0968 43.2258 27.1306 43.2258 25.9387V2.15805C43.2258 0.967154 42.2595 0 41.0674 0H2.15836C0.963438 0 0 0.966193 0 2.15805V26.4173V35.5442L6.70272 28.0968Z" fill="#F56132"/>
<path fill-rule="evenodd" clip-rule="evenodd" d="M60.2973 45.3871H25.9326C24.7376 45.3871 23.7742 44.4209 23.7742 43.2291V19.4484C23.7742 18.2575 24.7405 17.2903 25.9326 17.2903H64.8416C66.0366 17.2903 67 18.2565 67 19.4484V43.7076V52.8346L60.2973 45.3871Z" fill="#093F68"/>
<path d="M37.8225 33.5C39.0162 33.5 39.9838 32.5323 39.9838 31.3387C39.9838 30.145 39.0162 29.1774 37.8225 29.1774C36.6289 29.1774 35.6613 30.145 35.6613 31.3387C35.6613 32.5323 36.6289 33.5 37.8225 33.5Z" fill="#D8D8D8"/>
<path d="M14.0484 16.2097C15.242 16.2097 16.2097 15.242 16.2097 14.0484C16.2097 12.8547 15.242 11.8871 14.0484 11.8871C12.8547 11.8871 11.8871 12.8547 11.8871 14.0484C11.8871 15.242 12.8547 16.2097 14.0484 16.2097Z" fill="#D8D8D8"/>
<path d="M45.3871 33.5C46.5807 33.5 47.5483 32.5323 47.5483 31.3387C47.5483 30.145 46.5807 29.1774 45.3871 29.1774C44.1934 29.1774 43.2258 30.145 43.2258 31.3387C43.2258 32.5323 44.1934 33.5 45.3871 33.5Z" fill="#D8D8D8"/>
<path d="M21.6129 16.2097C22.8065 16.2097 23.7742 15.242 23.7742 14.0484C23.7742 12.8547 22.8065 11.8871 21.6129 11.8871C20.4192 11.8871 19.4516 12.8547 19.4516 14.0484C19.4516 15.242 20.4192 16.2097 21.6129 16.2097Z" fill="#D8D8D8"/>
<path d="M52.9516 33.5C54.1452 33.5 55.1129 32.5323 55.1129 31.3387C55.1129 30.145 54.1452 29.1774 52.9516 29.1774C51.7579 29.1774 50.7903 30.145 50.7903 31.3387C50.7903 32.5323 51.7579 33.5 52.9516 33.5Z" fill="#D8D8D8"/>
<path d="M29.1774 16.2097C30.3711 16.2097 31.3387 15.242 31.3387 14.0484C31.3387 12.8547 30.3711 11.8871 29.1774 11.8871C27.9838 11.8871 27.0161 12.8547 27.0161 14.0484C27.0161 15.242 27.9838 16.2097 29.1774 16.2097Z" fill="#D8D8D8"/>
</svg>
