<svg width="65" height="65" viewBox="0 0 65 65" fill="none" xmlns="http://www.w3.org/2000/svg">
<path d="M57.3828 9.41992H30.5926C26.7962 9.41992 23.7179 13.3991 23.7179 18.3066V26.7414L22.0959 27.2177L20.9066 35.6342L21.7283 44.1299L30.2067 44.0781C30.3397 44.0903 30.4596 44.1299 30.5916 44.1299H57.3818C61.1812 44.1299 64.2586 40.1527 64.2586 35.2432V18.3077C64.2606 13.4002 61.1812 9.41992 57.3828 9.41992Z" fill="#F48020"/>
<path d="M57.3828 9.43719H30.5926C26.7962 9.43719 23.7179 13.4154 23.7179 18.3239V26.7597L22.0959 27.236L20.9066 35.6515L21.4774 41.5645L22.0959 37.2003L23.7179 36.724V28.2892C23.7179 23.3817 26.7952 19.4025 30.5926 19.4025H57.3828C61.1822 19.4025 64.2596 23.3827 64.2596 28.2892V18.3229C64.2596 13.4154 61.1822 9.43719 57.3828 9.43719Z" fill="#F9A425"/>
<path d="M20.0738 19.4086H14.6179C10.0598 19.7062 0.994315 21.7953 1.16799 33.6984V38.0798C1.16799 41.8285 2.79908 44.8662 4.80697 44.8662H20.0718C22.0817 44.8662 23.7138 41.8295 23.7138 38.0798V26.193C23.7138 22.4453 22.0828 19.4055 20.0718 19.4055" fill="#E3E4E3"/>
<path d="M21.5313 15.2212H18.261C15.534 15.3776 10.1055 16.4623 10.2091 22.6444V24.9163C10.2091 26.8643 11.1892 28.4416 12.3886 28.4416H21.5293C22.7307 28.4416 23.7088 26.8643 23.7088 24.9163V18.7484C23.7108 16.8005 22.7318 15.2212 21.5303 15.2212" fill="#E3E4E3"/>
<path d="M13.1158 22.7185H10.3797C8.09557 22.8891 3.54963 24.0845 3.63799 30.8943V33.4009C3.63799 35.5469 4.45353 37.2866 5.46205 37.2866H13.1158C14.1243 37.2866 14.9439 35.5469 14.9439 33.4009V26.6012C14.9439 24.4573 14.1243 22.7195 13.1158 22.7195" fill="#A2C2CA"/>
<path d="M9.18124 31.2335C9.04819 28.3634 9.24421 25.412 10.0902 22.7084C7.79186 22.8912 3.30382 24.113 3.39014 30.8842V33.3907C3.39014 35.5367 4.20772 37.2765 5.21624 37.2765H10.1898C9.60272 35.4595 9.28382 33.4496 9.18124 31.2376" fill="#83AFB7"/>
<path d="M21.6226 46.6588C21.621 48.5271 20.8777 50.3184 19.556 51.6389C18.2344 52.9594 16.4425 53.7012 14.5742 53.7012C12.707 53.6995 10.9166 52.9571 9.5963 51.6367C8.27595 50.3164 7.53347 48.5261 7.53186 46.6588C7.5324 44.791 8.27447 42.9999 9.59499 41.679C10.9155 40.3581 12.7064 39.6155 14.5742 39.6144C15.4996 39.6142 16.4159 39.7962 17.2709 40.15C18.1259 40.5039 18.9029 41.0227 19.5574 41.6768C20.2119 42.331 20.7311 43.1076 21.0855 43.9624C21.4398 44.8172 21.6224 45.7335 21.6226 46.6588Z" fill="white"/>
<path d="M20.3734 46.6588C20.3721 48.1955 19.7607 49.6687 18.6737 50.7548C17.5866 51.8409 16.1129 52.451 14.5762 52.451C13.0406 52.4491 11.5685 51.8382 10.4827 50.7524C9.39684 49.6666 8.786 48.1944 8.78412 46.6588C8.80429 45.1353 9.42367 43.681 10.5082 42.6107C11.5927 41.5405 13.0551 40.9404 14.5788 40.9404C16.1024 40.9404 17.5648 41.5405 18.6493 42.6107C19.7339 43.681 20.3532 45.1353 20.3734 46.6588Z" fill="#243438"/>
<path d="M18.332 46.5776C18.332 47.5738 17.9363 48.5292 17.2318 49.2337C16.5274 49.9381 15.572 50.3339 14.5757 50.3339C13.5795 50.3339 12.6241 49.9381 11.9196 49.2337C11.2152 48.5292 10.8195 47.5738 10.8195 46.5776C10.8473 45.5999 11.2553 44.6715 11.9567 43.9898C12.6581 43.3081 13.5976 42.9268 14.5757 42.9268C15.5539 42.9268 16.4934 43.3081 17.1948 43.9898C17.8962 44.6715 18.3042 45.5999 18.332 46.5776Z" fill="#969796"/>
<path d="M50.6147 47.5699C50.6142 49.1966 49.9677 50.7566 48.8174 51.9069C47.6671 53.0572 46.1071 53.7037 44.4803 53.7042C42.8537 53.7032 41.294 53.0565 40.1439 51.9063C38.9937 50.7561 38.347 49.1965 38.3459 47.5699C38.3465 45.9431 38.993 44.3831 40.1433 43.2328C41.2936 42.0825 42.8536 41.436 44.4803 41.4355C45.2859 41.4355 46.0836 41.5942 46.8278 41.9024C47.5721 42.2107 48.2484 42.6626 48.818 43.2322C49.3876 43.8018 49.8395 44.4781 50.1477 45.2223C50.456 45.9666 50.6147 46.7643 50.6147 47.5699Z" fill="white"/>
<path d="M49.528 47.5698C49.528 48.9072 48.9967 50.1898 48.051 51.1355C47.1054 52.0811 45.8228 52.6124 44.4854 52.6124C43.148 52.6124 41.8654 52.0811 40.9197 51.1355C39.9741 50.1898 39.4428 48.9072 39.4428 47.5698C39.4423 46.9079 39.5722 46.2524 39.8251 45.6407C40.078 45.029 40.4489 44.4731 40.9168 44.0048C41.3846 43.5365 41.9401 43.165 42.5515 42.9115C43.163 42.6579 43.8184 42.5274 44.4803 42.5273C45.143 42.5265 45.7993 42.6563 46.4117 42.9094C47.0242 43.1624 47.5807 43.5338 48.0495 44.0021C48.5183 44.4704 48.8902 45.0266 49.1439 45.6388C49.3976 46.251 49.5281 46.9072 49.528 47.5698Z" fill="#243438"/>
<path d="M47.7547 47.5018C47.7547 47.9315 47.67 48.3569 47.5055 48.7539C47.3411 49.1509 47.1 49.5115 46.7961 49.8153C46.4923 50.1191 46.1315 50.3601 45.7345 50.5244C45.3375 50.6887 44.912 50.7733 44.4823 50.7731C43.8359 50.7725 43.2042 50.5803 42.667 50.2208C42.1298 49.8613 41.7113 49.3506 41.4642 48.7533C41.2172 48.156 41.1528 47.4988 41.2791 46.8649C41.4054 46.231 41.7168 45.6487 42.174 45.1917C42.6311 44.7347 43.2135 44.4235 43.8474 44.2974C44.4814 44.1712 45.1385 44.2359 45.7358 44.4831C46.333 44.7303 46.8436 45.149 47.2029 45.6863C47.5623 46.2236 47.7543 46.8554 47.7547 47.5018Z" fill="#969796"/>
<path d="M63.1617 47.5018C63.1611 48.3067 63.0019 49.1036 62.6932 49.847C62.3846 50.5904 61.9325 51.2657 61.3629 51.8344C60.7933 52.4031 60.1172 52.854 59.3733 53.1614C58.6294 53.4688 57.8323 53.6267 57.0274 53.626C56.2224 53.6254 55.4255 53.4662 54.6822 53.1575C53.9388 52.8489 53.2635 52.3968 52.6948 51.8272C52.1261 51.2576 51.6752 50.5815 51.3678 49.8376C51.0604 49.0937 50.9025 48.2966 50.9031 47.4917C50.9045 45.8661 51.5515 44.3076 52.702 43.1591C53.8524 42.0106 55.4119 41.3661 57.0375 41.3674C58.6631 41.3688 60.2216 42.0158 61.3701 43.1663C62.5186 44.3167 63.1631 45.8762 63.1617 47.5018Z" fill="white"/>
<path d="M62.075 47.5018C62.0734 48.8396 61.5409 50.122 60.5945 51.0675C59.648 52.0129 58.3651 52.5441 57.0273 52.5444C55.6899 52.5444 54.4073 52.0131 53.4617 51.0674C52.516 50.1218 51.9847 48.8392 51.9847 47.5018C51.9847 46.1644 52.516 44.8818 53.4617 43.9362C54.4073 42.9905 55.6899 42.4592 57.0273 42.4592C57.6899 42.4588 58.346 42.5889 58.9583 42.8422C59.5705 43.0954 60.1269 43.4667 60.5956 43.935C61.0644 44.4032 61.4363 44.9592 61.6901 45.5712C61.9439 46.1832 62.0747 46.8393 62.075 47.5018Z" fill="#243438"/>
<path d="M60.2977 47.4327C60.3053 47.867 60.2264 48.2984 60.0655 48.7018C59.9046 49.1052 59.665 49.4726 59.3606 49.7824C59.0562 50.0922 58.6932 50.3382 58.2927 50.5062C57.8922 50.6742 57.4622 50.7607 57.0279 50.7607C56.5936 50.7607 56.1636 50.6742 55.7631 50.5062C55.3626 50.3382 54.9995 50.0922 54.6951 49.7824C54.3907 49.4726 54.1511 49.1052 53.9902 48.7018C53.8293 48.2984 53.7504 47.867 53.7581 47.4327C53.7732 46.5755 54.1243 45.7585 54.7359 45.1576C55.3475 44.5568 56.1705 44.2201 57.0279 44.2201C57.8852 44.2201 58.7083 44.5568 59.3199 45.1576C59.9314 45.7585 60.2826 46.5755 60.2977 47.4327Z" fill="#969796"/>
<path d="M3.38506 40.8992C3.38506 42.6075 2.69444 43.9938 1.8403 43.9938C0.987173 43.9938 0.295532 42.6075 0.295532 40.8992V40.8302C0.295532 39.1239 0.987173 37.7416 1.8403 37.7416C2.69444 37.7416 3.38506 39.1239 3.38506 40.8302V40.8992Z" fill="#F1F1F1"/>
<path d="M64.7044 37.3202C64.7044 39.0284 64.0138 40.4107 63.1587 40.4107C62.3065 40.4107 61.6139 39.0284 61.6139 37.3202V37.2531C61.6139 35.5428 62.3065 34.1606 63.1587 34.1606C64.0148 34.1606 64.7044 35.5428 64.7044 37.2531V37.3202Z" fill="#DF394C"/>
</svg>
