<svg width="258" height="194" viewBox="0 0 258 194" fill="none" xmlns="http://www.w3.org/2000/svg">
<path d="M179.265 94.5933C179.094 94.5933 178.93 94.5255 178.809 94.4049C178.688 94.2842 178.62 94.1205 178.62 93.9498V91.3759C178.62 91.2052 178.688 91.0415 178.809 90.9208C178.93 90.8002 179.094 90.7324 179.265 90.7324C179.436 90.7324 179.6 90.8002 179.721 90.9208C179.842 91.0415 179.91 91.2052 179.91 91.3759V93.9498C179.91 94.1205 179.842 94.2842 179.721 94.4049C179.6 94.5255 179.436 94.5933 179.265 94.5933Z" fill="#DFEAEF"/>
<path d="M179.265 100.449C179.094 100.449 178.93 100.381 178.809 100.261C178.688 100.14 178.62 99.9763 178.62 99.8057V97.2317C178.62 97.061 178.688 96.8974 178.809 96.7767C178.93 96.656 179.094 96.5882 179.265 96.5882C179.436 96.5882 179.6 96.656 179.721 96.7767C179.842 96.8974 179.91 97.061 179.91 97.2317V99.8057C179.91 99.9763 179.842 100.14 179.721 100.261C179.6 100.381 179.436 100.449 179.265 100.449Z" fill="#DFEAEF"/>
<path d="M183.503 96.2214H180.923C180.752 96.2214 180.587 96.1536 180.467 96.0329C180.346 95.9122 180.278 95.7485 180.278 95.5779C180.278 95.4072 180.346 95.2435 180.467 95.1229C180.587 95.0022 180.752 94.9344 180.923 94.9344H183.503C183.674 94.9344 183.838 95.0022 183.959 95.1229C184.08 95.2435 184.148 95.4072 184.148 95.5779C184.148 95.7485 184.08 95.9122 183.959 96.0329C183.838 96.1536 183.674 96.2214 183.503 96.2214Z" fill="#DFEAEF"/>
<path d="M177.633 96.2214H175.053C174.882 96.2214 174.718 96.1536 174.597 96.0329C174.476 95.9122 174.408 95.7485 174.408 95.5779C174.408 95.4072 174.476 95.2435 174.597 95.1229C174.718 95.0022 174.882 94.9344 175.053 94.9344H177.633C177.804 94.9344 177.968 95.0022 178.089 95.1229C178.21 95.2435 178.278 95.4072 178.278 95.5779C178.278 95.7485 178.21 95.9122 178.089 96.0329C177.968 96.1536 177.804 96.2214 177.633 96.2214Z" fill="#DFEAEF"/>
<path d="M146.925 43.8665C146.753 43.8665 146.589 43.7987 146.468 43.678C146.347 43.5573 146.28 43.3936 146.28 43.223V40.649C146.28 40.4783 146.347 40.3146 146.468 40.194C146.589 40.0733 146.753 40.0055 146.925 40.0055C147.096 40.0055 147.26 40.0733 147.381 40.194C147.502 40.3146 147.57 40.4783 147.57 40.649V43.223C147.57 43.3936 147.502 43.5573 147.381 43.678C147.26 43.7987 147.096 43.8665 146.925 43.8665Z" fill="#DFEAEF"/>
<path d="M146.925 49.7287C146.753 49.7287 146.589 49.6609 146.468 49.5403C146.347 49.4196 146.28 49.2559 146.28 49.0852V46.4791C146.28 46.3084 146.347 46.1447 146.468 46.024C146.589 45.9034 146.753 45.8356 146.925 45.8356C147.096 45.8356 147.26 45.9034 147.381 46.024C147.502 46.1447 147.57 46.3084 147.57 46.4791V49.0852C147.57 49.2559 147.502 49.4196 147.381 49.5403C147.26 49.6609 147.096 49.7287 146.925 49.7287Z" fill="#DFEAEF"/>
<path d="M151.162 45.5203H148.582C148.411 45.5203 148.247 45.4525 148.126 45.3318C148.005 45.2111 147.937 45.0474 147.937 44.8768C147.937 44.7061 148.005 44.5424 148.126 44.4218C148.247 44.3011 148.411 44.2333 148.582 44.2333H151.162C151.333 44.2333 151.497 44.3011 151.618 44.4218C151.739 44.5424 151.807 44.7061 151.807 44.8768C151.807 45.0474 151.739 45.2111 151.618 45.3318C151.497 45.4525 151.333 45.5203 151.162 45.5203Z" fill="#DFEAEF"/>
<path d="M145.293 45.5203H142.713C142.542 45.5203 142.378 45.4525 142.257 45.3318C142.136 45.2111 142.068 45.0474 142.068 44.8768C142.068 44.7061 142.136 44.5424 142.257 44.4218C142.378 44.3011 142.542 44.2333 142.713 44.2333H145.293C145.464 44.2333 145.628 44.3011 145.749 44.4218C145.87 44.5424 145.938 44.7061 145.938 44.8768C145.938 45.0474 145.87 45.2111 145.749 45.3318C145.628 45.4525 145.464 45.5203 145.293 45.5203Z" fill="#DFEAEF"/>
<path d="M183.625 76.1057C183.454 76.1057 183.29 76.0379 183.169 75.9172C183.048 75.7965 182.98 75.6328 182.98 75.4622V70.6746C182.98 70.5039 183.048 70.3402 183.169 70.2195C183.29 70.0989 183.454 70.0311 183.625 70.0311C183.796 70.0311 183.96 70.0989 184.081 70.2195C184.202 70.3402 184.27 70.5039 184.27 70.6746V75.4622C184.27 75.6328 184.202 75.7965 184.081 75.9172C183.96 76.0379 183.796 76.1057 183.625 76.1057Z" fill="#DFEAEF"/>
<path d="M186.018 73.7119H181.245C181.074 73.7119 180.91 73.6441 180.789 73.5234C180.668 73.4027 180.6 73.239 180.6 73.0684C180.6 72.8977 180.668 72.734 180.789 72.6133C180.91 72.4927 181.074 72.4249 181.245 72.4249H186.037C186.209 72.4249 186.373 72.4927 186.494 72.6133C186.614 72.734 186.682 72.8977 186.682 73.0684C186.682 73.239 186.614 73.4027 186.494 73.5234C186.373 73.6441 186.209 73.7119 186.037 73.7119H186.018Z" fill="#DFEAEF"/>
<path d="M127.696 155.16L166.038 131.108C168.701 129.438 169.502 125.93 167.828 123.273L120.844 48.7227C119.17 46.0661 115.654 45.2666 112.991 46.937L74.6487 70.989C71.9859 72.6594 71.1845 76.1671 72.8588 78.8237L119.843 153.374C121.517 156.031 125.033 156.831 127.696 155.16Z" fill="#093F68"/>
<path d="M124.679 156.684C123.605 156.687 122.548 156.417 121.607 155.9C120.666 155.384 119.872 154.637 119.299 153.731L72.311 79.1816C71.8663 78.4793 71.5648 77.6964 71.424 76.8776C71.2831 76.0589 71.3056 75.2205 71.4902 74.4105C71.6747 73.6004 72.0177 72.8347 72.4995 72.1572C72.9812 71.4797 73.5923 70.9037 74.2976 70.4622L112.643 46.4019C114.067 45.5115 115.786 45.2208 117.425 45.5935C119.063 45.9663 120.486 46.972 121.383 48.3903L168.377 122.939C169.274 124.356 169.57 126.07 169.201 127.705C168.833 129.34 167.829 130.762 166.41 131.659L128.065 155.719C127.051 156.356 125.876 156.691 124.679 156.684ZM116.01 46.7236C115.062 46.7209 114.133 46.9888 113.333 47.4958L74.9878 71.5497C74.4263 71.9013 73.9397 72.36 73.556 72.8994C73.1723 73.4388 72.899 74.0483 72.7516 74.6932C72.6043 75.3381 72.5858 76.0056 72.6972 76.6576C72.8086 77.3096 73.0478 77.9333 73.4011 78.493L120.389 153.042C121.104 154.173 122.238 154.974 123.544 155.271C124.85 155.568 126.221 155.335 127.355 154.625L165.701 130.571C166.262 130.219 166.747 129.76 167.131 129.22C167.514 128.681 167.786 128.071 167.933 127.426C168.08 126.781 168.098 126.114 167.986 125.462C167.874 124.811 167.634 124.187 167.281 123.628L120.293 49.0724C119.837 48.3504 119.205 47.756 118.456 47.3451C117.707 46.9342 116.865 46.7203 116.01 46.7236Z" fill="#093F68"/>
<path d="M133.264 150.911L171.762 126.962C174.436 125.299 175.252 121.788 173.584 119.121L126.802 44.2677C125.135 41.6003 121.616 40.7862 118.943 42.4494L80.4446 66.3982C77.771 68.0614 76.955 71.5721 78.6221 74.2395L125.404 149.093C127.071 151.76 130.59 152.574 133.264 150.911Z" fill="#65E096"/>
<path d="M130.651 152.939C129.577 152.94 128.52 152.669 127.579 152.152C126.638 151.634 125.844 150.886 125.272 149.979L78.2837 75.43C77.8392 74.7273 77.5382 73.9441 77.3978 73.1251C77.2574 72.3061 77.2805 71.4675 77.4656 70.6575C77.6508 69.8474 77.9944 69.0817 78.4768 68.4045C78.9592 67.7272 79.5709 67.1515 80.2767 66.7106L118.616 42.6567C120.04 41.7643 121.761 41.4724 123.401 41.8452C125.041 42.2181 126.466 43.2251 127.362 44.6451L174.35 119.194C175.236 120.612 175.524 122.322 175.15 123.951C174.777 125.58 173.773 126.995 172.357 127.888L134.012 151.942L133.67 151.401L134.012 151.942C133.009 152.585 131.843 152.931 130.651 152.939ZM121.982 42.9463C121.035 42.9468 120.107 43.2145 119.306 43.7185L80.9604 67.7788C80.3983 68.1299 79.9111 68.5882 79.5269 69.1275C79.1427 69.6669 78.8691 70.2766 78.7217 70.9217C78.5742 71.5668 78.556 72.2346 78.6679 72.8868C78.7798 73.539 79.0196 74.1627 79.3737 74.7221L126.368 149.271C127.081 150.401 128.215 151.203 129.52 151.5C130.825 151.796 132.194 151.564 133.328 150.854L171.673 126.794C172.806 126.083 173.609 124.952 173.907 123.65C174.204 122.348 173.972 120.981 173.26 119.851L126.265 45.3272C125.915 44.7665 125.456 44.281 124.915 43.8988C124.375 43.5165 123.764 43.2453 123.118 43.1007C122.747 43.0048 122.366 42.9529 121.982 42.9463Z" fill="#093F68"/>
<path d="M127.42 140.329L164.709 116.938C166.102 116.064 166.521 114.228 165.645 112.838L128.395 53.7317C127.519 52.3417 125.679 51.9234 124.286 52.7974L86.9972 76.1883C85.604 77.0623 85.1847 78.8976 86.0607 80.2876L123.311 139.394C124.187 140.784 126.027 141.203 127.42 140.329Z" fill="white"/>
<path d="M125.84 141.44C125.227 141.441 124.623 141.287 124.086 140.992C123.549 140.698 123.096 140.271 122.769 139.754L85.5077 80.6423C85.2545 80.2406 85.0832 79.793 85.0035 79.3252C84.9238 78.8573 84.9374 78.3784 85.0435 77.9158C85.1495 77.4532 85.3459 77.016 85.6214 76.6292C85.897 76.2424 86.2463 75.9136 86.6493 75.6616L123.943 52.2641C124.756 51.7551 125.738 51.5884 126.674 51.8007C127.61 52.013 128.423 52.587 128.936 53.3966L166.197 112.508C166.705 113.32 166.87 114.3 166.656 115.234C166.442 116.167 165.867 116.978 165.056 117.489L127.762 140.893C127.186 141.253 126.519 141.442 125.84 141.44ZM125.865 52.9912C125.427 52.9923 124.997 53.1172 124.627 53.3516L87.333 76.7491C87.0724 76.9118 86.8467 77.1243 86.6689 77.3744C86.491 77.6245 86.3646 77.9073 86.2968 78.2064C86.2291 78.5055 86.2213 78.8151 86.2741 79.1172C86.3268 79.4193 86.439 79.708 86.6042 79.9666L123.84 139.072C124.172 139.594 124.697 139.964 125.302 140.1C125.906 140.237 126.54 140.128 127.065 139.799L164.359 116.401C164.62 116.239 164.845 116.026 165.023 115.776C165.201 115.526 165.327 115.243 165.395 114.944C165.463 114.645 165.471 114.335 165.418 114.033C165.365 113.731 165.253 113.443 165.088 113.184L127.845 54.0852C127.683 53.8258 127.47 53.6013 127.22 53.4245C126.97 53.2478 126.687 53.1224 126.388 53.0556C126.217 53.0121 126.042 52.9904 125.865 52.9912Z" fill="#093F68"/>
<path d="M110.682 56.4533C111.188 56.4533 111.598 56.0442 111.598 55.5395C111.598 55.0348 111.188 54.6257 110.682 54.6257C110.176 54.6257 109.766 55.0348 109.766 55.5395C109.766 56.0442 110.176 56.4533 110.682 56.4533Z" fill="#093F68"/>
<path d="M94.5764 66.2859C94.436 66.2864 94.2992 66.2411 94.1869 66.1569C94.0746 66.0728 93.9929 65.9543 93.9543 65.8196C93.9156 65.685 93.922 65.5413 93.9726 65.4106C94.0232 65.2799 94.1152 65.1693 94.2346 65.0954L106.631 57.3156C106.703 57.2708 106.784 57.2406 106.867 57.2267C106.951 57.2128 107.037 57.2155 107.119 57.2346C107.202 57.2537 107.28 57.2889 107.349 57.3381C107.418 57.3874 107.477 57.4497 107.522 57.5215C107.566 57.5933 107.597 57.6733 107.611 57.7568C107.625 57.8403 107.622 57.9257 107.603 58.0082C107.584 58.0906 107.548 58.1685 107.499 58.2374C107.45 58.3062 107.387 58.3647 107.315 58.4095L94.9183 66.1894C94.8156 66.2529 94.6972 66.2863 94.5764 66.2859Z" fill="#093F68"/>
<path d="M149.272 137.572C151.403 137.572 153.129 135.85 153.129 133.724C153.129 131.599 151.403 129.876 149.272 129.876C147.142 129.876 145.415 131.599 145.415 133.724C145.415 135.85 147.142 137.572 149.272 137.572Z" fill="#093F68"/>
<path d="M91.4933 107.515C91.3547 107.513 91.2204 107.467 91.1103 107.383C91.0001 107.299 90.9199 107.182 90.8815 107.049C90.8432 106.917 90.8487 106.775 90.8973 106.645C90.9459 106.516 91.035 106.406 91.1514 106.331L94.1636 104.439C94.2351 104.387 94.3166 104.35 94.403 104.33C94.4894 104.311 94.5789 104.31 94.6659 104.326C94.7529 104.343 94.8355 104.377 94.9086 104.427C94.9817 104.477 95.0437 104.541 95.0908 104.616C95.1378 104.691 95.1689 104.775 95.1821 104.862C95.1954 104.95 95.1904 105.039 95.1675 105.124C95.1447 105.21 95.1045 105.289 95.0494 105.358C94.9943 105.428 94.9255 105.485 94.8473 105.526L91.8351 107.418C91.7325 107.482 91.614 107.515 91.4933 107.515Z" fill="#093F68"/>
<path d="M160.96 114.374C160.852 114.374 160.746 114.347 160.651 114.295C160.556 114.244 160.476 114.169 160.418 114.078L150.537 98.48C150.445 98.3358 150.415 98.1612 150.452 97.9947C150.49 97.8282 150.592 97.6833 150.737 97.592C150.881 97.5007 151.056 97.4704 151.223 97.5078C151.39 97.5452 151.535 97.6473 151.627 97.7915L161.508 113.377C161.553 113.448 161.584 113.528 161.599 113.611C161.613 113.695 161.611 113.78 161.592 113.862C161.574 113.945 161.539 114.023 161.49 114.092C161.442 114.161 161.38 114.22 161.308 114.265C161.204 114.332 161.084 114.369 160.96 114.374Z" fill="#DFEAEF"/>
<path d="M99.1172 91.1506C99.0092 91.1504 98.9031 91.1232 98.8084 91.0715C98.7138 91.0198 98.6336 90.9452 98.5754 90.8546L96.5952 87.7851C96.5484 87.7136 96.5163 87.6336 96.5008 87.5496C96.4853 87.4657 96.4867 87.3795 96.5049 87.296C96.5231 87.2131 96.5575 87.1346 96.6062 87.0651C96.6549 86.9955 96.7169 86.9362 96.7887 86.8906L129.877 66.0349C130.02 65.945 130.193 65.9149 130.359 65.951C130.524 65.9871 130.668 66.0866 130.761 66.228L138.991 78.5574C139.044 78.6273 139.082 78.7072 139.102 78.7923C139.123 78.8773 139.126 78.9657 139.111 79.0519C139.097 79.1382 139.065 79.2206 139.017 79.294C138.969 79.3675 138.907 79.4305 138.834 79.4791C138.761 79.5277 138.679 79.561 138.593 79.5769C138.507 79.5928 138.418 79.591 138.332 79.5716C138.247 79.5522 138.166 79.5156 138.095 79.464C138.025 79.4124 137.965 79.347 137.92 79.2716L130.038 67.4635L98.04 87.6307L99.6654 90.1596C99.7575 90.303 99.7889 90.4771 99.7526 90.6435C99.7164 90.81 99.6154 90.9553 99.4719 91.0476C99.3662 91.1157 99.2429 91.1515 99.1172 91.1506Z" fill="#DFEAEF"/>
<path d="M115.107 107.238C115.018 107.238 114.931 107.219 114.85 107.184C114.769 107.148 114.696 107.097 114.636 107.032C114.52 106.907 114.458 106.742 114.464 106.572C114.47 106.402 114.544 106.241 114.668 106.125L140.165 82.3154C140.29 82.1985 140.456 82.1359 140.627 82.1413C140.798 82.1467 140.96 82.2198 141.078 82.3444C141.195 82.469 141.258 82.6349 141.252 82.8056C141.247 82.9764 141.174 83.138 141.049 83.2549L115.545 107.064C115.426 107.175 115.27 107.237 115.107 107.238Z" fill="#093F68"/>
<path d="M136.476 118.634C136.365 118.634 136.256 118.605 136.16 118.551C136.085 118.51 136.02 118.455 135.967 118.388C135.915 118.322 135.875 118.246 135.852 118.165C135.829 118.084 135.822 117.999 135.831 117.915C135.841 117.831 135.867 117.749 135.908 117.676L150.93 91.0348C151.016 90.8863 151.157 90.7778 151.322 90.7332C151.488 90.6885 151.665 90.7114 151.814 90.7967C151.963 90.882 152.071 91.0228 152.116 91.1882C152.161 91.3535 152.138 91.5298 152.052 91.6783L137.024 118.319C136.967 118.414 136.887 118.493 136.791 118.548C136.695 118.604 136.586 118.633 136.476 118.634Z" fill="#093F68"/>
<path d="M126.13 96.9421C126.022 96.9426 125.917 96.9164 125.822 96.8658C125.727 96.8153 125.647 96.742 125.588 96.6525C124.936 95.5671 124.058 94.6341 123.013 93.9169C121.968 93.1997 120.781 92.7149 119.531 92.4955C116.113 91.9164 111.824 93.2999 108.057 96.1957C107.967 96.2664 107.86 96.3121 107.747 96.3279C107.633 96.3437 107.518 96.3292 107.412 96.2857C107.308 96.2448 107.216 96.1776 107.146 96.0907C107.076 96.0039 107.03 95.9003 107.012 95.7902C106.78 94.6218 106.221 93.5431 105.399 92.6796C104.577 91.816 103.526 91.2032 102.368 90.9125C101.177 90.6388 99.9391 90.6319 98.7446 90.8923C97.5502 91.1526 96.4284 91.6738 95.46 92.4183C95.3914 92.4684 95.3137 92.5044 95.2311 92.5244C95.1486 92.5443 95.0629 92.5478 94.979 92.5347C94.8951 92.5215 94.8146 92.492 94.7422 92.4477C94.6698 92.4034 94.6068 92.3454 94.557 92.2768C94.4571 92.1399 94.4152 91.9692 94.4406 91.8018C94.4659 91.6343 94.5564 91.4836 94.6924 91.3823C95.8175 90.5255 97.1184 89.9273 98.5021 89.6303C99.8858 89.3333 101.318 89.3448 102.697 89.6642C103.926 89.9865 105.057 90.6043 105.991 91.4636C106.926 92.3229 107.635 93.3974 108.057 94.5933C111.927 91.8456 116.164 90.6165 119.738 91.2214C121.164 91.4694 122.521 92.02 123.716 92.8359C124.911 93.6519 125.917 94.7142 126.665 95.9511C126.728 96.0483 126.763 96.1604 126.767 96.2757C126.771 96.3911 126.744 96.5054 126.688 96.6068C126.633 96.7081 126.551 96.7927 126.452 96.8517C126.352 96.9107 126.239 96.9419 126.123 96.9421H126.13Z" fill="#093F68"/>
<path d="M118.035 109.625C117.881 109.625 117.733 109.571 117.616 109.471C111.688 104.49 102.89 107.322 102.781 107.347C102.619 107.4 102.443 107.388 102.291 107.312C102.139 107.236 102.023 107.103 101.968 106.942C101.941 106.862 101.93 106.777 101.935 106.692C101.941 106.608 101.963 106.525 102.001 106.449C102.039 106.373 102.091 106.305 102.155 106.25C102.219 106.194 102.294 106.152 102.374 106.125C102.761 106.002 111.94 103.042 118.428 108.486C118.531 108.571 118.604 108.685 118.639 108.813C118.674 108.941 118.669 109.076 118.624 109.201C118.578 109.325 118.496 109.433 118.387 109.509C118.278 109.585 118.149 109.626 118.016 109.625H118.035Z" fill="#093F68"/>
<path d="M156.387 121.324C156.223 121.325 156.066 121.263 155.946 121.152C155.826 121.041 155.753 120.888 155.742 120.726C155.727 120.324 155.628 119.93 155.45 119.57C155.272 119.21 155.02 118.891 154.71 118.634C153.639 117.753 151.723 117.399 149.447 117.663C149.341 117.675 149.233 117.66 149.134 117.621C149.035 117.581 148.948 117.518 148.879 117.436C148.811 117.354 148.764 117.257 148.743 117.153C148.721 117.049 148.726 116.941 148.756 116.839C149.065 115.819 149.143 114.743 148.982 113.689C148.822 112.635 148.428 111.63 147.829 110.748C147.23 109.865 146.442 109.127 145.521 108.586C144.6 108.046 143.57 107.717 142.506 107.624C142.335 107.609 142.177 107.526 142.067 107.395C141.957 107.263 141.904 107.093 141.919 106.923C141.935 106.752 142.017 106.594 142.149 106.485C142.281 106.375 142.451 106.322 142.622 106.337C143.8 106.439 144.943 106.786 145.977 107.355C147.012 107.925 147.916 108.704 148.63 109.643C149.345 110.582 149.854 111.66 150.126 112.807C150.398 113.955 150.426 115.146 150.208 116.305C151.807 116.221 154.02 116.389 155.529 117.637C155.975 118.004 156.339 118.459 156.598 118.974C156.856 119.49 157.004 120.053 157.032 120.629C157.038 120.714 157.027 120.799 157 120.879C156.973 120.96 156.931 121.034 156.875 121.098C156.819 121.162 156.752 121.214 156.676 121.252C156.599 121.29 156.517 121.312 156.432 121.318L156.387 121.324Z" fill="#093F68"/>
<path d="M149.969 121.968C149.811 121.969 149.659 121.913 149.54 121.81C149.421 121.707 149.344 121.564 149.324 121.408C149.127 120.07 148.529 118.823 147.608 117.83C146.687 116.838 145.486 116.147 144.164 115.848C144.081 115.83 144.002 115.797 143.932 115.749C143.862 115.701 143.802 115.639 143.756 115.568C143.71 115.497 143.678 115.417 143.663 115.334C143.648 115.251 143.649 115.165 143.667 115.082C143.685 114.999 143.719 114.921 143.767 114.851C143.815 114.781 143.877 114.721 143.948 114.675C144.019 114.629 144.099 114.598 144.183 114.583C144.266 114.567 144.352 114.569 144.435 114.587C146.012 114.949 147.442 115.779 148.539 116.966C149.636 118.153 150.348 119.643 150.582 121.241C150.604 121.409 150.558 121.58 150.454 121.715C150.35 121.85 150.196 121.939 150.027 121.961L149.969 121.968Z" fill="#093F68"/>
<path d="M147.466 65.5523C145.268 65.0482 142.988 65.0111 140.775 65.4435C138.561 65.8759 136.463 66.768 134.618 68.062C129.194 71.7492 125.865 77.2318 123.376 82.8109C123.285 83.0188 123.268 83.251 123.327 83.4697C123.386 83.6885 123.517 83.881 123.7 84.016C123.882 84.1509 124.105 84.2203 124.332 84.213C124.558 84.2057 124.776 84.1221 124.949 83.9756C126.844 82.1939 129.238 81.0311 131.812 80.6423C136.856 80.0375 138.965 82.1481 138.965 82.1481L147.466 65.5523Z" fill="#F56132"/>
<path d="M124.298 84.8766C123.947 84.8742 123.605 84.7592 123.324 84.5484C123.013 84.3311 122.789 84.0112 122.691 83.6451C122.593 83.279 122.627 82.8902 122.789 82.5471C124.775 78.0941 128.129 71.6913 134.257 67.5279C136.18 66.177 138.369 65.249 140.678 64.8052C142.988 64.3615 145.365 64.4122 147.653 64.9539C147.744 64.9813 147.827 65.028 147.897 65.0908C147.967 65.1537 148.022 65.231 148.059 65.3175C148.096 65.404 148.113 65.4975 148.11 65.5914C148.107 65.6854 148.083 65.7775 148.04 65.8612L139.539 82.457C139.493 82.5487 139.426 82.628 139.343 82.6885C139.26 82.7489 139.164 82.7887 139.062 82.8045C138.961 82.8192 138.859 82.81 138.762 82.7776C138.666 82.7452 138.579 82.6904 138.507 82.6179C138.507 82.6179 136.508 80.7453 131.89 81.3309C129.444 81.6933 127.171 82.8014 125.382 84.5033C125.077 84.7539 124.693 84.8864 124.298 84.8766ZM144.009 65.7969C140.785 65.7967 137.636 66.7728 134.979 68.5961C129.129 72.5665 125.891 78.7633 123.963 83.0683C123.927 83.1448 123.919 83.2315 123.942 83.3129C123.964 83.3944 124.015 83.4651 124.085 83.5123C124.146 83.5662 124.224 83.5959 124.304 83.5959C124.385 83.5959 124.463 83.5662 124.524 83.5123C126.508 81.6339 129.028 80.4154 131.735 80.0246C135.463 79.5741 137.701 80.5458 138.733 81.1958L146.512 66.0221C145.686 65.8745 144.848 65.7991 144.009 65.7969Z" fill="#093F68"/>
<path d="M165.9 78.9821C167.05 80.918 167.778 83.0734 168.038 85.3084C168.298 87.5434 168.084 89.808 167.41 91.955C165.539 98.2355 161.308 103.062 156.741 107.122C156.572 107.277 156.354 107.369 156.124 107.382C155.894 107.396 155.667 107.329 155.48 107.195C155.294 107.06 155.159 106.865 155.1 106.644C155.041 106.422 155.06 106.186 155.155 105.977C156.281 103.637 156.661 101.01 156.245 98.4479C155.29 93.4672 152.639 92.103 152.639 92.103L165.9 78.9821Z" fill="#F56132"/>
<path d="M156.09 108.042C155.737 108.039 155.393 107.924 155.11 107.714C154.803 107.498 154.582 107.181 154.484 106.819C154.386 106.458 154.418 106.073 154.574 105.732C155.655 103.514 156.022 101.017 155.626 98.583C154.755 94.0206 152.401 92.7014 152.355 92.6886C152.265 92.6417 152.187 92.5742 152.128 92.4916C152.069 92.4089 152.03 92.3135 152.015 92.2131C152 92.1127 152.009 92.0101 152.041 91.9138C152.074 91.8175 152.128 91.7302 152.201 91.659L165.462 78.5381C165.529 78.471 165.61 78.4195 165.699 78.3873C165.788 78.355 165.883 78.3428 165.978 78.3515C166.072 78.3604 166.163 78.3898 166.244 78.4376C166.325 78.4854 166.395 78.5505 166.449 78.6282C167.656 80.6404 168.423 82.8852 168.697 85.2145C168.972 87.5438 168.749 89.9047 168.042 92.1416C165.933 99.2201 160.837 104.368 157.187 107.586C156.892 107.87 156.5 108.033 156.09 108.042ZM153.652 92.0386C154.581 92.8237 156.187 94.6577 156.877 98.3385C157.322 101.031 156.923 103.795 155.735 106.253C155.699 106.325 155.691 106.408 155.712 106.485C155.733 106.562 155.783 106.629 155.851 106.672C155.915 106.727 155.996 106.757 156.08 106.757C156.165 106.757 156.246 106.727 156.309 106.672C159.837 103.531 164.765 98.5701 166.784 91.807C167.979 87.8996 167.614 83.6824 165.765 80.0374L153.652 92.0386Z" fill="#093F68"/>
<path d="M173.382 72.3283C165.894 82.5535 158.67 88.937 151.762 92.8816L138.501 83.2292C140.178 75.5072 144.074 66.6591 151.562 56.4404C154.259 52.7283 157.476 49.4214 161.115 46.6206C171.622 38.5769 181.819 37.972 181.819 37.972C181.819 37.972 184.347 47.8497 179.852 60.2821C178.281 64.584 176.102 68.6403 173.382 72.3283Z" fill="#FFBC0E"/>
<path d="M151.762 93.5251C151.625 93.5237 151.491 93.4786 151.381 93.3964L138.12 83.744C138.021 83.6716 137.945 83.5727 137.901 83.4587C137.856 83.3448 137.845 83.2205 137.869 83.1005C139.746 74.4454 144.054 65.6038 151.04 56.0736C153.773 52.3145 157.031 48.9645 160.715 46.1252C171.26 38.0493 181.355 37.3672 181.774 37.3479C181.92 37.3432 182.064 37.3885 182.181 37.4762C182.299 37.564 182.382 37.6889 182.419 37.8305C182.522 38.2359 184.941 48.0363 180.432 60.5137C178.844 64.8816 176.635 68.9991 173.873 72.7402C166.894 82.2768 159.754 89.0592 152.059 93.4672C151.966 93.5097 151.864 93.5295 151.762 93.5251ZM139.223 82.9396L151.801 92.1094C159.199 87.7851 166.094 81.17 172.86 71.9487C175.545 68.3038 177.696 64.2951 179.245 60.044C181.786 53.2144 182.497 45.8419 181.309 38.6542C174.086 39.7111 167.261 42.625 161.508 47.1097C157.918 49.8759 154.743 53.1392 152.078 56.8008C145.312 66.0349 141.107 74.5934 139.223 82.9396Z" fill="#093F68"/>
<path d="M149.137 99.0013L133.451 87.5663L138.514 83.2227L151.749 92.8687L149.137 99.0013Z" fill="#093F68"/>
<path d="M149.143 99.6448C149.007 99.6453 148.874 99.6025 148.763 99.5225L133.07 88.0876C132.994 88.0279 132.931 87.953 132.885 87.8677C132.84 87.7824 132.813 87.6885 132.806 87.5921C132.802 87.4948 132.82 87.398 132.859 87.3088C132.898 87.2196 132.957 87.1405 133.031 87.0773L138.095 82.7337C138.209 82.6423 138.351 82.5925 138.498 82.5925C138.644 82.5925 138.786 82.6423 138.901 82.7337L152.13 92.3861C152.247 92.4719 152.333 92.595 152.371 92.7352C152.41 92.8754 152.4 93.0246 152.343 93.1583L149.763 99.2909C149.724 99.3801 149.666 99.4595 149.592 99.523C149.518 99.5865 149.431 99.6326 149.337 99.6577C149.272 99.6653 149.207 99.6609 149.143 99.6448ZM134.489 87.5213L148.866 98.0039L150.956 93.0876L138.553 84.04L134.489 87.5213Z" fill="#093F68"/>
<path d="M163.153 70.4493C167.032 70.4493 170.177 67.3119 170.177 63.4416C170.177 59.5714 167.032 56.434 163.153 56.434C159.274 56.434 156.129 59.5714 156.129 63.4416C156.129 67.3119 159.274 70.4493 163.153 70.4493Z" fill="#65E096"/>
<path d="M163.14 71.0928C161.417 71.0894 159.745 70.5072 158.394 69.4401C157.043 68.373 156.092 66.8831 155.694 65.2107C155.295 63.5383 155.473 61.7807 156.198 60.2214C156.924 58.662 158.154 57.3918 159.691 56.6153C161.228 55.8389 162.983 55.6016 164.672 55.9417C166.361 56.2817 167.886 57.1793 169.001 58.4897C170.116 59.8001 170.757 61.447 170.819 63.1649C170.881 64.8828 170.362 66.5716 169.345 67.959C168.632 68.9333 167.698 69.7253 166.62 70.2701C165.541 70.8148 164.349 71.0968 163.14 71.0928ZM163.185 57.1032C161.668 57.1024 160.201 57.6414 159.047 58.6234C157.892 59.6053 157.127 60.9658 156.888 62.4603C156.65 63.9548 156.953 65.4852 157.744 66.7765C158.535 68.0677 159.762 69.0351 161.204 69.5048C162.646 69.9744 164.208 69.9155 165.611 69.3386C167.013 68.7618 168.163 67.7047 168.854 66.3576C169.545 65.0105 169.732 63.4616 169.381 61.9893C169.03 60.5171 168.164 59.2181 166.939 58.3258C165.849 57.5324 164.534 57.1044 163.185 57.1032Z" fill="#093F68"/>
<path d="M179.852 60.2628L161.147 46.6014C171.654 38.5576 181.851 37.9528 181.851 37.9528C181.851 37.9528 184.347 47.8304 179.852 60.2628Z" fill="#F56132"/>
<path d="M179.852 60.9063C179.716 60.9043 179.583 60.8617 179.471 60.784L160.734 47.1226C160.654 47.0626 160.589 46.9849 160.544 46.8956C160.499 46.8062 160.476 46.7077 160.476 46.6078C160.476 46.5079 160.499 46.4094 160.544 46.32C160.589 46.2306 160.654 46.1529 160.734 46.093C171.28 38.0171 181.374 37.335 181.793 37.3157C181.94 37.3111 182.083 37.3563 182.201 37.4441C182.318 37.5318 182.402 37.6567 182.438 37.7983C182.542 38.2037 184.96 48.0042 180.452 60.4816C180.419 60.5754 180.364 60.6602 180.292 60.7295C180.221 60.7987 180.134 60.8504 180.039 60.8805C179.978 60.8982 179.915 60.9069 179.852 60.9063ZM162.198 46.5949L179.529 59.2332C181.838 52.6253 182.45 45.5459 181.31 38.6413C174.373 39.6565 167.802 42.3911 162.198 46.5949Z" fill="#093F68"/>
<path d="M156.454 75.0341C156.929 74.3857 156.789 73.4767 156.14 73.0038C155.492 72.5309 154.581 72.6733 154.106 73.3217L138.65 94.4203C138.175 95.0688 138.316 95.9778 138.965 96.4507C139.613 96.9236 140.524 96.7812 140.999 96.1327L156.454 75.0341Z" fill="#FFBC0E"/>
<path d="M139.83 97.3733C139.442 97.3715 139.063 97.2631 138.734 97.06C138.404 96.857 138.137 96.5671 137.963 96.2223C137.788 95.8775 137.712 95.4913 137.743 95.1062C137.774 94.7212 137.912 94.3522 138.14 94.0399L153.62 72.9397C153.779 72.7155 153.983 72.5258 154.218 72.382C154.453 72.2383 154.714 72.1434 154.987 72.1031C155.398 72.0372 155.82 72.0949 156.198 72.2689C156.576 72.4429 156.894 72.7254 157.11 73.0802C157.327 73.4351 157.433 73.8463 157.414 74.2613C157.396 74.6764 157.253 75.0765 157.006 75.4107L141.526 96.511C141.197 96.96 140.703 97.2608 140.152 97.3475C140.045 97.3622 139.938 97.3708 139.83 97.3733ZM155.31 73.3644H155.181C155.075 73.3817 154.974 73.4196 154.883 73.4759C154.793 73.5322 154.714 73.6059 154.652 73.6926L139.172 94.7928C139.109 94.8781 139.063 94.9749 139.038 95.0777C139.013 95.1806 139.008 95.2873 139.024 95.392C139.041 95.4966 139.077 95.597 139.133 95.6874C139.188 95.7778 139.26 95.8565 139.346 95.919C139.52 96.0459 139.737 96.099 139.949 96.0664C140.162 96.0338 140.354 95.9183 140.481 95.7452L155.961 74.6449C156.051 74.5254 156.106 74.3833 156.119 74.2346C156.133 74.0858 156.104 73.9362 156.037 73.8026C155.97 73.669 155.867 73.5566 155.74 73.4781C155.613 73.3995 155.466 73.358 155.316 73.358L155.31 73.3644Z" fill="#093F68"/>
<path d="M166.229 67.9847C166.09 67.9844 165.955 67.9392 165.844 67.8558C165.733 67.7725 165.651 67.6556 165.612 67.5224C165.573 67.3893 165.578 67.2471 165.626 67.117C165.675 66.9869 165.764 66.876 165.881 66.8007C166.546 66.2348 167.04 65.4949 167.307 64.6643C168.061 62.6308 166.5 60.8869 166.436 60.8033C166.319 60.6779 166.258 60.5115 166.265 60.3407C166.271 60.1699 166.346 60.0088 166.471 59.8927C166.597 59.7767 166.764 59.7152 166.935 59.7219C167.106 59.7285 167.268 59.8027 167.384 59.9281C167.474 60.0247 169.551 62.3091 168.513 65.0761C168.16 66.171 167.486 67.135 166.578 67.8431C166.478 67.9238 166.357 67.9731 166.229 67.9847Z" fill="white"/>
<path d="M163.753 69.1559C163.582 69.1661 163.413 69.1081 163.285 68.9947C163.157 68.8813 163.079 68.7217 163.069 68.551C163.059 68.3803 163.117 68.2126 163.23 68.0847C163.344 67.9567 163.504 67.8791 163.675 67.8689C164.094 67.7951 164.503 67.6742 164.894 67.5085C165.049 67.4506 165.22 67.454 165.372 67.5181C165.524 67.5822 165.646 67.7021 165.712 67.8531C165.778 68.0041 165.784 68.1747 165.728 68.3297C165.672 68.4847 165.558 68.6123 165.41 68.6861C164.906 68.9021 164.378 69.0576 163.836 69.1494L163.753 69.1559Z" fill="white"/>
<path d="M91.4417 80.327C91.3015 80.3295 91.1643 80.2863 91.0509 80.204C90.9375 80.1217 90.8541 80.0048 90.8132 79.871C90.7724 79.7371 90.7764 79.5937 90.8246 79.4623C90.8728 79.3309 90.9627 79.2188 91.0805 79.143L94.0733 77.1674C94.1439 77.1203 94.2232 77.0876 94.3066 77.0711C94.39 77.0547 94.4758 77.0548 94.5591 77.0716C94.6424 77.0883 94.7216 77.1213 94.7921 77.1687C94.8626 77.2161 94.923 77.2769 94.9698 77.3476C95.0632 77.4895 95.0966 77.6624 95.0627 77.8287C95.0289 77.995 94.9306 78.1413 94.7892 78.2356L91.7964 80.2176C91.6915 80.288 91.5681 80.326 91.4417 80.327Z" fill="#DFEAEF"/>
<path d="M93.0413 82.3926C92.9357 82.3928 92.8316 82.3671 92.7383 82.3177C92.6449 82.2683 92.5652 82.1968 92.506 82.1095C92.4588 82.039 92.426 81.9599 92.4095 81.8767C92.393 81.7935 92.3931 81.7079 92.4099 81.6248C92.4267 81.5417 92.4598 81.4627 92.5073 81.3924C92.5547 81.3221 92.6157 81.2618 92.6866 81.215L95.3633 79.439C95.5062 79.3443 95.6809 79.31 95.849 79.3438C96.0172 79.3776 96.165 79.4767 96.2599 79.6192C96.3548 79.7617 96.3891 79.936 96.3553 80.1037C96.3214 80.2715 96.2221 80.4189 96.0793 80.5136L93.4025 82.2897C93.295 82.359 93.1693 82.3948 93.0413 82.3926Z" fill="#DFEAEF"/>
<path d="M94.5183 84.4711C94.3805 84.4701 94.2467 84.425 94.1364 84.3425C94.0261 84.2601 93.9453 84.1445 93.9056 84.0129C93.8659 83.8812 93.8696 83.7403 93.916 83.6109C93.9624 83.4814 94.0492 83.3702 94.1636 83.2935L96.8403 81.5175C96.9104 81.4649 96.9905 81.4271 97.0758 81.4064C97.161 81.3858 97.2496 81.3827 97.336 81.3973C97.4225 81.412 97.5051 81.4441 97.5787 81.4917C97.6523 81.5392 97.7154 81.6013 97.7642 81.6741C97.813 81.7468 97.8463 81.8287 97.8623 81.9148C97.8782 82.0008 97.8764 82.0892 97.8569 82.1745C97.8375 82.2599 97.8008 82.3403 97.7491 82.411C97.6974 82.4817 97.6318 82.5411 97.5563 82.5857L94.8795 84.3617C94.7727 84.4333 94.647 84.4714 94.5183 84.4711Z" fill="#DFEAEF"/>
<path d="M105.606 73.5059C105.467 73.5042 105.333 73.458 105.223 73.3742C105.113 73.2904 105.032 73.1734 104.994 73.0406C104.956 72.9078 104.961 72.7662 105.01 72.6367C105.058 72.5073 105.148 72.3969 105.264 72.3219L125.13 59.7544C125.202 59.7092 125.281 59.6785 125.365 59.6641C125.448 59.6496 125.534 59.6517 125.616 59.6702C125.699 59.6888 125.777 59.7234 125.847 59.772C125.916 59.8207 125.975 59.8825 126.02 59.9539C126.065 60.0253 126.096 60.1049 126.111 60.1882C126.125 60.2715 126.123 60.3568 126.104 60.4392C126.086 60.5217 126.051 60.5997 126.002 60.6688C125.954 60.7379 125.892 60.7967 125.82 60.8419L105.954 73.4094C105.85 73.4741 105.729 73.5076 105.606 73.5059Z" fill="#DFEAEF"/>
<path d="M137.385 124.413C137.34 124.419 137.295 124.419 137.25 124.413C137.083 124.376 136.938 124.275 136.846 124.131C136.754 123.988 136.723 123.814 136.759 123.647C137.733 119.143 133.476 116.601 133.296 116.491C133.155 116.402 133.055 116.263 133.015 116.102C132.976 115.94 133 115.77 133.083 115.626C133.167 115.483 133.302 115.377 133.462 115.33C133.622 115.284 133.793 115.301 133.941 115.378C133.992 115.41 139.191 118.499 138.011 123.924C137.976 124.063 137.896 124.187 137.782 124.276C137.669 124.365 137.529 124.413 137.385 124.413Z" fill="#093F68"/>
</svg>
