<svg width="229" height="173" viewBox="0 0 229 173" fill="none" xmlns="http://www.w3.org/2000/svg">
<path d="M136.112 79.7115H125.767L130.937 61.5208L136.112 79.7115Z" fill="#70CC40"/>
<path d="M136.112 80.2854H125.761C125.673 80.2845 125.586 80.2633 125.508 80.2235C125.43 80.1837 125.361 80.1263 125.309 80.0558C125.255 79.9857 125.219 79.9042 125.202 79.8176C125.185 79.731 125.188 79.6417 125.211 79.5566L130.364 61.3659C130.399 61.2467 130.471 61.142 130.57 61.0675C130.669 60.993 130.79 60.9527 130.913 60.9527C131.037 60.9527 131.158 60.993 131.257 61.0675C131.356 61.142 131.428 61.2467 131.463 61.3659L136.616 79.5566C136.639 79.6417 136.642 79.731 136.625 79.8176C136.608 79.9042 136.572 79.9857 136.518 80.0558C136.47 80.1205 136.409 80.1744 136.339 80.214C136.269 80.2535 136.192 80.2778 136.112 80.2854ZM126.522 79.1377H135.35L130.936 63.644L126.522 79.1377Z" fill="#093F68"/>
<path d="M158.233 79.7115H147.882L153.058 61.5208L158.233 79.7115Z" fill="#70CC40"/>
<path d="M158.233 80.2854H147.888C147.798 80.2887 147.708 80.2707 147.626 80.2328C147.544 80.1948 147.473 80.138 147.417 80.0669C147.361 79.9959 147.323 79.9126 147.305 79.8239C147.288 79.7352 147.291 79.6436 147.316 79.5566L152.468 61.3659C152.503 61.2467 152.575 61.142 152.674 61.0675C152.773 60.993 152.894 60.9527 153.018 60.9527C153.142 60.9527 153.262 60.993 153.361 61.0675C153.46 61.142 153.533 61.2467 153.567 61.3659L158.72 79.5566C158.744 79.6413 158.748 79.7303 158.732 79.8169C158.716 79.9035 158.681 79.9852 158.628 80.0558C158.582 80.1192 158.522 80.1723 158.454 80.2118C158.387 80.2513 158.311 80.2763 158.233 80.2854ZM148.644 79.1377H157.472L153.058 63.644L148.644 79.1377Z" fill="#093F68"/>
<path d="M109.382 51.6622L131.566 79.7115H81.1118L103.296 51.6622C103.66 51.2033 104.123 50.8325 104.65 50.5777C105.177 50.3229 105.754 50.1906 106.339 50.1906C106.924 50.1906 107.501 50.3229 108.028 50.5777C108.555 50.8325 109.018 51.2033 109.382 51.6622Z" fill="#AD7972"/>
<path d="M131.566 80.2853H81.1118C81.0045 80.2856 80.8993 80.2555 80.8082 80.1987C80.7171 80.1419 80.6437 80.0606 80.5965 79.964C80.5495 79.8664 80.531 79.7575 80.5432 79.6499C80.5553 79.5423 80.5976 79.4403 80.6652 79.3557L102.844 51.3064C103.261 50.7783 103.793 50.3517 104.398 50.0585C105.003 49.7652 105.667 49.6129 106.339 49.6129C107.011 49.6129 107.675 49.7652 108.28 50.0585C108.885 50.3517 109.417 50.7783 109.834 51.3064L132.013 79.3557C132.08 79.4403 132.123 79.5423 132.135 79.6499C132.147 79.7575 132.128 79.8664 132.081 79.964C132.034 80.0606 131.961 80.1419 131.87 80.1987C131.779 80.2555 131.673 80.2856 131.566 80.2853ZM82.2968 79.1377H130.387L108.935 52.0237C108.626 51.6298 108.232 51.3114 107.782 51.0925C107.332 50.8736 106.839 50.7598 106.339 50.7598C105.839 50.7598 105.346 50.8736 104.896 51.0925C104.446 51.3114 104.052 51.6298 103.743 52.0237L82.2968 79.1377Z" fill="#093F68"/>
<path d="M88.5085 57.0678L106.422 79.7115H64.5093L82.44 57.0678C82.8036 56.611 83.2651 56.2421 83.7904 55.9886C84.3157 55.7351 84.8912 55.6035 85.4742 55.6035C86.0572 55.6035 86.6327 55.7351 87.158 55.9886C87.6833 56.2421 88.1449 56.611 88.5085 57.0678Z" fill="#E28362"/>
<path d="M106.422 80.2853H64.5092C64.4019 80.2856 64.2967 80.2555 64.2056 80.1987C64.1145 80.1419 64.0412 80.0606 63.994 79.964C63.947 79.8664 63.9285 79.7576 63.9406 79.6499C63.9528 79.5423 63.9951 79.4403 64.0627 79.3557L81.9705 56.712C82.388 56.1839 82.9193 55.7573 83.5245 55.464C84.1298 55.1708 84.7933 55.0184 85.4656 55.0184C86.1378 55.0184 86.8014 55.1708 87.4066 55.464C88.0119 55.7573 88.5431 56.1839 88.9607 56.712L106.868 79.3557C106.935 79.4401 106.977 79.5416 106.988 79.6485C107 79.7554 106.982 79.8635 106.935 79.9604C106.889 80.0574 106.816 80.1392 106.725 80.1967C106.634 80.2541 106.529 80.2849 106.422 80.2853ZM65.6943 79.1377H105.237L88.0619 57.4236C87.7515 57.0316 87.3568 56.715 86.9072 56.4974C86.4576 56.2797 85.9648 56.1667 85.4656 56.1667C84.9663 56.1667 84.4735 56.2797 84.024 56.4974C83.5744 56.715 83.1797 57.0316 82.8693 57.4236L65.6943 79.1377Z" fill="#093F68"/>
<path d="M166.89 79.7115C166.889 89.2501 164.297 98.6085 159.391 106.782C154.485 114.955 147.451 121.635 139.044 126.104C130.636 130.572 121.173 132.661 111.671 132.146C102.168 131.631 92.9855 128.531 85.1079 123.18C78.6984 118.83 73.3316 113.108 69.3945 106.428C65.4573 99.7478 63.0478 92.2752 62.3396 84.549C62.1869 82.9537 62.1106 81.3412 62.1106 79.7115H166.89Z" fill="#68E1FD"/>
<path d="M114.5 132.797C101.296 132.802 88.5676 127.86 78.8116 118.942C69.0555 110.024 62.9764 97.7738 61.767 84.5948C61.6181 82.9938 61.5437 81.3469 61.5437 79.7057C61.5437 79.5535 61.604 79.4076 61.7114 79.3C61.8187 79.1924 61.9644 79.1319 62.1162 79.1319H166.884C167.036 79.1319 167.181 79.1924 167.289 79.3C167.396 79.4076 167.456 79.5535 167.456 79.7057C167.464 86.679 166.099 93.5853 163.441 100.029C160.782 106.473 156.882 112.329 151.963 117.26C147.044 122.191 141.204 126.102 134.775 128.768C128.347 131.434 121.457 132.803 114.5 132.797ZM62.6887 80.2853C62.6887 81.7027 62.7803 83.1143 62.9062 84.4973C64.1156 97.7614 70.3632 110.053 80.3575 118.83C90.3519 127.608 103.329 132.202 116.606 131.661C129.884 131.12 142.446 125.486 151.697 115.925C160.948 106.363 166.18 93.604 166.311 80.2853H62.6887Z" fill="#093F68"/>
<path d="M114.076 102.688C115.382 104.312 117.694 104.605 119.733 105.029C122.224 105.548 124.627 106.428 126.866 107.64C128.011 108.26 129.225 109.161 129.293 110.464C129.391 112.185 127.507 113.218 126.15 114.28C123.574 116.305 122.326 119.731 122.469 123.008C122.676 125.907 123.64 128.701 125.263 131.11C132.822 129.515 139.935 126.267 146.096 121.597C152.257 116.926 157.312 110.95 160.901 104.094C160.092 103.972 159.303 103.736 158.56 103.394C154.626 101.546 153.046 97.5292 149.972 94.7346C145.724 90.8784 139.398 90.7177 133.673 90.8784C128.52 91.0104 123.213 91.2571 118.525 93.4033C116.721 94.2296 114.981 95.383 113.945 97.0873C112.908 98.7916 112.823 101.144 114.076 102.688Z" fill="#70CC40"/>
<path d="M125.269 131.684C125.172 131.685 125.076 131.661 124.991 131.615C124.906 131.569 124.834 131.502 124.782 131.42C123.1 128.931 122.112 126.037 121.919 123.036C121.759 119.375 123.253 115.846 125.818 113.855L126.517 113.333C127.662 112.506 128.807 111.657 128.744 110.527C128.698 109.7 127.999 108.931 126.614 108.174C124.422 106.988 122.069 106.128 119.629 105.62L118.965 105.488C117.082 105.115 114.958 104.691 113.647 103.078C112.33 101.46 112.261 98.8835 113.487 96.8234C114.431 95.2396 116.006 93.9542 118.301 92.9098C122.973 90.7751 128.24 90.4767 133.679 90.3333C139.455 90.1783 145.976 90.3333 150.378 94.3501C151.515 95.4466 152.553 96.6409 153.481 97.9194C155.027 99.9279 156.493 101.822 158.817 102.918C159.516 103.237 160.256 103.457 161.016 103.572C161.105 103.587 161.189 103.623 161.262 103.676C161.334 103.73 161.393 103.801 161.433 103.882C161.475 103.962 161.496 104.052 161.496 104.143C161.496 104.233 161.475 104.323 161.433 104.404C157.812 111.341 152.699 117.385 146.464 122.101C140.229 126.817 133.026 130.086 125.377 131.673C125.342 131.681 125.305 131.685 125.269 131.684ZM136.077 91.4178C135.276 91.4178 134.474 91.4178 133.69 91.4522C128.171 91.5957 123.236 91.8769 118.759 93.9255C116.681 94.8781 115.273 96.0085 114.448 97.3685C113.469 99.0212 113.498 101.053 114.517 102.309C115.559 103.6 117.38 103.962 119.171 104.318L119.847 104.45C122.396 104.994 124.853 105.906 127.141 107.158C128.91 108.122 129.803 109.201 129.866 110.458C129.963 112.214 128.48 113.298 127.181 114.251C126.946 114.423 126.717 114.589 126.505 114.756C124.215 116.546 122.898 119.708 123.042 123.008C123.225 125.667 124.084 128.235 125.538 130.468C132.816 128.891 139.668 125.754 145.623 121.273C151.578 116.792 156.495 111.072 160.037 104.507C159.446 104.375 158.87 104.183 158.319 103.933C155.743 102.722 154.128 100.628 152.594 98.6023C151.706 97.3694 150.712 96.2173 149.623 95.1592C146.085 91.9802 140.967 91.4178 136.077 91.4178Z" fill="#093F68"/>
<path d="M93.6494 106.785L86.8595 110.303C85.7603 110.877 84.6096 111.485 83.894 112.512C83.1784 113.539 83.0753 115.089 83.997 115.955C84.5695 116.477 85.434 116.609 86.0695 117.103C86.9912 117.82 87.2145 119.186 86.871 120.305C86.4882 121.386 85.888 122.376 85.1077 123.214C78.6982 118.864 73.3314 113.143 69.3942 106.462C65.457 99.7822 63.0475 92.3097 62.3394 84.5834C66.6446 84.3194 71.2589 85.1859 73.5146 88.3593C76.7206 92.8811 77.2358 99.5434 84.5638 99.354C87.1859 99.2909 89.5904 97.9539 92.1838 97.512C94.7772 97.0701 98.0233 98.0858 98.5271 100.662C99.0423 103.405 96.1798 105.494 93.6494 106.785Z" fill="#70CC40"/>
<path d="M85.1078 123.754C84.9937 123.754 84.882 123.72 84.7872 123.656C78.3071 119.258 72.8811 113.474 68.9004 106.72C64.9197 99.9666 62.4833 92.4119 61.767 84.6006C61.7604 84.5242 61.7692 84.4473 61.7928 84.3744C61.8164 84.3014 61.8544 84.234 61.9044 84.176C61.9536 84.1179 62.0139 84.0702 62.0818 84.0357C62.1496 84.0012 62.2236 83.9806 62.2994 83.9751C65.4596 83.78 71.1789 84.0497 73.9784 87.992C74.8295 89.2684 75.5762 90.6118 76.2112 92.0089C77.9745 95.6241 79.4973 98.7515 84.2262 98.7515H84.5182C85.9902 98.6432 87.4385 98.3203 88.8176 97.7932C89.8762 97.4273 90.9589 97.1358 92.058 96.921C94.9949 96.4275 98.5043 97.667 99.0597 100.525C99.5406 102.998 97.8002 105.282 93.8785 107.302L87.0944 110.819C86.0582 111.365 84.9819 111.927 84.335 112.845C83.7625 113.625 83.6651 114.882 84.335 115.513C84.6162 115.73 84.929 115.902 85.2624 116.024C85.651 116.169 86.0202 116.362 86.3616 116.598C87.5524 117.522 87.7242 119.18 87.3749 120.414C86.9716 121.569 86.3342 122.628 85.5029 123.524C85.4562 123.588 85.3971 123.641 85.3292 123.68C85.2612 123.72 85.1859 123.745 85.1078 123.754ZM62.975 85.0941C63.7495 92.5357 66.1196 99.7216 69.9229 106.16C73.7263 112.597 78.873 118.135 85.0105 122.394C85.597 121.723 86.0464 120.943 86.333 120.098C86.5734 119.261 86.4876 118.096 85.7261 117.505C85.4582 117.322 85.17 117.172 84.8674 117.057C84.4195 116.888 84.0019 116.648 83.6308 116.345C82.4343 115.249 82.5946 113.361 83.4419 112.162C84.2892 110.963 85.5029 110.355 86.6078 109.781L93.3976 106.257C96.8326 104.496 98.3498 102.636 97.9776 100.72C97.5712 98.608 94.7087 97.6268 92.2927 98.0285C91.2488 98.2316 90.2212 98.5116 89.2184 98.8663C87.7325 99.4227 86.1747 99.7628 84.5926 99.8762C78.8676 100.025 77.007 96.1979 75.2036 92.4967C74.5945 91.1556 73.8785 89.866 73.0624 88.6404C71.3106 86.2074 67.658 84.9334 62.975 85.0941Z" fill="#093F68"/>
<path d="M102.031 119.312C102.962 120.241 104.02 121.031 105.174 121.659C105.885 121.973 106.545 122.393 107.132 122.904C107.427 123.16 107.639 123.498 107.741 123.875C107.843 124.253 107.83 124.652 107.704 125.022C107.549 125.303 107.325 125.54 107.054 125.712C106.783 125.883 106.473 125.984 106.153 126.003C105.514 126.028 104.876 125.947 104.264 125.762C101.229 125.01 97.8802 124.041 96.2485 121.367C95.3955 119.966 95.4642 117.734 97.1817 116.954C99.1282 116.064 100.788 118.061 102.031 119.312Z" fill="#70CC40"/>
<path d="M105.821 126.588C105.24 126.568 104.663 126.477 104.103 126.319C100.806 125.504 97.4452 124.477 95.7334 121.665C95.433 121.167 95.2379 120.613 95.1601 120.036C95.0823 119.46 95.1235 118.874 95.2811 118.314C95.4014 117.899 95.6108 117.515 95.8947 117.19C96.1785 116.865 96.5299 116.606 96.9242 116.431C99.0596 115.462 100.794 117.235 102.077 118.532C102.203 118.664 102.329 118.79 102.449 118.905C103.339 119.796 104.353 120.554 105.46 121.154L105.827 121.349C106.456 121.638 107.036 122.026 107.544 122.497C107.917 122.84 108.179 123.286 108.297 123.778C108.415 124.271 108.384 124.788 108.208 125.263C108.012 125.634 107.725 125.95 107.373 126.179C107.021 126.408 106.617 126.543 106.199 126.571L105.821 126.588ZM98.1551 117.304C97.8939 117.307 97.6364 117.366 97.3994 117.476C97.1539 117.585 96.9353 117.747 96.7592 117.95C96.5831 118.154 96.4538 118.393 96.3803 118.652C96.2713 119.057 96.245 119.48 96.303 119.895C96.3611 120.31 96.5023 120.709 96.7181 121.068C98.2009 123.507 101.298 124.448 104.378 125.205C104.934 125.377 105.515 125.452 106.096 125.429C106.317 125.421 106.532 125.358 106.722 125.245C106.912 125.131 107.071 124.972 107.183 124.781C107.257 124.519 107.255 124.242 107.178 123.981C107.101 123.72 106.952 123.486 106.748 123.306C106.319 122.919 105.832 122.602 105.306 122.365L104.928 122.164C103.724 121.513 102.62 120.689 101.653 119.72C101.527 119.599 101.401 119.467 101.269 119.335C100.136 118.199 99.1684 117.304 98.1551 117.304Z" fill="#093F68"/>
<path d="M125.761 79.6598C126.517 77.5079 126.059 74.2543 123.288 74.019C122.141 73.9782 121.017 74.3463 120.116 75.0576C120.11 74.5975 119.984 74.1469 119.75 73.7511C119.516 73.3552 119.182 73.0279 118.782 72.8019C118.382 72.5759 117.93 72.4591 117.471 72.4632C117.012 72.4674 116.562 72.5922 116.166 72.8254C115.668 73.1181 115.445 73.5886 115.021 73.9731C114.488 74.4436 114.763 74.3518 114.088 74.1682C113.114 73.91 112.41 73.5484 111.374 73.8927C110.775 74.0976 110.244 74.4643 109.84 74.9524C109.436 75.4405 109.175 76.0309 109.084 76.6587C108.661 76.4727 108.198 76.3968 107.737 76.438C107.277 76.4791 106.834 76.6359 106.451 76.8939C105.693 77.4217 105.098 78.1512 104.733 78.9999C104.622 79.2209 104.527 79.449 104.447 79.6828L125.761 79.6598Z" fill="#70CC40"/>
<path d="M125.761 80.2337H104.453C104.361 80.2337 104.27 80.2115 104.189 80.1689C104.107 80.1264 104.037 80.0648 103.984 79.9894C103.931 79.914 103.898 79.827 103.885 79.7356C103.873 79.6443 103.883 79.5514 103.914 79.4648C104.002 79.2136 104.105 78.9682 104.224 78.7303C104.638 77.7793 105.313 76.9655 106.17 76.3832C106.916 75.8972 107.821 75.7203 108.695 75.8897C108.886 75.2965 109.211 74.7559 109.647 74.3107C110.082 73.8655 110.615 73.5279 111.202 73.3247C112.041 73.0752 112.939 73.1176 113.75 73.4452L114.242 73.5944L114.494 73.6632L114.655 73.5198C114.788 73.3969 114.911 73.2625 115.021 73.1181C115.259 72.8071 115.549 72.5409 115.88 72.3319C116.292 72.0888 116.754 71.9418 117.231 71.902C117.708 71.8622 118.188 71.9305 118.635 72.102C119.082 72.2734 119.485 72.5435 119.814 72.8922C120.143 73.241 120.389 73.6595 120.534 74.1166C121.384 73.6232 122.359 73.3899 123.339 73.4452C123.863 73.4766 124.372 73.6324 124.824 73.8998C125.276 74.1672 125.658 74.5385 125.939 74.9831C126.866 76.4177 126.786 78.4606 126.299 79.8492C126.26 79.9612 126.187 80.0583 126.091 80.1272C125.995 80.196 125.879 80.2332 125.761 80.2337ZM105.323 79.086H125.36C125.704 77.9228 125.574 76.6705 125 75.6028C124.815 75.309 124.563 75.0638 124.264 74.8881C123.965 74.7123 123.628 74.6111 123.282 74.5929C122.273 74.5654 121.286 74.8945 120.494 75.5225C120.409 75.5848 120.308 75.6224 120.203 75.6311C120.098 75.6398 119.993 75.6193 119.899 75.5718C119.805 75.5243 119.726 75.4518 119.67 75.3621C119.614 75.2724 119.585 75.169 119.584 75.0634C119.594 74.6328 119.466 74.2103 119.218 73.8582C118.971 73.5061 118.617 73.2432 118.209 73.1081C117.801 72.9731 117.36 72.9731 116.952 73.1082C116.544 73.2433 116.19 73.5063 115.943 73.8584C115.791 74.0439 115.627 74.2184 115.45 74.3806L115.256 74.5584C115.143 74.7029 114.985 74.8044 114.807 74.8462C114.629 74.888 114.442 74.8674 114.277 74.788L113.99 74.7019L113.458 74.547C112.873 74.2906 112.218 74.244 111.603 74.415C111.11 74.5887 110.674 74.8945 110.342 75.2992C110.01 75.7038 109.795 76.1918 109.72 76.7103C109.708 76.8022 109.674 76.8898 109.621 76.9657C109.569 77.0417 109.498 77.1037 109.416 77.1465C109.335 77.1887 109.245 77.2108 109.153 77.2108C109.061 77.2108 108.971 77.1887 108.889 77.1465C108.556 77.0036 108.192 76.9471 107.831 76.9822C107.469 77.0173 107.123 77.1428 106.823 77.3473C106.18 77.7805 105.667 78.3817 105.34 79.086H105.323Z" fill="#093F68"/>
<path d="M131.566 79.7115H119.16L125.366 57.8998L131.566 79.7115Z" fill="#70CC40"/>
<path d="M131.566 80.2853H119.16C119.071 80.2853 118.984 80.2646 118.904 80.2247C118.825 80.1849 118.756 80.1271 118.702 80.0558C118.65 79.9852 118.614 79.9034 118.598 79.8169C118.582 79.7303 118.587 79.6412 118.611 79.5565L124.811 57.7506C124.844 57.6291 124.916 57.5217 125.016 57.4452C125.115 57.3687 125.238 57.3273 125.363 57.3273C125.489 57.3273 125.611 57.3687 125.711 57.4452C125.811 57.5217 125.883 57.6291 125.916 57.7506L132.116 79.5565C132.14 79.6412 132.144 79.7303 132.128 79.8169C132.112 79.9034 132.077 79.9852 132.024 80.0558C131.971 80.1271 131.902 80.1849 131.822 80.2247C131.743 80.2646 131.655 80.2853 131.566 80.2853ZM119.922 79.1376H130.799L125.378 59.9943L119.922 79.1376Z" fill="#093F68"/>
<path d="M147.688 79.7115H135.282L141.482 57.8998L147.688 79.7115Z" fill="#70CC40"/>
<path d="M147.705 80.2853H135.282C135.193 80.2853 135.105 80.2646 135.026 80.2247C134.946 80.1849 134.877 80.1271 134.824 80.0558C134.771 79.9852 134.736 79.9034 134.72 79.8169C134.704 79.7303 134.708 79.6412 134.732 79.5565L140.932 57.7506C140.967 57.6314 141.039 57.5267 141.138 57.4522C141.238 57.3777 141.358 57.3375 141.482 57.3375C141.606 57.3375 141.726 57.3777 141.825 57.4522C141.925 57.5267 141.997 57.6314 142.032 57.7506L148.237 79.5565C148.261 79.6417 148.264 79.731 148.247 79.8176C148.23 79.9042 148.194 79.9857 148.14 80.0558C148.089 80.124 148.024 80.18 147.948 80.2198C147.873 80.2595 147.79 80.2819 147.705 80.2853ZM136.055 79.1376H146.932L141.488 59.9943L136.055 79.1376Z" fill="#093F68"/>
<path d="M142.312 79.7115H129.906L136.112 61.779L142.312 79.7115Z" fill="#70CC40"/>
<path d="M142.312 80.2853H129.906C129.815 80.285 129.725 80.2628 129.644 80.2206C129.563 80.1784 129.493 80.1174 129.441 80.0427C129.388 79.968 129.354 79.8818 129.341 79.7913C129.329 79.7007 129.338 79.6085 129.368 79.5221L135.568 61.5896C135.607 61.4769 135.68 61.3791 135.777 61.3099C135.874 61.2407 135.99 61.2035 136.109 61.2035C136.228 61.2035 136.344 61.2407 136.441 61.3099C136.538 61.3791 136.611 61.4769 136.65 61.5896L142.856 79.5221C142.886 79.6088 142.895 79.7015 142.882 79.7923C142.869 79.8832 142.835 79.9696 142.781 80.0443C142.728 80.1193 142.658 80.1803 142.576 80.2223C142.494 80.2642 142.404 80.2858 142.312 80.2853ZM130.713 79.1377H141.51L136.112 63.5464L130.713 79.1377Z" fill="#093F68"/>
<path d="M153.058 79.7115H140.652L146.858 57.8998L153.058 79.7115Z" fill="#70CC40"/>
<path d="M153.058 80.2853H140.652C140.563 80.2853 140.475 80.2646 140.396 80.2248C140.316 80.1849 140.247 80.1271 140.194 80.0558C140.141 79.9852 140.106 79.9035 140.09 79.8169C140.074 79.7303 140.078 79.6413 140.102 79.5566L146.308 57.7507C146.343 57.6265 146.418 57.5177 146.522 57.4417C146.626 57.3657 146.752 57.327 146.88 57.3318C147.009 57.327 147.135 57.3657 147.239 57.4417C147.343 57.5177 147.418 57.6265 147.453 57.7507L153.653 79.5566C153.677 79.6413 153.681 79.7303 153.665 79.8169C153.649 79.9035 153.614 79.9852 153.562 80.0558C153.504 80.1336 153.427 80.1955 153.339 80.2356C153.251 80.2758 153.154 80.2929 153.058 80.2853ZM141.413 79.1377H152.291L146.846 59.9944L141.413 79.1377Z" fill="#093F68"/>
<path d="M163.804 79.7115H151.397L157.603 61.779L163.804 79.7115Z" fill="#70CC40"/>
<path d="M163.804 80.2853H151.398C151.306 80.285 151.217 80.2628 151.136 80.2206C151.055 80.1784 150.985 80.1174 150.932 80.0427C150.88 79.968 150.846 79.8818 150.833 79.7913C150.82 79.7007 150.829 79.6085 150.859 79.5221L157.06 61.5896C157.099 61.4769 157.172 61.3791 157.269 61.3099C157.366 61.2407 157.482 61.2035 157.601 61.2035C157.72 61.2035 157.836 61.2407 157.933 61.3099C158.03 61.3791 158.103 61.4769 158.142 61.5896L164.348 79.5221C164.378 79.6088 164.387 79.7015 164.374 79.7923C164.361 79.8832 164.326 79.9696 164.273 80.0443C164.22 80.1193 164.149 80.1803 164.068 80.2223C163.986 80.2642 163.895 80.2858 163.804 80.2853ZM152.205 79.1377H163.002L157.604 63.5464L152.205 79.1377Z" fill="#093F68"/>
<path d="M162.722 50.7383C162.72 51.6606 162.354 52.5449 161.704 53.1976C161.054 53.8503 160.172 54.2185 159.252 54.2215H142.077C141.392 54.2199 140.722 54.0149 140.152 53.6324C139.582 53.25 139.138 52.707 138.875 52.072C138.613 51.437 138.543 50.7384 138.676 50.064C138.809 49.3896 139.138 48.7697 139.621 48.2823C140.2 47.6992 140.967 47.343 141.785 47.278C141.944 46.5426 142.274 45.8554 142.749 45.2727C143.223 44.69 143.829 44.2284 144.517 43.926C145.204 43.6236 145.953 43.4888 146.702 43.5329C147.452 43.5769 148.18 43.7984 148.827 44.1793C149.497 43.0938 150.502 42.2567 151.689 41.7949C152.876 41.333 154.181 41.2716 155.406 41.62C156.631 41.9683 157.71 42.7075 158.478 43.7253C159.247 44.7432 159.663 45.9844 159.664 47.2608V47.2953C160.506 47.3949 161.282 47.8004 161.845 48.4349C162.409 49.0694 162.72 49.8889 162.722 50.7383Z" fill="white"/>
<path d="M159.252 54.7954H142.077C141.005 54.7939 139.977 54.3657 139.219 53.6051C138.461 52.8444 138.035 51.8133 138.035 50.7383C138.035 49.7947 138.364 48.8807 138.965 48.1545C139.567 47.4283 140.402 46.9356 141.327 46.7616C141.548 46.0295 141.923 45.3534 142.427 44.7791C142.932 44.2049 143.553 43.7458 144.249 43.433C144.946 43.1201 145.701 42.9608 146.464 42.9659C147.227 42.9709 147.98 43.1401 148.672 43.462C149.453 42.4018 150.54 41.6073 151.786 41.186C153.032 40.7646 154.377 40.7366 155.639 41.1058C156.901 41.4749 158.02 42.2235 158.844 43.2503C159.669 44.2772 160.159 45.5328 160.248 46.8477C161.118 47.0694 161.889 47.5749 162.441 48.2845C162.992 48.9941 163.293 49.8675 163.294 50.767C163.294 51.842 162.868 52.8731 162.111 53.6338C161.353 54.3944 160.325 54.8226 159.252 54.8241V54.7954ZM146.457 44.099C145.504 44.1044 144.58 44.4337 143.838 45.033C143.095 45.6323 142.578 46.4662 142.369 47.3986C142.343 47.5178 142.279 47.6255 142.188 47.706C142.096 47.7865 141.981 47.8356 141.86 47.8462C141.099 47.8886 140.386 48.2295 139.874 48.7952C139.363 49.3609 139.094 50.1059 139.126 50.8687C139.159 51.6316 139.489 52.3509 140.047 52.8711C140.605 53.3912 141.344 53.6702 142.106 53.6477H159.281C160.018 53.6484 160.727 53.3676 161.265 52.8623C161.803 52.357 162.128 51.6653 162.175 50.9281C162.221 50.1908 161.986 49.4634 161.516 48.894C161.047 48.3247 160.378 47.9561 159.647 47.8634C159.509 47.8452 159.382 47.7768 159.29 47.6711C159.198 47.5654 159.148 47.4297 159.149 47.2896C159.155 46.1351 158.784 45.0104 158.093 44.0867C157.402 43.163 156.429 42.4908 155.322 42.1724C154.215 41.8541 153.035 41.907 151.96 42.3231C150.886 42.7393 149.977 43.4959 149.371 44.4777C149.292 44.6051 149.166 44.6963 149.02 44.7317C148.875 44.7671 148.721 44.7439 148.592 44.6671C147.945 44.2873 147.207 44.0909 146.457 44.099Z" fill="#DFEAEF"/>
<path d="M92.5102 46.7386C92.5087 47.662 92.1421 48.5471 91.4907 49.2C90.8393 49.8529 89.9563 50.2203 89.0352 50.2219H71.8601C71.1736 50.2218 70.5026 50.0177 69.9319 49.6352C69.3612 49.2527 68.9165 48.7092 68.6542 48.0733C68.3918 47.4374 68.3236 46.7378 68.4581 46.063C68.5926 45.3882 68.9239 44.7686 69.4098 44.2826C69.9846 43.6974 70.7513 43.3407 71.5682 43.2784C71.7983 42.2155 72.3844 41.2635 73.229 40.5808C74.0737 39.8981 75.126 39.5256 76.2111 39.5255C77.0568 39.5228 77.8875 39.7488 78.6157 40.1797C79.2841 39.0927 80.2883 38.254 81.4756 37.7912C82.6629 37.3283 83.9684 37.2665 85.194 37.6152C86.4195 37.9638 87.498 38.7039 88.2657 39.7229C89.0334 40.7419 89.4483 41.9843 89.4473 43.2612V43.2956C90.2895 43.3952 91.066 43.8004 91.6303 44.4348C92.1947 45.0692 92.5077 45.8887 92.5102 46.7386Z" fill="white"/>
<path d="M89.0351 50.7957H71.8601C70.8606 50.7833 69.901 50.4007 69.1662 49.7214C68.4314 49.0422 67.9733 48.1145 67.8802 47.1169C67.787 46.1194 68.0655 45.1225 68.6618 44.3185C69.2582 43.5144 70.1303 42.96 71.1102 42.7619C71.3297 42.0312 71.7029 41.3562 72.2046 40.7822C72.7063 40.2082 73.3249 39.7486 74.0187 39.4343C74.7125 39.12 75.4654 38.9584 76.2267 38.9603C76.9881 38.9621 77.7402 39.1275 78.4324 39.4451C79.2145 38.3858 80.3018 37.5923 81.5477 37.1715C82.7937 36.7508 84.1384 36.723 85.4005 37.092C86.6627 37.4609 87.7817 38.2089 88.6066 39.235C89.4315 40.2612 89.9228 41.5161 90.0141 42.8308C90.8828 43.0536 91.6529 43.5595 92.2032 44.2691C92.7535 44.9786 93.0529 45.8514 93.0541 46.7501C93.0541 47.8251 92.6284 48.8562 91.8706 49.6169C91.1128 50.3775 90.0847 50.8056 89.0122 50.8072L89.0351 50.7957ZM76.2398 40.0993C75.283 40.0988 74.3547 40.4255 73.6083 41.0254C72.862 41.6254 72.3422 42.4627 72.1349 43.3989C72.1083 43.519 72.0438 43.6274 71.951 43.708C71.8583 43.7886 71.7421 43.8371 71.6197 43.8465C70.9012 43.9092 70.2317 44.2378 69.7417 44.7682C69.2517 45.2986 68.9763 45.9928 68.969 46.7157C68.969 47.4863 69.274 48.2255 69.8171 48.7709C70.3602 49.3163 71.097 49.6235 71.8659 49.6251H89.0409C89.7784 49.6273 90.489 49.3474 91.0278 48.8426C91.5666 48.3378 91.893 47.646 91.9404 46.9083C91.9879 46.1706 91.7528 45.4425 91.2832 44.8725C90.8135 44.3025 90.1447 43.9335 89.413 43.8408C89.2733 43.8238 89.1448 43.756 89.0519 43.6502C88.959 43.5443 88.9082 43.4079 88.9092 43.2669C88.9172 42.112 88.5481 40.9861 87.858 40.0612C87.1679 39.1363 86.1948 38.4631 85.0873 38.1445C83.9797 37.8258 82.7986 37.8792 81.7241 38.2964C80.6497 38.7136 79.7409 39.4717 79.1366 40.4551C79.0573 40.5825 78.9314 40.6736 78.7859 40.709C78.6403 40.7444 78.4867 40.7213 78.358 40.6445C77.713 40.2767 76.9817 40.0885 76.2398 40.0993Z" fill="#DFEAEF"/>
<path d="M126.087 45.3959C129.717 45.3959 132.66 42.4465 132.66 38.8082C132.66 35.1699 129.717 32.2205 126.087 32.2205C122.458 32.2205 119.515 35.1699 119.515 38.8082C119.515 42.4465 122.458 45.3959 126.087 45.3959Z" fill="#FFBC0E"/>
<path d="M126.087 45.9697C124.674 45.9708 123.292 45.5518 122.116 44.7656C120.941 43.9793 120.024 42.8613 119.482 41.5528C118.941 40.2443 118.798 38.8041 119.073 37.4146C119.348 36.025 120.028 34.7484 121.027 33.7463C122.026 32.7441 123.299 32.0615 124.686 31.7847C126.072 31.5079 127.509 31.6494 128.814 32.1913C130.12 32.7331 131.237 33.651 132.022 34.8289C132.807 36.0067 133.226 37.3915 133.226 38.8082C133.223 40.7056 132.47 42.5246 131.132 43.8668C129.794 45.209 127.98 45.9652 126.087 45.9697ZM126.087 32.7714C124.9 32.7703 123.739 33.1221 122.752 33.7825C121.764 34.4429 120.994 35.3821 120.54 36.4812C120.085 37.5803 119.965 38.79 120.197 39.9571C120.428 41.1242 121 42.1963 121.839 43.0377C122.679 43.8791 123.748 44.4519 124.912 44.6838C126.077 44.9157 127.284 44.7961 128.38 44.3402C129.477 43.8843 130.414 43.1126 131.073 42.1228C131.731 41.1329 132.083 39.9694 132.081 38.7795C132.071 37.192 131.435 35.6729 130.312 34.553C129.19 33.4331 127.671 32.8031 126.087 32.8001V32.7714Z" fill="#093F68"/>
</svg>
