<svg width="265" height="200" viewBox="0 0 265 200" fill="none" xmlns="http://www.w3.org/2000/svg">
<g clip-path="url(#clip0_6_52)">
<path opacity="0.18" d="M220.157 71.7861C221.429 76.8327 221.583 82.097 220.608 87.2096C219.633 92.3223 217.553 97.1593 214.513 101.381C209.974 107.568 203.503 112.194 199.473 118.709C190.763 132.774 195.438 151.981 187.449 166.471C180.772 178.591 166.937 184.546 154.091 189.657C144.004 193.667 133.816 197.702 123.124 199.318C112.432 200.934 100.933 199.909 91.6675 194.339C84.0266 189.758 78.4131 182.495 73.2284 175.243C60.4834 157.4 48.9639 137.971 45.0501 116.386C41.1364 94.8006 46.0185 70.5891 62.067 55.6552C69.8795 48.3826 80.1128 43.3676 85.6254 34.2214C91.4103 24.6256 91.491 11.2371 100.484 4.5504C103.802 2.08076 107.928 0.934329 112.023 0.388888C121.883 -0.881946 131.89 1.04566 140.575 5.88875C149.386 10.8331 156.618 18.6915 166.216 21.853C178.638 25.9488 194.581 22.8025 202.837 34.9234C209.469 44.6706 217.211 60.4328 220.157 71.7861Z" fill="#68E1FD"/>
<path d="M167.3 64.8872C167.156 65.1918 166.96 65.4688 166.72 65.7054C164.798 67.7386 162.31 69.1463 159.579 69.7457C158.614 69.9681 157.628 70.08 156.638 70.079C156.058 66.3316 155.468 62.5792 155.014 58.8167C154.656 55.8774 154.389 52.9431 154.263 49.9937C154.177 48.1452 150.178 41.7009 150.995 39.9737C151.897 38.0748 158.399 44.5746 159.13 45.812C163.19 52.63 164.647 57.9026 167.432 63.766C167.537 64.1425 167.49 64.5454 167.3 64.8872Z" fill="#68E1FD"/>
<path d="M160.234 69.0589C160.04 69.3126 159.82 69.5461 159.579 69.7558C158.614 69.9783 157.628 70.0901 156.638 70.0892C156.058 66.3418 155.468 62.5894 155.014 58.8268C155.186 55.8707 155.497 52.9263 155.947 49.9937C155.756 51.221 157.264 53.8977 157.672 55.0996L159.443 60.3369C160.366 63.0691 162.338 66.3923 160.234 69.0589Z" fill="url(#paint0_linear_6_52)"/>
<path d="M158.061 75.4678C158.464 77.9324 158.979 80.4273 160.194 82.6091C160.82 83.7302 161.753 84.8312 163.018 85.0282C163.723 85.0948 164.432 84.9891 165.086 84.7201C166.442 84.2531 167.72 83.5859 168.879 82.7404C169.986 81.8903 171.03 80.9602 172.001 79.9576C173.446 78.5919 174.783 77.1161 176.001 75.5436C176.56 74.786 177.07 73.9881 177.68 73.2659C180.202 70.2609 184.237 68.9124 187.096 66.2307C187.868 65.5135 189.431 62.2308 189.315 61.1803C188.266 60.5743 186.113 63.0136 184.953 63.3671C183.793 63.7206 182.708 64.2964 181.543 64.6247C180.148 65.0142 178.676 65.0333 177.272 64.6802C176.797 64.559 176.233 57.0693 175.758 57.241C175.52 57.3412 175.306 57.4929 175.133 57.6854C174.155 58.6955 173.62 67.3165 172.808 68.4377C171.693 69.9528 170.15 71.1043 168.622 72.2053C168.486 72.3012 168.314 72.4022 168.163 72.3265C168.113 72.2893 168.071 72.2424 168.04 72.1886C168.009 72.1348 167.989 72.0751 167.981 72.0134C167.583 70.5336 167.134 69.0639 166.645 67.6145C166.302 66.6044 165.818 65.4933 164.804 65.1903C163.901 64.9226 162.963 65.4327 162.156 65.9226C161.117 66.5589 160.068 67.1852 159.034 67.8266C158.459 68.1801 157.763 68.5235 157.491 69.175C157.158 69.9579 157.44 71.0386 157.536 71.8416C157.687 73.0588 157.864 74.2658 158.061 75.4678Z" fill="#F5BCBA"/>
<path d="M167.265 144.158C167.265 145.703 167.189 147.224 167.053 148.734C165.877 161.656 159.788 173.633 150.045 182.189C140.302 190.745 127.649 195.226 114.701 194.708C101.752 194.189 89.4975 188.71 80.4681 179.402C71.4388 170.094 66.3247 157.669 66.1826 144.693C66.1826 144.522 66.1826 144.355 66.1826 144.188C66.1158 137.499 67.3739 130.863 69.8841 124.664C72.3942 118.465 76.1066 112.825 80.8067 108.072C85.5067 103.318 91.1012 99.5445 97.2666 96.9692C103.432 94.3938 110.046 93.0678 116.726 93.0678C123.407 93.0678 130.021 94.3938 136.186 96.9692C142.352 99.5445 147.946 103.318 152.646 108.072C157.346 112.825 161.059 118.465 163.569 124.664C166.079 130.863 167.337 137.499 167.27 144.188L167.265 144.158Z" fill="#68E1FD"/>
<path d="M167.265 144.158C167.265 145.703 167.189 147.224 167.053 148.734C155.423 156.658 138.305 161.658 119.215 161.658C97.0238 161.658 77.5255 154.905 66.1826 144.668C66.1826 144.496 66.1826 144.33 66.1826 144.163C66.1158 137.474 67.3739 130.838 69.8841 124.639C72.3942 118.44 76.1066 112.8 80.8067 108.046C85.5067 103.293 91.1012 99.5192 97.2666 96.9439C103.432 94.3685 110.046 93.0425 116.726 93.0425C123.407 93.0425 130.021 94.3685 136.186 96.9439C142.352 99.5192 147.946 103.293 152.646 108.046C157.346 112.8 161.059 118.44 163.569 124.639C166.079 130.838 167.337 137.474 167.27 144.163L167.265 144.158Z" fill="url(#paint1_linear_6_52)"/>
<path d="M139.899 124.371C141.916 125.098 144.11 125.618 145.765 126.997C147.232 128.214 148.125 129.976 148.846 131.739C151.251 137.654 152.118 144.083 151.368 150.425C151.166 152.112 150.864 153.85 151.302 155.476C151.741 157.102 153.239 158.627 154.924 158.425C157.259 153.779 157.309 148.355 157.314 143.153C157.314 139.355 157.314 135.476 156.043 131.896C155.004 128.946 153.168 126.34 151.272 123.86C144.357 114.77 135.99 106.29 125.338 102.204C124.897 101.978 124.389 101.916 123.906 102.028C121.712 102.831 122.07 106.74 122.922 108.31C124.133 110.48 125.48 112.57 126.957 114.568C130.197 119.056 134.704 122.47 139.899 124.371Z" fill="url(#paint2_linear_6_52)"/>
<path d="M119.952 112.957C119.982 112.277 120.069 111.601 120.214 110.937C120.292 110.607 120.458 110.305 120.696 110.063C120.933 109.822 121.232 109.651 121.561 109.568C121.838 109.56 122.114 109.535 122.388 109.492C122.948 109.32 123.185 108.669 123.346 108.108L125.136 101.846C125.479 100.634 125.827 99.3611 125.565 98.1339C125.152 96.2148 123.391 94.9168 121.677 93.9774C120.431 93.2906 119.029 92.6795 117.642 92.9371C115.493 93.336 114.247 95.5582 113.446 97.5935C112.512 99.7743 111.938 102.092 111.746 104.457C111.605 107.189 111.373 113.881 113.062 116.27C115.402 119.623 119.579 115.987 119.952 112.957Z" fill="url(#paint3_linear_6_52)"/>
<path d="M147.156 105.053C151.731 106.603 156.608 107.255 161.016 109.23C161.158 109.273 161.29 109.345 161.403 109.441C161.515 109.538 161.607 109.656 161.672 109.79C161.71 110.009 161.682 110.234 161.591 110.437C157.868 121.523 155.769 133.09 155.357 144.779C157.995 145.255 160.69 145.314 163.346 144.956C163.645 144.937 163.934 144.845 164.188 144.688C164.433 144.474 164.618 144.199 164.723 143.89C168.99 134.298 172.82 124.526 176.212 114.573C176.812 112.81 177.408 110.967 177.166 109.118C176.818 106.427 174.795 104.305 172.873 102.391L157.899 87.4322C157.518 87.0022 157.051 86.6579 156.527 86.4221C155.925 86.2426 155.288 86.2114 154.671 86.3312C148.765 87.0635 140.701 87.2908 129.847 86.8362C128.44 86.7756 135.395 94.8007 135.975 96.341C136.439 97.5632 137.907 99.1389 138.804 100.088C141.054 102.452 144.09 104.013 147.156 105.053Z" fill="#525263"/>
<path d="M147.156 105.053C151.731 106.603 156.608 107.255 161.016 109.23C161.158 109.273 161.29 109.345 161.403 109.441C161.515 109.538 161.607 109.656 161.672 109.79C161.71 110.009 161.682 110.234 161.591 110.437C157.868 121.523 155.769 133.09 155.357 144.779C157.995 145.255 160.69 145.314 163.346 144.956C163.645 144.937 163.934 144.845 164.188 144.688C164.433 144.474 164.618 144.199 164.723 143.89C168.99 134.298 172.82 124.526 176.212 114.573C176.812 112.81 177.408 110.967 177.166 109.118C176.818 106.427 174.795 104.305 172.873 102.391L157.899 87.4322C157.518 87.0022 157.051 86.6579 156.527 86.4221C155.925 86.2426 155.288 86.2114 154.671 86.3312C148.765 87.0635 140.701 87.2908 129.847 86.8362C128.44 86.7756 135.395 94.8007 135.975 96.341C136.439 97.5632 137.907 99.1389 138.804 100.088C141.054 102.452 144.09 104.013 147.156 105.053Z" fill="url(#paint4_linear_6_52)"/>
<path d="M154.591 151.41C154.223 151.983 153.975 152.623 153.859 153.294C153.59 154.468 153.392 155.657 153.264 156.855C153.163 157.784 153.128 158.794 153.658 159.557C154.187 160.319 155.06 160.597 155.877 160.915C157.934 161.763 159.932 162.746 161.858 163.86C163.16 164.577 164.516 165.319 165.999 165.375C167.482 165.43 169.121 164.617 169.459 163.173C169.576 162.477 169.517 161.764 169.288 161.097C168.478 158.199 166.891 155.579 164.698 153.521C164.314 153.146 163.885 152.819 163.422 152.547C162.978 152.317 162.513 152.127 162.035 151.981C160.688 151.488 159.308 151.091 157.904 150.794C156.679 150.597 155.438 150.234 154.591 151.41Z" fill="#2E2E3F"/>
<path d="M154.591 151.41C154.223 151.983 153.975 152.623 153.859 153.294C153.59 154.468 153.392 155.657 153.264 156.855C153.163 157.784 153.128 158.794 153.658 159.557C154.187 160.319 155.06 160.597 155.877 160.915C157.934 161.763 159.932 162.746 161.858 163.86C163.16 164.577 164.516 165.319 165.999 165.375C167.482 165.43 169.121 164.617 169.459 163.173C169.576 162.477 169.517 161.764 169.288 161.097C168.478 158.199 166.891 155.579 164.698 153.521C164.314 153.146 163.885 152.819 163.422 152.547C162.978 152.317 162.513 152.127 162.035 151.981C160.688 151.488 159.308 151.091 157.904 150.794C156.679 150.597 155.438 150.234 154.591 151.41Z" fill="url(#paint5_linear_6_52)"/>
<path d="M156.089 145.158C155.706 147.156 155.507 149.184 155.494 151.218C155.494 152.112 155.554 153.102 156.195 153.744C156.801 154.226 157.574 154.448 158.343 154.36C159.271 154.325 160.186 154.136 161.052 153.799C161.243 153.739 161.417 153.632 161.556 153.486C161.658 153.343 161.729 153.179 161.763 153.006C162.532 150.115 162.941 147.14 162.978 144.148C163.027 143.679 162.93 143.206 162.701 142.794C162.222 142.123 161.228 142.153 160.421 142.315C159.388 142.536 158.376 142.845 157.395 143.239C156.467 143.562 156.275 144.198 156.089 145.158Z" fill="#F5BCBA"/>
<path d="M166.034 154.653C166.399 155.55 166.696 156.473 166.922 157.415C167.078 158.148 167.169 158.93 167.638 159.516C168.233 160.248 169.267 160.435 170.21 160.451C170.988 160.495 171.765 160.363 172.485 160.067C172.86 159.92 173.173 159.649 173.373 159.299C173.513 158.954 173.562 158.578 173.514 158.208C173.44 155.642 172.801 153.124 171.643 150.835C170.978 149.651 170.23 148.517 169.404 147.441C169.142 146.957 168.703 146.594 168.178 146.431C167.908 146.421 167.639 146.466 167.387 146.562C167.135 146.658 166.905 146.804 166.71 146.991C165.878 147.618 164.047 148.663 164.239 149.85C164.481 151.431 165.47 153.153 166.034 154.653Z" fill="#F5BCBA"/>
<path d="M172.147 156.516C171.577 156.836 171.023 157.185 170.488 157.562C169.656 158.021 168.677 158.112 167.764 158.375C167.523 158.421 167.302 158.539 167.129 158.713C167.003 158.883 166.925 159.084 166.902 159.294C166.731 160.673 166.787 162.07 167.068 163.43C167.532 166.373 168.074 169.304 168.692 172.223C168.95 173.425 169.257 174.693 170.13 175.556C171.002 176.42 172.329 176.718 173.57 176.753C174.73 176.82 175.89 176.603 176.949 176.122C177.791 175.67 178.52 175.035 179.083 174.262C179.645 173.488 180.026 172.598 180.197 171.657C180.525 169.765 180.294 167.818 179.531 166.056C179.013 164.852 178.41 163.685 177.725 162.567C176.818 161.004 175.913 159.442 175.012 157.88C174.326 156.688 173.701 155.855 172.147 156.516Z" fill="#2E2E3F"/>
<path d="M172.147 156.516C171.577 156.836 171.023 157.185 170.488 157.562C169.656 158.021 168.677 158.112 167.764 158.375C167.523 158.421 167.302 158.539 167.129 158.713C167.003 158.883 166.925 159.084 166.902 159.294C166.731 160.673 166.787 162.07 167.068 163.43C167.532 166.373 168.074 169.304 168.692 172.223C168.95 173.425 169.257 174.693 170.13 175.556C171.002 176.42 172.329 176.718 173.57 176.753C174.73 176.82 175.89 176.603 176.949 176.122C177.791 175.67 178.52 175.035 179.083 174.262C179.645 173.488 180.026 172.598 180.197 171.657C180.525 169.765 180.294 167.818 179.531 166.056C179.013 164.852 178.41 163.685 177.725 162.567C176.818 161.004 175.913 159.442 175.012 157.88C174.326 156.688 173.701 155.855 172.147 156.516Z" fill="url(#paint6_linear_6_52)"/>
<path d="M111.04 64.0742C110.598 65.186 110.303 66.3507 110.162 67.5387C109.682 70.6149 109.376 73.7157 109.244 76.8264C108.992 82.7656 109.375 88.7149 109.209 94.6542C109.037 100.831 108.311 107.235 110.53 112.997C110.876 114.043 111.459 114.994 112.235 115.775C112.627 116.159 113.111 116.437 113.641 116.582C114.17 116.727 114.728 116.734 115.261 116.603C115.744 116.417 116.177 116.122 116.527 115.741C116.876 115.36 117.134 114.903 117.279 114.406C117.557 113.411 117.679 112.379 117.642 111.346L117.722 105.699C117.722 105.583 117.722 105.447 117.838 105.396C117.887 105.379 117.939 105.376 117.99 105.386C118.04 105.395 118.087 105.418 118.126 105.452C118.56 105.827 118.972 106.227 119.362 106.649C119.81 107.012 120.527 107.189 120.925 106.77C121.035 106.623 121.113 106.454 121.154 106.275C121.195 106.096 121.198 105.91 121.162 105.73C120.92 103.285 118.792 101.523 117.526 99.4167C115.7 96.3865 115.7 92.5684 116.159 89.0432C116.729 84.6292 117.919 80.3212 119.104 76.0284L120.113 72.3972C120.875 69.6397 121.626 66.6296 120.517 63.9883C120.071 62.9738 119.392 62.0791 118.536 61.3769C117.68 60.6748 116.67 60.1852 115.589 59.948C113.481 59.5591 111.801 62.357 111.04 64.0742Z" fill="#F5BCBA"/>
<path d="M157.864 87.0382C157.213 88.7907 153.542 86.7453 151.444 87.7958C147.439 89.8159 142.87 87.7402 138.406 87.7958C133.655 87.8816 130.377 92.5684 125.661 93.1643C125.318 93.2351 124.965 93.2351 124.622 93.1643C123.971 92.9724 123.588 92.3209 123.311 91.7098C122.904 90.7671 122.612 89.7784 122.443 88.7655C121.858 85.412 122.443 81.8161 123.069 78.4071C123.593 75.5183 124.116 72.6278 124.637 69.7356C125.242 66.3687 125.853 62.9816 126.468 59.5743C126.827 57.3265 127.332 55.1046 127.981 52.9229C128.102 52.5441 128.228 52.1755 128.364 51.8118C129.538 48.85 130.953 45.9902 132.596 43.2616C133.605 41.5091 134.613 39.7263 136.172 38.398C137.912 36.9284 140.156 36.1961 142.411 35.8426C144.438 35.4599 146.528 35.5813 148.498 36.1961C149.623 36.59 150.047 37.7819 150.939 38.5142C152.071 39.3537 153.081 40.3463 153.94 41.4636C154.813 42.8126 155.437 44.3077 155.781 45.8777C158.943 58.1905 154.369 71.473 157.375 83.8211C157.718 85.2706 158.383 85.6544 157.864 87.0382Z" fill="#68E1FD"/>
<path d="M153.567 43.7868L153.96 46.3675L152.447 45.5241V52.3623L150.722 44.7666L152.392 42.3323L153.567 43.7868Z" fill="url(#paint7_linear_6_52)"/>
<path d="M140.756 43.6201L141.71 44.1252L143.223 45.4433L139.188 56.2814C139.188 56.2814 145.048 47.2513 145.24 42.6454C145.359 39.8122 145.006 36.979 144.196 34.2618L140.756 43.6201Z" fill="url(#paint8_linear_6_52)"/>
<path d="M127.835 74.685C127.514 77.1662 127.514 79.6784 127.835 82.1596C128.041 83.7201 128.374 85.2756 128.268 86.8413C128.273 87.1472 128.176 87.4459 127.991 87.6897C127.754 87.8826 127.463 87.9973 127.159 88.018C125.582 88.2672 124.003 88.5214 122.423 88.7806C121.838 85.4272 122.423 81.8313 123.048 78.4223C123.573 75.5335 124.096 72.643 124.617 69.7508C125.222 66.3839 125.832 62.9968 126.448 59.5894C126.807 57.3416 127.312 55.1198 127.961 52.9381C128.082 52.5593 128.208 52.1906 128.344 51.827C129.908 50.9583 132.081 50.3119 133.05 51.7159C134.058 53.231 132.732 56.7663 132.339 58.2814C130.906 63.7711 128.556 69.0185 127.835 74.685Z" fill="url(#paint9_linear_6_52)"/>
<path d="M164.113 30.8982C164.165 31.5262 164.147 32.1582 164.057 32.782C164.006 33.093 163.851 33.3774 163.618 33.5885C163.384 33.7996 163.086 33.9248 162.771 33.9436C161.198 33.8274 160.063 35.3375 158.812 36.3072C157.831 37.0435 156.666 37.4948 155.445 37.6115C154.224 37.7282 152.995 37.5058 151.892 36.9688C151.673 36.8899 151.432 36.8983 151.219 36.9923C151.006 37.0863 150.837 37.2587 150.748 37.4738C150.59 37.9193 150.555 38.399 150.647 38.8627L151.227 44.3878C151.338 45.4534 151.348 46.7564 150.445 47.3321C149.542 47.9079 148.473 47.4079 147.726 46.7564C146.553 45.6264 145.705 44.2013 145.27 42.6302C144.284 39.4472 144.143 36.0619 144.86 32.8075C145.577 29.5531 147.128 26.5418 149.361 24.0701C150.199 23.132 151.181 22.3341 152.271 21.7065C153.411 21.1137 154.636 20.6998 155.902 20.4793C157.035 20.2115 158.206 20.1465 159.362 20.2874C160.914 20.5699 162.325 21.3689 163.366 22.555C164.133 23.3933 164.88 25.8933 165.686 26.3024C165.086 27.8276 164.138 29.176 164.113 30.8982Z" fill="#F5BCBA"/>
<path d="M152.109 9.21189C151.37 9.03868 150.598 9.06131 149.87 9.27755C148.448 9.78258 147.651 11.2724 147.136 12.6916C146.622 14.1108 146.198 15.6612 145.079 16.6662C144.115 17.5349 142.749 17.8834 141.881 18.843C140.872 19.9591 140.776 21.6106 140.872 23.1105C140.872 24.2359 141.189 25.3385 141.785 26.2923C142.32 27.0195 143.142 27.5246 143.561 28.3124C144.035 29.2164 144.196 30.6154 145.215 30.676C145.64 30.6545 146.041 30.4743 146.34 30.171C147.369 29.2796 148.145 28.1314 148.589 26.8428C148.836 26.1256 148.997 25.3276 149.542 24.8226C150.087 24.3176 151.196 24.2873 151.444 25.0044C151.513 25.4607 151.443 25.9273 151.242 26.3428C151.111 26.7872 151.166 27.3882 151.6 27.5397C152.417 26.2771 152.876 24.7923 153.844 23.6459C154.394 23.0011 155.083 22.4908 155.86 22.154C156.637 21.8173 157.48 21.663 158.326 21.7029C159.172 21.7429 159.997 21.9761 160.738 22.3846C161.48 22.7932 162.119 23.3663 162.605 24.06C163.109 24.7822 163.452 25.6408 164.158 26.1559C164.823 26.5617 165.584 26.7847 166.362 26.8024C168.097 26.9741 169.933 27.0397 171.497 26.267C173.06 25.4943 174.215 23.6206 173.615 21.9792C173.141 20.6914 171.789 19.9591 170.478 19.545C169.167 19.1308 167.764 18.9238 166.609 18.1864C165.041 17.1763 164.204 15.3784 163.291 13.7471C162.378 12.1159 161.142 10.4391 159.317 10.0553C158.571 9.93914 157.812 9.93914 157.067 10.0553C156.34 10.2098 155.595 10.2675 154.853 10.227C153.945 10.0402 153.068 9.42401 152.109 9.21189Z" fill="#2E2E3F"/>
<path d="M152.109 50.7108C153.261 56.5533 153.601 62.5273 153.118 68.4629C152.72 73.4022 151.771 78.3061 151.807 83.2605C151.881 84.6538 151.839 86.0509 151.681 87.4372C151.459 88.8109 142.259 88.2856 140.918 88.2705C138.658 88.2402 141.523 91.3007 139.823 89.826C137.155 87.4978 135.965 83.8666 135.637 80.3414C135.168 75.3163 136.197 70.2861 137.317 65.362C138.093 61.953 138.92 58.5339 140.312 55.3269C142.037 51.3623 144.766 46.317 145.644 42.0797C145.77 41.4585 143.626 39.201 144.549 39.2313C145.149 39.2313 144.867 40.1656 144.973 40.6303C145.162 41.3378 145.524 41.987 146.027 42.5191C146.73 43.3417 147.683 43.911 148.74 44.1403C149.421 44.2665 150.198 44.2362 150.692 44.7211C151.292 45.3069 151.196 46.4483 151.368 47.2463C151.615 48.3877 151.877 49.5442 152.109 50.7108Z" fill="#F2F2F2"/>
<path d="M131.688 35.686C129.247 36.8071 127.149 38.5445 125.167 40.3626C123.526 41.843 121.977 43.4216 120.527 45.0898C119.246 46.6049 118.075 48.1755 116.724 49.6048C114.858 51.5694 112.528 53.4683 112.159 56.1703C112.047 57.5792 112.293 58.9938 112.876 60.2813C113.356 61.5959 114.064 62.815 114.969 63.8822C116.116 65.1535 117.63 66.0359 119.301 66.4074C119.825 66.5441 120.371 66.5682 120.905 66.4781C121.656 66.2639 122.347 65.8765 122.922 65.3468C124.237 64.3506 125.482 63.2656 126.649 62.0994C127.84 60.8621 128.848 59.453 130.008 58.1854C131.017 57.0945 132.091 56.1097 133.1 55.039C134.306 53.7562 135.38 52.3572 136.454 50.9583C137.974 49.0608 139.368 47.0649 140.625 44.9837C141.676 43.147 142.51 41.1946 143.112 39.1657C143.5 37.8425 144.12 36.1657 142.779 35.2112C139.929 33.2012 134.527 34.3577 131.688 35.686Z" fill="#68E1FD"/>
<path d="M131.688 35.686C129.247 36.8071 127.149 38.5445 125.167 40.3626C123.526 41.843 121.977 43.4216 120.527 45.0898C119.246 46.6049 118.075 48.1755 116.724 49.6048C114.858 51.5694 112.528 53.4683 112.159 56.1703C112.047 57.5792 112.293 58.9938 112.876 60.2813C113.356 61.5959 114.064 62.815 114.969 63.8822C116.116 65.1535 117.63 66.0359 119.301 66.4074C119.825 66.5441 120.371 66.5682 120.905 66.4781C121.656 66.2639 122.347 65.8765 122.922 65.3468C124.237 64.3506 125.482 63.2656 126.649 62.0994C127.84 60.8621 128.848 59.453 130.008 58.1854C131.017 57.0945 132.091 56.1097 133.1 55.039C134.306 53.7562 135.38 52.3572 136.454 50.9583C137.974 49.0608 139.368 47.0649 140.625 44.9837C141.676 43.147 142.51 41.1946 143.112 39.1657C143.5 37.8425 144.12 36.1657 142.779 35.2112C139.929 33.2012 134.527 34.3577 131.688 35.686Z" fill="#68E1FD"/>
<path d="M173.968 58.746C173.423 59.091 173.033 59.6351 172.881 60.263C172.73 60.8909 172.828 61.5532 173.156 62.1096C174.003 63.5845 175.138 64.8729 176.495 65.8974C177.302 66.766 179.117 66.9074 180.731 65.958C182.345 65.0085 190.047 60.8116 193.895 58.0693C194.177 57.875 194.417 57.6251 194.6 57.3349C194.782 57.0447 194.904 56.7203 194.957 56.3814C195.011 56.0426 194.995 55.6964 194.91 55.364C194.825 55.0316 194.674 54.72 194.465 54.4482L191.242 50.4079C190.86 49.9297 190.315 49.6096 189.712 49.5089C189.109 49.4083 188.49 49.5341 187.974 49.8624L173.968 58.746Z" fill="#3D3D54"/>
<path d="M122.781 102.275C123.35 104.367 124.36 106.313 125.742 107.982C127.255 109.75 129.313 111.012 131.29 112.214L139.616 117.29C140.838 117.993 142.006 118.785 143.112 119.659C145.84 121.911 147.651 125.052 149.411 128.123L161.556 149.319C162.171 150.405 163.034 151.633 164.279 151.592C164.95 151.505 165.581 151.224 166.095 150.784C167.653 149.688 169.328 148.441 169.792 146.587C170.115 145.294 169.792 143.936 169.404 142.653C167.537 136.335 164.612 130.386 161.677 124.472C157.013 115.112 152.281 105.77 147.479 96.4471C146.203 93.9724 144.655 90.1189 142.547 88.3008C142.547 88.3008 122.958 87.1089 122.463 89.0533C121.363 93.4071 121.472 97.9795 122.781 102.275Z" fill="#525263"/>
<path d="M122.781 102.275C123.35 104.367 124.36 106.313 125.742 107.982C127.255 109.75 129.313 111.012 131.29 112.214L139.616 117.29C140.838 117.993 142.006 118.785 143.112 119.659C145.84 121.911 147.651 125.052 149.411 128.123L161.556 149.319C162.171 150.405 163.034 151.633 164.279 151.592C164.95 151.505 165.581 151.224 166.095 150.784C167.653 149.688 169.328 148.441 169.792 146.587C170.115 145.294 169.792 143.936 169.404 142.653C167.537 136.335 164.612 130.386 161.677 124.472C157.013 115.112 152.281 105.77 147.479 96.4471C146.203 93.9724 144.655 90.1189 142.547 88.3008C142.547 88.3008 122.958 87.1089 122.463 89.0533C121.363 93.4071 121.472 97.9795 122.781 102.275Z" fill="url(#paint10_linear_6_52)"/>
<path d="M144.811 32.9183L142.042 34.0143L140.363 43.4231L145.946 43.1706L144.811 32.9183Z" fill="#68E1FD"/>
<path d="M150.672 42.9434C150.672 43.3676 150.672 43.7918 150.672 44.2161C150.672 44.4 150.682 44.5838 150.702 44.7666C150.732 44.9522 150.773 45.1359 150.823 45.3171L151.519 48.0645L151.807 43.5999C152.629 43.9989 153.471 44.3625 154.328 44.6807C154.264 44.0116 154.093 43.357 153.824 42.7414C153.32 41.4485 152.856 40.1505 152.311 38.8829C152.184 38.5443 151.999 38.23 151.766 37.9536C151.649 37.8165 151.501 37.7087 151.335 37.6386C151.168 37.5685 150.988 37.538 150.808 37.5496C150.304 37.7617 150.621 39.6556 150.626 40.0748L150.672 42.9434Z" fill="#68E1FD"/>
<path d="M191.474 56.5339L181.226 63.0237C181.046 63.1208 180.839 63.1536 180.638 63.1169C180.437 63.0802 180.255 62.9761 180.121 62.8217L176.863 59.145C176.796 59.0824 176.744 59.0053 176.711 58.9197C176.678 58.8341 176.665 58.7421 176.673 58.6506C176.681 58.5592 176.709 58.4707 176.756 58.3919C176.803 58.3131 176.867 58.2459 176.944 58.1955L187.212 51.7108C187.392 51.6138 187.599 51.5809 187.8 51.6176C188.001 51.6543 188.183 51.7585 188.317 51.9129L191.575 55.5845C191.641 55.6485 191.692 55.7268 191.723 55.8133C191.754 55.8998 191.765 55.9923 191.756 56.0838C191.746 56.1753 191.715 56.2634 191.667 56.3414C191.618 56.4194 191.552 56.4852 191.474 56.5339Z" fill="#68E1FD"/>
</g>
<defs>
<linearGradient id="paint0_linear_6_52" x1="145.876" y1="60.2005" x2="166.574" y2="59.8832" gradientUnits="userSpaceOnUse">
<stop offset="0.01"/>
<stop offset="0.13" stop-opacity="0.69"/>
<stop offset="1" stop-opacity="0"/>
</linearGradient>
<linearGradient id="paint1_linear_6_52" x1="208.632" y1="40.0394" x2="50.925" y2="204.544" gradientUnits="userSpaceOnUse">
<stop offset="0.01"/>
<stop offset="0.13" stop-opacity="0.69"/>
<stop offset="1" stop-opacity="0"/>
</linearGradient>
<linearGradient id="paint2_linear_6_52" x1="166.539" y1="101.73" x2="121.27" y2="148.955" gradientUnits="userSpaceOnUse">
<stop offset="0.01"/>
<stop offset="0.13" stop-opacity="0.69"/>
<stop offset="1" stop-opacity="0"/>
</linearGradient>
<linearGradient id="paint3_linear_6_52" x1="100.655" y1="94.8158" x2="161.794" y2="133.058" gradientUnits="userSpaceOnUse">
<stop offset="0.01"/>
<stop offset="0.13" stop-opacity="0.69"/>
<stop offset="1" stop-opacity="0"/>
</linearGradient>
<linearGradient id="paint4_linear_6_52" x1="129.66" y1="115.704" x2="177.221" y2="115.704" gradientUnits="userSpaceOnUse">
<stop offset="0.01"/>
<stop offset="0.13" stop-opacity="0.69"/>
<stop offset="1" stop-opacity="0"/>
</linearGradient>
<linearGradient id="paint5_linear_6_52" x1="172.455" y1="160.844" x2="159.365" y2="157.489" gradientUnits="userSpaceOnUse">
<stop offset="0.01"/>
<stop offset="0.13" stop-opacity="0.69"/>
<stop offset="1" stop-opacity="0"/>
</linearGradient>
<linearGradient id="paint6_linear_6_52" x1="166.801" y1="166.521" x2="180.368" y2="166.521" gradientUnits="userSpaceOnUse">
<stop offset="0.01"/>
<stop offset="0.13" stop-opacity="0.69"/>
<stop offset="1" stop-opacity="0"/>
</linearGradient>
<linearGradient id="paint7_linear_6_52" x1="144.726" y1="40.9333" x2="158.727" y2="52.5659" gradientUnits="userSpaceOnUse">
<stop offset="0.01"/>
<stop offset="0.13" stop-opacity="0.69"/>
<stop offset="1" stop-opacity="0"/>
</linearGradient>
<linearGradient id="paint8_linear_6_52" x1="153.935" y1="40.4232" x2="128.077" y2="50.6515" gradientUnits="userSpaceOnUse">
<stop offset="0.01"/>
<stop offset="0.13" stop-opacity="0.69"/>
<stop offset="1" stop-opacity="0"/>
</linearGradient>
<linearGradient id="paint9_linear_6_52" x1="110.334" y1="70.4124" x2="142.36" y2="69.3043" gradientUnits="userSpaceOnUse">
<stop offset="0.01"/>
<stop offset="0.13" stop-opacity="0.69"/>
<stop offset="1" stop-opacity="0"/>
</linearGradient>
<linearGradient id="paint10_linear_6_52" x1="137.095" y1="122.931" x2="173.029" y2="107.84" gradientUnits="userSpaceOnUse">
<stop offset="0.01"/>
<stop offset="0.13" stop-opacity="0.69"/>
<stop offset="1" stop-opacity="0"/>
</linearGradient>
<clipPath id="clip0_6_52">
<rect width="265" height="200" fill="white"/>
</clipPath>
</defs>
</svg>
