<svg width="65" height="65" viewBox="0 0 65 65" fill="none" xmlns="http://www.w3.org/2000/svg">
<path d="M6.77081 25.7292H58.2291V51.4583H6.77081V25.7292Z" fill="#CFD8DC"/>
<path d="M6.77081 51.4583H58.2291V56.875H6.77081V51.4583Z" fill="#B0BEC5"/>
<path d="M36.5625 32.5H52.8125V56.875H36.5625V32.5Z" fill="#455A64"/>
<path d="M12.1875 32.5H31.1458V47.3958H12.1875V32.5Z" fill="#E3F2FD"/>
<path d="M13.5417 33.8542H29.7917V46.0417H13.5417V33.8542Z" fill="#1E88E5"/>
<path d="M49.4271 45.3646C49.0208 45.3646 48.75 45.6354 48.75 46.0417V48.75C48.75 49.1563 49.0208 49.4271 49.4271 49.4271C49.8333 49.4271 50.1042 49.1563 50.1042 48.75V46.0417C50.1042 45.6354 49.8333 45.3646 49.4271 45.3646Z" fill="#90A4AE"/>
<path d="M32.5 29.7917C34.7437 29.7917 36.5625 27.9728 36.5625 25.7292C36.5625 23.4855 34.7437 21.6667 32.5 21.6667C30.2563 21.6667 28.4375 23.4855 28.4375 25.7292C28.4375 27.9728 30.2563 29.7917 32.5 29.7917Z" fill="#558B2F"/>
<path d="M48.75 29.7917C50.9937 29.7917 52.8125 27.9728 52.8125 25.7292C52.8125 23.4855 50.9937 21.6667 48.75 21.6667C46.5063 21.6667 44.6875 23.4855 44.6875 25.7292C44.6875 27.9728 46.5063 29.7917 48.75 29.7917Z" fill="#558B2F"/>
<path d="M16.25 29.7917C18.4937 29.7917 20.3125 27.9728 20.3125 25.7292C20.3125 23.4855 18.4937 21.6667 16.25 21.6667C14.0063 21.6667 12.1875 23.4855 12.1875 25.7292C12.1875 27.9728 14.0063 29.7917 16.25 29.7917Z" fill="#558B2F"/>
<path d="M54.1667 8.125H10.8333C9.34375 8.125 8.125 9.34375 8.125 10.8333V14.8958H56.875V10.8333C56.875 9.34375 55.6562 8.125 54.1667 8.125ZM28.4375 14.8958H36.5625V25.7292H28.4375V14.8958ZM50.1042 14.8958H43.3333L44.6875 25.7292H52.8125L50.1042 14.8958ZM14.8958 14.8958H21.6667L20.3125 25.7292H12.1875L14.8958 14.8958Z" fill="#70CC40"/>
<path d="M40.625 29.7917C42.8687 29.7917 44.6875 27.9728 44.6875 25.7292C44.6875 23.4855 42.8687 21.6667 40.625 21.6667C38.3813 21.6667 36.5625 23.4855 36.5625 25.7292C36.5625 27.9728 38.3813 29.7917 40.625 29.7917Z" fill="#093F68"/>
<path d="M60.9375 25.7292C60.9375 28.0312 59.1771 29.7917 56.875 29.7917C54.5729 29.7917 52.8125 28.0312 52.8125 25.7292C52.8125 23.4271 54.5729 21.6667 56.875 21.6667L60.9375 25.7292Z" fill="#093F68"/>
<path d="M24.375 29.7917C26.6187 29.7917 28.4375 27.9728 28.4375 25.7292C28.4375 23.4855 26.6187 21.6667 24.375 21.6667C22.1313 21.6667 20.3125 23.4855 20.3125 25.7292C20.3125 27.9728 22.1313 29.7917 24.375 29.7917Z" fill="#093F68"/>
<path d="M4.0625 25.7292C4.0625 28.0312 5.82292 29.7917 8.125 29.7917C10.4271 29.7917 12.1875 28.0312 12.1875 25.7292C12.1875 23.4271 10.4271 21.6667 8.125 21.6667L4.0625 25.7292Z" fill="#093F68"/>
<path d="M43.3333 14.8958H36.5625V25.7292H44.6875L43.3333 14.8958ZM56.875 14.8958H50.1042L52.8125 25.7292H60.9375L56.875 14.8958ZM21.6667 14.8958H28.4375V25.7292H20.3125L21.6667 14.8958ZM8.125 14.8958H14.8958L12.1875 25.7292H4.0625L8.125 14.8958Z" fill="#093F68"/>
</svg>
