<svg width="68" height="62" viewBox="0 0 68 62" fill="none" xmlns="http://www.w3.org/2000/svg">
<g filter="url(#filter0_d_87_176)">
<path opacity="0.42" d="M13.0591 4.28747C22.7739 -2.11942 36.6922 -1.26084 45.546 6.29353C47.6275 8.06871 49.4422 10.1606 51.6722 11.7467C53.6086 13.1228 55.8328 14.0974 57.5987 15.6857C61.2326 18.953 62.3081 24.2959 61.8313 29.1585C61.0052 37.5866 55.9291 45.4902 48.6045 49.7448C39.9966 54.7478 28.9696 54.5331 19.8222 50.6046C17.4715 49.5951 15.1963 48.3432 13.3074 46.6191C6.54084 40.4501 7.83684 31.7285 4.91185 23.9363C2.03676 16.2415 6.41205 8.66624 13.0591 4.28747V4.28747Z" fill="#68E1FD"/>
<path d="M62.5402 34.1511L46.255 43.6349C45.3013 44.1907 43.7419 44.1918 42.7742 43.6349L15.4214 27.9716C14.4526 27.417 14.4421 26.5166 15.3959 25.9609L31.6811 16.4828C32.636 15.927 34.1942 15.9259 35.1619 16.4828L62.5147 32.1462C63.4835 32.695 63.4951 33.5953 62.5402 34.1511Z" fill="#68E1FD"/>
<path d="M63.2909 33.1382L47.0068 42.6162C46.0519 43.172 44.4926 43.1732 43.5261 42.6162L16.1732 26.9529C15.2044 26.3983 15.1928 25.498 16.1477 24.9422L32.4353 15.463C33.3902 14.9072 34.9495 14.9061 35.916 15.463L63.2688 31.1263C64.2342 31.6844 64.2458 32.5824 63.2909 33.1382Z" fill="#68E1FD"/>
<path d="M62.698 33.4839L46.414 42.962C45.4591 43.5178 43.8997 43.5189 42.9332 42.962L15.5804 27.2987C14.6116 26.7441 14.6011 25.8437 15.556 25.288L31.8401 15.8099C32.795 15.2541 34.3543 15.253 35.3208 15.8099L62.6737 31.4732C63.6459 32.0325 63.6529 32.9282 62.698 33.4839Z" fill="#68E1FD"/>
<path opacity="0.58" d="M62.698 33.4828L46.4128 42.962C46.2912 43.0319 46.1644 43.092 46.0334 43.1418C45.0843 43.5096 43.7801 43.4493 42.9308 42.9643L15.578 27.301C14.6104 26.7475 14.5988 25.8472 15.5525 25.2914L23.014 20.9498L31.8319 15.8134C32.7856 15.2576 34.345 15.2565 35.3127 15.8134L62.6643 31.4767C63.6459 32.0325 63.6529 32.9282 62.698 33.4828Z" fill="url(#paint0_linear_87_176)"/>
<path opacity="0.58" d="M30.6183 16.5466L61.5714 34.0397L56.0834 37.242L25.3264 19.5517L30.6183 16.5466Z" fill="url(#paint1_linear_87_176)"/>
<path opacity="0.58" d="M53.4949 38.799L46.0334 43.1418C45.0843 43.5096 43.7801 43.4493 42.9308 42.9643L15.578 27.301C14.6104 26.7475 14.5988 25.8472 15.5525 25.2914L23.014 20.9498C23.962 20.582 25.2672 20.6423 26.1165 21.1273L53.4694 36.7895C54.437 37.3441 54.4486 38.2444 53.4949 38.799Z" fill="url(#paint2_linear_87_176)"/>
<path d="M35.9067 22.9176L32.4028 24.955C31.8737 25.2636 31.0105 25.2636 30.4721 24.955L26.1792 22.4964C25.642 22.1889 25.6362 21.6842 26.1653 21.3814L29.6692 19.3417C30.1983 19.0342 31.0615 19.0331 31.5999 19.3417L35.8928 21.8003C36.43 22.1112 36.4358 22.6101 35.9067 22.9176Z" fill="#FDB523"/>
<path d="M33.6431 24.2124L33.063 24.5465L31.275 23.5209C30.972 23.6366 30.6438 23.6702 30.3236 23.6183L30.2378 23.6021L30.1705 23.565C30.0208 23.4837 28.6912 22.7644 28.3895 22.5428C28.0693 22.3107 28.2352 21.9627 28.3895 21.7492L26.9636 20.937L27.5437 20.6028L29.4001 21.6668L29.2458 21.8223C29.081 21.9951 28.994 22.2075 29.0392 22.2585C29.2237 22.3943 30.0579 22.8595 30.6323 23.1716C30.7536 23.1612 30.8696 23.1174 30.9676 23.0452L31.2518 22.8456L33.6431 24.2124Z" fill="#EFA92B"/>
<path d="M34.7151 23.587L35.2952 23.2528L33.5038 22.2272C33.7521 22.0114 33.7359 21.7921 33.6651 21.6772L33.6361 21.6273L33.5734 21.5891C33.4307 21.5032 32.173 20.7421 31.7878 20.5692C31.3783 20.3859 30.7761 20.4845 30.4129 20.5692L28.987 19.757L28.4069 20.0912L30.2633 21.1551L30.5336 21.0681C30.8329 20.9718 31.1996 20.9196 31.2889 20.9451C31.521 21.0507 32.3331 21.5252 32.8819 21.8571C32.8738 21.8977 32.8355 21.9731 32.6661 22.052L32.3239 22.2179L34.7151 23.587Z" fill="#EFA92B"/>
<path d="M34.2766 23.8678L34.1548 23.9386L27.9312 20.3731L28.0519 20.3024L34.2766 23.8678Z" fill="#EFA92B"/>
<path d="M32.3749 24.9747L32.2531 25.0443L26.0295 21.48L26.1514 21.4092L32.3749 24.9747Z" fill="#EFA92B"/>
<path d="M36.1771 22.7609L36.0564 22.8317L29.8317 19.2663L29.9535 19.1955L36.1771 22.7609Z" fill="#EFA92B"/>
<path d="M38.6229 24.9955L38.3988 24.8682C38.4235 24.8491 38.4408 24.8295 38.4506 24.8093C38.4607 24.7889 38.4638 24.7684 38.46 24.7479C38.4561 24.7274 38.4455 24.7073 38.428 24.6877C38.4109 24.6682 38.3874 24.65 38.3573 24.6329C38.3031 24.6021 38.2425 24.583 38.1754 24.5757C38.1087 24.5683 38.0389 24.573 37.9658 24.59C37.8931 24.6068 37.8206 24.6362 37.7484 24.6782C37.6741 24.7213 37.6228 24.7639 37.5945 24.8059C37.5664 24.8481 37.5597 24.8881 37.5741 24.9259C37.5886 24.9638 37.6223 24.9977 37.6751 25.0278C37.7048 25.0446 37.7362 25.058 37.7692 25.0678C37.8026 25.0778 37.8366 25.0841 37.8713 25.0866C37.9064 25.089 37.9412 25.0875 37.9759 25.0823C38.0109 25.0772 38.0449 25.0681 38.0778 25.0548L38.3009 25.1827C38.2473 25.2072 38.1867 25.2258 38.119 25.2385C38.0521 25.2511 37.9817 25.2565 37.9079 25.2548C37.8348 25.253 37.7612 25.2428 37.6873 25.2242C37.6141 25.2056 37.5439 25.1772 37.4767 25.139C37.3833 25.0859 37.3207 25.0262 37.2891 24.9599C37.2578 24.8938 37.2607 24.8254 37.2978 24.7549C37.3352 24.6845 37.4105 24.6164 37.5238 24.5505C37.6374 24.4845 37.7556 24.4405 37.8782 24.4186C38.0009 24.3967 38.1199 24.3945 38.2353 24.4121C38.3511 24.4295 38.455 24.4644 38.5471 24.5167C38.6078 24.5512 38.6556 24.5881 38.6905 24.6274C38.7257 24.667 38.7472 24.7076 38.7548 24.7494C38.7629 24.791 38.7561 24.8326 38.7345 24.8741C38.7133 24.9159 38.6761 24.9563 38.6229 24.9955ZM38.1047 25.4794L39.1465 24.8737L39.5599 25.1086C39.639 25.1535 39.6925 25.2001 39.7203 25.2482C39.7488 25.2964 39.7521 25.3437 39.7302 25.3901C39.709 25.4366 39.664 25.4798 39.5951 25.5198C39.5259 25.56 39.4514 25.5861 39.3715 25.5981C39.292 25.6098 39.2105 25.6072 39.1271 25.5902C39.044 25.5734 38.9623 25.5421 38.8818 25.4964L38.605 25.3391L38.782 25.2362L39.023 25.3731C39.0653 25.3971 39.1062 25.4137 39.1457 25.4229C39.1852 25.4321 39.2233 25.4339 39.26 25.4282C39.297 25.4228 39.3327 25.4101 39.3669 25.3902C39.4015 25.3701 39.4237 25.3491 39.4335 25.3274C39.4436 25.3058 39.4405 25.2835 39.4244 25.2603C39.409 25.2371 39.38 25.2134 39.3374 25.1892L39.188 25.1043L38.3262 25.6053L38.1047 25.4794ZM39.1447 25.5253L38.9309 25.9489L38.6864 25.8099L38.9057 25.3895L39.1447 25.5253ZM39.0502 26.0166L40.092 25.4109L40.7981 25.8121L40.6164 25.9177L40.1319 25.6424L39.8837 25.7867L40.3319 26.0414L40.1503 26.1469L39.7021 25.8923L39.4533 26.0369L39.9399 26.3134L39.7583 26.419L39.0502 26.0166ZM40.3038 26.7289L39.9323 26.5179L40.9742 25.9121L41.3487 26.1249C41.4541 26.1848 41.524 26.2485 41.5583 26.316C41.593 26.3832 41.592 26.4511 41.5552 26.5195C41.5188 26.5881 41.4466 26.6538 41.3384 26.7167C41.2298 26.7798 41.1159 26.8223 40.9967 26.8442C40.8777 26.8663 40.759 26.8677 40.6406 26.8483C40.5225 26.8292 40.4102 26.7894 40.3038 26.7289ZM40.3426 26.534L40.4833 26.614C40.5488 26.6512 40.6154 26.6758 40.6831 26.6877C40.7516 26.6997 40.8215 26.6979 40.8928 26.6823C40.9648 26.6667 41.0397 26.6363 41.1173 26.5912C41.1943 26.5464 41.2458 26.5033 41.2718 26.462C41.2981 26.4208 41.3005 26.3808 41.2789 26.342C41.2572 26.3032 41.2137 26.2652 41.1482 26.228L41.007 26.1477L40.3426 26.534ZM42.2439 26.6336L41.2021 27.2393L40.9805 27.1134L42.0224 26.5077L42.2439 26.6336ZM42.2047 26.8201L42.3863 26.7145L43.2468 27.2034L43.0652 27.309L42.7444 27.1267L41.8842 27.6269L41.6652 27.5025L42.5255 27.0023L42.2047 26.8201ZM44.2818 28.2108L44.0577 28.0834C44.0824 28.0643 44.0997 28.0447 44.1094 28.0245C44.1195 28.0041 44.1227 27.9837 44.1188 27.9632C44.115 27.9427 44.1043 27.9226 44.0869 27.9029C44.0698 27.8835 44.0462 27.8652 44.0162 27.8482C43.962 27.8174 43.9013 27.7983 43.8343 27.791C43.7676 27.7835 43.6977 27.7883 43.6247 27.8052C43.552 27.822 43.4795 27.8514 43.4073 27.8934C43.333 27.9366 43.2817 27.9792 43.2533 28.0212C43.2253 28.0633 43.2185 28.1033 43.233 28.1412C43.2475 28.179 43.2811 28.213 43.334 28.243C43.3637 28.2599 43.395 28.2732 43.4281 28.283C43.4615 28.293 43.4955 28.2993 43.5302 28.3019C43.5653 28.3042 43.6001 28.3028 43.6348 28.2975C43.6698 28.2925 43.7038 28.2833 43.7367 28.2701L43.9598 28.398C43.9061 28.4225 43.8455 28.4411 43.7779 28.4537C43.711 28.4664 43.6406 28.4718 43.5668 28.47C43.4936 28.4682 43.4201 28.458 43.3462 28.4394C43.273 28.4208 43.2028 28.3925 43.1356 28.3543C43.0421 28.3012 42.9796 28.2415 42.948 28.1752C42.9167 28.109 42.9196 28.0407 42.9566 27.9701C42.9941 27.8998 43.0694 27.8317 43.1827 27.7658C43.2963 27.6998 43.4144 27.6558 43.5371 27.6338C43.6598 27.6119 43.7788 27.6098 43.8942 27.6274C44.0099 27.6448 44.1138 27.6797 44.2059 27.732C44.2666 27.7665 44.3144 27.8034 44.3493 27.8427C44.3846 27.8822 44.406 27.9229 44.4137 27.9647C44.4217 28.0063 44.415 28.0478 44.3934 28.0894C44.3722 28.1311 44.335 28.1716 44.2818 28.2108ZM43.9244 28.7861L43.687 28.6512L45.0906 28.251L45.3761 28.4132L44.6955 29.2242L44.4581 29.0893L44.9994 28.4729L44.9912 28.4682L43.9244 28.7861ZM44.3191 28.5396L44.8799 28.8582L44.7079 28.9582L44.1472 28.6396L44.3191 28.5396ZM44.8216 29.2958L45.8634 28.6901L46.2768 28.925C46.356 28.97 46.4094 29.0165 46.4372 29.0647C46.4657 29.1128 46.469 29.1601 46.4471 29.2065C46.4259 29.253 46.3809 29.2962 46.312 29.3362C46.2428 29.3765 46.1683 29.4025 46.0884 29.4145C46.0089 29.4262 45.9274 29.4236 45.844 29.4066C45.761 29.3898 45.6792 29.3585 45.5987 29.3128L45.3219 29.1555L45.4989 29.0526L45.7399 29.1895C45.7822 29.2136 45.8231 29.2302 45.8626 29.2394C45.9021 29.2485 45.9402 29.2503 45.9769 29.2447C46.0139 29.2392 46.0496 29.2265 46.0838 29.2066C46.1184 29.1865 46.1406 29.1656 46.1504 29.1438C46.1605 29.1222 46.1575 29.0999 46.1414 29.0767C46.1259 29.0535 46.0969 29.0298 46.0543 29.0056L45.9049 28.9207L45.0431 29.4217L44.8216 29.2958ZM45.8616 29.3417L45.6479 29.7653L45.4033 29.6264L45.6226 29.206L45.8616 29.3417ZM46.1385 30.0441L45.7671 29.8331L46.8089 29.2273L47.1834 29.4401C47.2888 29.5 47.3587 29.5637 47.393 29.6312C47.4277 29.6984 47.4267 29.7663 47.39 29.8347C47.3536 29.9033 47.2813 29.969 47.1731 30.0319C47.0646 30.095 46.9507 30.1375 46.8314 30.1594C46.7125 30.1815 46.5938 30.1829 46.4753 30.1635C46.3572 30.1444 46.2449 30.1046 46.1385 30.0441ZM46.1773 29.8492L46.318 29.9291C46.3835 29.9664 46.4501 29.9909 46.5179 30.0029C46.5863 30.0149 46.6562 30.0131 46.7275 29.9975C46.7996 29.9819 46.8744 29.9515 46.9521 29.9063C47.0291 29.8616 47.0806 29.8185 47.1065 29.7771C47.1329 29.736 47.1352 29.696 47.1136 29.6572C47.092 29.6184 47.0484 29.5804 46.9829 29.5432L46.8417 29.4629L46.1773 29.8492Z" fill="#68E1FD"/>
<path d="M31.8435 32.9131L18.4879 25.2021C18.1921 25.0316 18.2292 24.738 18.5703 24.535C18.9114 24.3377 19.4289 24.3168 19.7247 24.4874L33.0804 32.1984C33.3762 32.369 33.3391 32.6625 32.9968 32.8644C32.6557 33.0616 32.1394 33.0837 31.8435 32.9131Z" fill="#68E1FD"/>
<path d="M51.8474 33.5408L35.5679 43.0177C34.6131 43.5734 33.0537 43.5746 32.0872 43.0177L4.73319 27.3543C3.76555 26.7997 3.75395 25.8994 4.70883 25.3436L20.9929 15.8656C21.9478 15.3098 23.5072 15.3086 24.4736 15.8656L51.8265 31.5289C52.7906 32.0835 52.8023 32.9839 51.8474 33.5408Z" fill="#68E1FD"/>
<path d="M52.0052 32.8725L35.7211 42.3506C34.7662 42.9063 33.2069 42.9063 32.2404 42.3506L4.88753 26.6872C3.91873 26.1326 3.90713 25.2323 4.86201 24.6765L21.1449 15.1973C22.0998 14.6415 23.6592 14.6404 24.6257 15.1973L51.9785 30.8606C52.9496 31.4164 52.9601 32.3167 52.0052 32.8725Z" fill="#68E1FD"/>
<path opacity="0.58" d="M52.0063 32.8713L35.7211 42.3494C35.5997 42.4199 35.4728 42.4804 35.3417 42.5304C34.3926 42.8982 33.0873 42.8379 32.238 42.3529L4.88517 26.6895C3.91753 26.1349 3.90592 25.2357 4.86081 24.68L12.3212 20.3383L21.1449 15.2019C22.0998 14.6462 23.658 14.645 24.6256 15.2019L51.9785 30.8653C52.9484 31.4164 52.96 32.3156 52.0063 32.8713Z" fill="url(#paint3_linear_87_176)"/>
<path opacity="0.58" d="M42.8021 38.1876L35.3417 42.5304C34.3926 42.8982 33.0873 42.8378 32.238 42.3529L4.88517 26.6895C3.91753 26.1349 3.90592 25.2357 4.86081 24.68L12.3212 20.3383C13.2703 19.9705 14.5744 20.0309 15.4237 20.5158L42.7765 36.1792C43.7442 36.7326 43.7558 37.633 42.8021 38.1876Z" fill="url(#paint4_linear_87_176)"/>
<path d="M25.2139 22.3061L21.7111 24.3458C21.182 24.6533 20.3188 24.6545 19.7793 24.3458L15.4864 21.8873C14.9492 21.5787 14.9422 21.0751 15.4725 20.7723L18.9764 18.7337C19.5066 18.4251 20.3687 18.4251 20.9082 18.7337L25.2011 21.1923C25.7372 21.4986 25.7441 21.9987 25.2139 22.3061Z" fill="#FDB523"/>
<path d="M22.9502 23.5998L22.3759 23.9351L20.5856 22.9094C20.2825 23.0244 19.9545 23.058 19.6342 23.0069L19.5472 22.9895L19.4811 22.9535C19.3303 22.8723 18.0018 22.1529 17.7001 21.9313C17.3799 21.6993 17.5446 21.3512 17.7001 21.1377L16.2753 20.3255L16.8497 19.9914L18.706 21.0542L18.5564 21.2108C18.3928 21.3849 18.3058 21.5972 18.3499 21.6482C18.5343 21.784 19.3686 22.2492 19.9429 22.5613C20.0644 22.5504 20.1807 22.5067 20.2793 22.4349L20.5636 22.2353L22.9502 23.5998Z" fill="#EFA92B"/>
<path d="M24.0235 22.9756L24.5978 22.6415L22.8052 21.6158C23.0524 21.3988 23.0373 21.1807 22.9665 21.0658L22.9363 21.016L22.8737 20.9777C22.7321 20.8918 21.4744 20.1307 21.0881 19.9578C20.6785 19.7745 20.0775 19.8731 19.7132 19.9578L18.2872 19.1456L17.7071 19.4798L19.5635 20.5437L19.8327 20.4556C20.132 20.3604 20.4986 20.3082 20.5891 20.3337C20.8212 20.4393 21.6334 20.9138 22.1822 21.2457C22.174 21.2863 22.1358 21.3617 21.9652 21.4406L21.6171 21.6065L24.0235 22.9756Z" fill="#EFA92B"/>
<path d="M23.5837 23.2564L23.4631 23.326L17.2383 19.7617L17.3602 19.6909L23.5837 23.2564Z" fill="#EFA92B"/>
<path d="M21.6821 24.3621L21.5615 24.4329L15.3367 20.8686L15.4586 20.7979L21.6821 24.3621Z" fill="#EFA92B"/>
<path d="M25.4854 22.1495L25.3636 22.2203L19.14 18.6548L19.2618 18.584L25.4854 22.1495Z" fill="#EFA92B"/>
<path d="M27.93 24.3829L27.7059 24.2556C27.7307 24.2365 27.7479 24.2168 27.7577 24.1967C27.7678 24.1763 27.7709 24.1558 27.7671 24.1353C27.7632 24.1148 27.7526 24.0947 27.7351 24.0751C27.718 24.0556 27.6945 24.0374 27.6645 24.0203C27.6102 23.9895 27.5496 23.9704 27.4826 23.9631C27.4159 23.9557 27.346 23.9604 27.2729 23.9774C27.2002 23.9942 27.1278 24.0235 27.0555 24.0655C26.9813 24.1087 26.9299 24.1513 26.9016 24.1933C26.8736 24.2355 26.8668 24.2755 26.8813 24.3133C26.8957 24.3512 26.9294 24.3851 26.9823 24.4152C27.0119 24.432 27.0433 24.4454 27.0763 24.4552C27.1097 24.4652 27.1438 24.4714 27.1785 24.474C27.2135 24.4764 27.2484 24.4749 27.283 24.4697C27.3181 24.4646 27.352 24.4555 27.3849 24.4422L27.608 24.5701C27.5544 24.5946 27.4938 24.6132 27.4262 24.6258C27.3592 24.6385 27.2888 24.6439 27.215 24.6421C27.1419 24.6404 27.0684 24.6302 26.9945 24.6116C26.9213 24.593 26.851 24.5646 26.7839 24.5264C26.6904 24.4733 26.6279 24.4136 26.5962 24.3473C26.565 24.2812 26.5679 24.2128 26.6049 24.1423C26.6423 24.0719 26.7177 24.0038 26.8309 23.9379C26.9445 23.8719 27.0627 23.8279 27.1854 23.806C27.308 23.7841 27.4271 23.7819 27.5425 23.7995C27.6582 23.8169 27.7621 23.8518 27.8542 23.9041C27.9149 23.9386 27.9627 23.9755 27.9976 24.0148C28.0328 24.0543 28.0543 24.095 28.062 24.1368C28.07 24.1784 28.0632 24.22 28.0417 24.2615C28.0205 24.3033 27.9832 24.3437 27.93 24.3829ZM27.4118 24.8668L28.4536 24.2611L28.867 24.496C28.9462 24.5409 28.9996 24.5875 29.0274 24.6356C29.0559 24.6838 29.0592 24.7311 29.0373 24.7775C29.0161 24.824 28.9711 24.8672 28.9022 24.9072C28.8331 24.9474 28.7585 24.9735 28.6787 24.9854C28.5991 24.9972 28.5177 24.9945 28.4342 24.9776C28.3512 24.9608 28.2694 24.9295 28.1889 24.8838L27.9121 24.7265L28.0891 24.6236L28.3301 24.7605C28.3724 24.7845 28.4133 24.8011 28.4528 24.8103C28.4923 24.8195 28.5304 24.8213 28.5671 24.8156C28.6042 24.8102 28.6398 24.7975 28.6741 24.7776C28.7087 24.7574 28.7308 24.7365 28.7406 24.7148C28.7507 24.6932 28.7477 24.6708 28.7316 24.6477C28.7162 24.6245 28.6871 24.6008 28.6445 24.5765L28.4951 24.4917L27.6333 24.9927L27.4118 24.8668ZM28.4518 24.9127L28.2381 25.3363L27.9935 25.1973L28.2129 24.7769L28.4518 24.9127ZM28.3573 25.404L29.3991 24.7983L30.1052 25.1995L29.9236 25.305L29.4391 25.0298L29.1908 25.1741L29.639 25.4287L29.4574 25.5343L29.0092 25.2797L28.7604 25.4243L29.247 25.7008L29.0654 25.8063L28.3573 25.404ZM29.6109 26.1163L29.2395 25.9053L30.2813 25.2995L30.6558 25.5123C30.7612 25.5722 30.8311 25.6359 30.8654 25.7034C30.9001 25.7706 30.8991 25.8385 30.8624 25.9069C30.826 25.9755 30.7537 26.0412 30.6455 26.1041C30.537 26.1672 30.4231 26.2097 30.3038 26.2316C30.1849 26.2537 30.0662 26.2551 29.9477 26.2357C29.8296 26.2166 29.7173 26.1768 29.6109 26.1163ZM29.6497 25.9214L29.7904 26.0013C29.8559 26.0386 29.9225 26.0631 29.9903 26.0751C30.0587 26.0871 30.1286 26.0853 30.1999 26.0697C30.272 26.0541 30.3468 26.0237 30.4245 25.9785C30.5015 25.9338 30.5529 25.8907 30.5789 25.8493C30.6053 25.8082 30.6076 25.7682 30.586 25.7294C30.5644 25.6906 30.5208 25.6526 30.4553 25.6154L30.3141 25.5351L29.6497 25.9214ZM31.551 26.021L30.5092 26.6267L30.2877 26.5008L31.3295 25.8951L31.551 26.021ZM31.5118 26.2074L31.6934 26.1019L32.554 26.5908L32.3724 26.6964L32.0516 26.5141L31.1913 27.0143L30.9723 26.8899L31.8326 26.3897L31.5118 26.2074ZM33.5889 27.5982L33.3648 27.4708C33.3895 27.4517 33.4068 27.4321 33.4166 27.4119C33.4267 27.3915 33.4298 27.3711 33.4259 27.3506C33.4221 27.3301 33.4115 27.31 33.394 27.2903C33.3769 27.2709 33.3534 27.2526 33.3233 27.2356C33.2691 27.2047 33.2085 27.1857 33.1414 27.1784C33.0747 27.1709 33.0049 27.1757 32.9318 27.1926C32.8591 27.2094 32.7866 27.2388 32.7144 27.2808C32.6401 27.324 32.5888 27.3666 32.5604 27.4085C32.5324 27.4507 32.5257 27.4907 32.5401 27.5286C32.5546 27.5664 32.5883 27.6004 32.6411 27.6304C32.6708 27.6473 32.7022 27.6606 32.7352 27.6704C32.7686 27.6804 32.8026 27.6867 32.8373 27.6893C32.8724 27.6916 32.9072 27.6902 32.9419 27.6849C32.9769 27.6799 33.0109 27.6707 33.0438 27.6575L33.2669 27.7854C33.2133 27.8099 33.1526 27.8285 33.085 27.8411C33.0181 27.8538 32.9477 27.8592 32.8739 27.8574C32.8008 27.8556 32.7272 27.8454 32.6533 27.8268C32.5801 27.8082 32.5099 27.7798 32.4427 27.7417C32.3493 27.6886 32.2867 27.6289 32.2551 27.5625C32.2238 27.4964 32.2267 27.4281 32.2638 27.3575C32.3012 27.2872 32.3765 27.2191 32.4898 27.1532C32.6034 27.0871 32.7216 27.0432 32.8442 27.0212C32.9669 26.9993 33.0859 26.9972 33.2013 27.0148C33.3171 27.0322 33.421 27.0671 33.5131 27.1194C33.5738 27.1539 33.6216 27.1908 33.6565 27.2301C33.6917 27.2696 33.7131 27.3103 33.7208 27.3521C33.7289 27.3937 33.7221 27.4352 33.7005 27.4768C33.6793 27.5185 33.6421 27.559 33.5889 27.5982ZM33.2316 28.1735L32.9942 28.0386L34.3977 27.6384L34.6832 27.8006L34.0026 28.6116L33.7652 28.4767L34.3065 27.8603L34.2983 27.8556L33.2316 28.1735ZM33.6262 27.927L34.187 28.2456L34.015 28.3456L33.4543 28.0269L33.6262 27.927ZM34.1287 28.6832L35.1706 28.0775L35.584 28.3124C35.6631 28.3574 35.7165 28.4039 35.7443 28.4521C35.7728 28.5002 35.7761 28.5475 35.7542 28.5939C35.733 28.6404 35.688 28.6836 35.6192 28.7236C35.55 28.7639 35.4754 28.7899 35.3956 28.8019C35.316 28.8136 35.2346 28.811 35.1512 28.794C35.0681 28.7772 34.9863 28.7459 34.9058 28.7002L34.629 28.5429L34.806 28.44L35.047 28.5769C35.0893 28.601 35.1302 28.6176 35.1697 28.6268C35.2092 28.6359 35.2473 28.6377 35.284 28.632C35.3211 28.6266 35.3567 28.6139 35.391 28.594C35.4256 28.5739 35.4477 28.5529 35.4575 28.5312C35.4676 28.5096 35.4646 28.4873 35.4485 28.4641C35.4331 28.4409 35.404 28.4172 35.3614 28.393L35.212 28.3081L34.3502 28.8091L34.1287 28.6832ZM35.1687 28.7291L34.955 29.1527L34.7104 29.0138L34.9298 28.5933L35.1687 28.7291ZM35.4456 29.4315L35.0742 29.2204L36.116 28.6147L36.4906 28.8275C36.596 28.8874 36.6658 28.9511 36.7002 29.0185C36.7349 29.0858 36.7338 29.1537 36.6971 29.2221C36.6607 29.2907 36.5884 29.3564 36.4802 29.4193C36.3717 29.4824 36.2578 29.5249 36.1385 29.5468C36.0196 29.5689 35.9009 29.5703 35.7824 29.5509C35.6643 29.5318 35.5521 29.492 35.4456 29.4315ZM35.4845 29.2366L35.6252 29.3165C35.6907 29.3537 35.7573 29.3783 35.825 29.3903C35.8934 29.4023 35.9633 29.4005 36.0347 29.3849C36.1067 29.3693 36.1815 29.3389 36.2592 29.2937C36.3362 29.249 36.3877 29.2059 36.4137 29.1645C36.44 29.1233 36.4423 29.0834 36.4207 29.0446C36.3991 29.0058 36.3555 28.9678 36.2901 28.9306L36.1488 28.8503L35.4845 29.2366Z" fill="#68E1FD"/>
<path d="M36.756 38.8431L9.93226 23.3561C9.6364 23.1855 9.67352 22.892 10.0146 22.6901C10.3557 22.4929 10.8732 22.472 11.1691 22.6426L37.9928 38.1295C38.2887 38.3001 38.2516 38.5936 37.9093 38.7955C37.5682 38.9939 37.0519 39.0136 36.756 38.8431Z" fill="#68E1FD"/>
<path d="M21.1507 32.3017L7.79511 24.5907C7.49925 24.4189 7.53638 24.1208 7.87749 23.9235C8.21976 23.7263 8.73607 23.7054 9.03194 23.876L22.3875 31.587C22.6834 31.7575 22.6463 32.0511 22.3052 32.2529C21.9629 32.4502 21.4466 32.4722 21.1507 32.3017Z" fill="#68E1FD"/>
<path d="M34.7442 40.1542L25.0712 34.5711C24.7753 34.3994 24.8125 34.1012 25.1547 33.9039C25.4958 33.7067 26.0133 33.6858 26.3092 33.8564L35.981 39.4406C36.2769 39.6112 36.2397 39.9047 35.8975 40.1066C35.5563 40.2981 35.0389 40.3201 34.7442 40.1542Z" fill="#68E1FD"/>
</g>
<defs>
<filter id="filter0_d_87_176" x="0" y="0" width="68" height="61.5284" filterUnits="userSpaceOnUse" color-interpolation-filters="sRGB">
<feFlood flood-opacity="0" result="BackgroundImageFix"/>
<feColorMatrix in="SourceAlpha" type="matrix" values="0 0 0 0 0 0 0 0 0 0 0 0 0 0 0 0 0 0 127 0" result="hardAlpha"/>
<feOffset dy="4"/>
<feGaussianBlur stdDeviation="2"/>
<feComposite in2="hardAlpha" operator="out"/>
<feColorMatrix type="matrix" values="0 0 0 0 0 0 0 0 0 0 0 0 0 0 0 0 0 0 0.25 0"/>
<feBlend mode="normal" in2="BackgroundImageFix" result="effect1_dropShadow_87_176"/>
<feBlend mode="normal" in="SourceGraphic" in2="effect1_dropShadow_87_176" result="shape"/>
</filter>
<linearGradient id="paint0_linear_87_176" x1="22.2148" y1="38.9868" x2="45.2482" y2="-1.45049" gradientUnits="userSpaceOnUse">
<stop offset="0.01"/>
<stop offset="0.13" stop-opacity="0.69"/>
<stop offset="1" stop-opacity="0"/>
</linearGradient>
<linearGradient id="paint1_linear_87_176" x1="-109.893" y1="193.422" x2="-113.957" y2="237.401" gradientUnits="userSpaceOnUse">
<stop offset="0.01"/>
<stop offset="0.13" stop-opacity="0.69"/>
<stop offset="1" stop-opacity="0"/>
</linearGradient>
<linearGradient id="paint2_linear_87_176" x1="13.7602" y1="44.3146" x2="33.8294" y2="7.49053" gradientUnits="userSpaceOnUse">
<stop offset="0.01"/>
<stop offset="0.13" stop-opacity="0.69"/>
<stop offset="1" stop-opacity="0"/>
</linearGradient>
<linearGradient id="paint3_linear_87_176" x1="11.5132" y1="38.3772" x2="34.5456" y2="-2.05909" gradientUnits="userSpaceOnUse">
<stop offset="0.01"/>
<stop offset="0.13" stop-opacity="0.69"/>
<stop offset="1" stop-opacity="0"/>
</linearGradient>
<linearGradient id="paint4_linear_87_176" x1="3.05857" y1="43.705" x2="23.1267" y2="6.88069" gradientUnits="userSpaceOnUse">
<stop offset="0.01"/>
<stop offset="0.13" stop-opacity="0.69"/>
<stop offset="1" stop-opacity="0"/>
</linearGradient>
</defs>
</svg>
