<svg width="58" height="57" viewBox="0 0 58 57" fill="none" xmlns="http://www.w3.org/2000/svg">
<g filter="url(#filter0_d_87_203)">
<path d="M7.48046 13.7095H47.0587C47.5999 13.7095 48.119 13.9245 48.5017 14.3073C48.8845 14.69 49.0995 15.2091 49.0995 15.7503V20.0172H7.48046C7.06651 20.0172 6.65661 19.9357 6.27416 19.7773C5.89172 19.6189 5.54422 19.3867 5.25151 19.094C4.9588 18.8012 4.72661 18.4537 4.56819 18.0713C4.40978 17.6889 4.32825 17.279 4.32825 16.865C4.32825 16.451 4.40978 16.0411 4.56819 15.6587C4.72661 15.2763 4.9588 14.9288 5.25151 14.636C5.54422 14.3433 5.89172 14.1111 6.27416 13.9527C6.65661 13.7943 7.06651 13.7128 7.48046 13.7128V13.7095Z" fill="#093F68"/>
<path d="M49.0962 20.339H7.48042C6.55821 20.339 5.67378 19.9726 5.02168 19.3205C4.36958 18.6684 4.00323 17.784 4.00323 16.8618C4.00323 15.9396 4.36958 15.0551 5.02168 14.403C5.67378 13.7509 6.55821 13.3846 7.48042 13.3846H47.0586C47.6849 13.3854 48.2854 13.6346 48.7282 14.0775C49.1711 14.5204 49.4203 15.1208 49.4212 15.7471V20.014C49.4212 20.1002 49.3869 20.1828 49.326 20.2438C49.265 20.3047 49.1824 20.339 49.0962 20.339ZM7.48042 14.0345C6.73059 14.0345 6.01147 14.3324 5.48126 14.8626C4.95105 15.3928 4.65318 16.1119 4.65318 16.8618C4.65318 17.6116 4.95105 18.3307 5.48126 18.8609C6.01147 19.3911 6.73059 19.689 7.48042 19.689H48.7712V15.7471C48.7712 15.2929 48.5908 14.8573 48.2696 14.5361C47.9484 14.215 47.5128 14.0345 47.0586 14.0345H7.48042Z" fill="#093F68"/>
<path d="M5.92126 12.4258L39.3657 0.338928L45.8515 18.2852L12.4071 30.3721L5.92126 12.4258Z" fill="#70CC40"/>
<path d="M12.4265 30.6958C12.3597 30.6958 12.2946 30.6752 12.2399 30.6368C12.1852 30.5984 12.1437 30.5441 12.121 30.4813L5.62161 12.5332C5.5891 12.4541 5.5891 12.3653 5.62161 12.2862C5.63975 12.2472 5.66547 12.2121 5.69727 12.1831C5.72907 12.1541 5.76631 12.1317 5.80684 12.1172L39.2561 0.0250487C39.2957 0.00851285 39.3383 0 39.3812 0C39.4242 0 39.4667 0.00851285 39.5063 0.0250487C39.5833 0.0616318 39.6428 0.126985 39.672 0.207032L46.1715 18.1552C46.2007 18.2362 46.1966 18.3255 46.1601 18.4035C46.1235 18.4815 46.0575 18.5418 45.9765 18.5711L12.5337 30.66C12.5004 30.6781 12.4641 30.6902 12.4265 30.6958ZM6.35604 12.6177L12.6215 29.9549L45.4435 18.0869L39.1716 0.749735L6.35604 12.6177Z" fill="#093F68"/>
<path d="M9.13574 13.0981L43.9871 6.0265L47.7817 24.7277L12.9303 31.7993L9.13574 13.0981Z" fill="#70CC40"/>
<path d="M12.9302 32.1257C12.8542 32.1272 12.78 32.102 12.7207 32.0545C12.6613 32.007 12.6205 31.9402 12.6053 31.8657L8.8096 13.1636C8.79196 13.0796 8.80832 12.9919 8.8551 12.9199C8.87879 12.884 8.90938 12.8532 8.94508 12.8292C8.98078 12.8052 9.02089 12.7885 9.06308 12.7802L43.9194 5.70879C43.9613 5.70024 44.0044 5.70002 44.0463 5.70814C44.0882 5.71625 44.1281 5.73255 44.1637 5.75608C44.1993 5.77962 44.2299 5.80995 44.2538 5.84533C44.2777 5.8807 44.2944 5.92044 44.3029 5.96226L48.0986 24.6643C48.1153 24.7488 48.0977 24.8365 48.0498 24.9081C48.0027 24.9799 47.9291 25.0301 47.8451 25.0478L12.9952 32.1192L12.9302 32.1257ZM9.51804 13.3488L13.1837 31.414L47.3966 24.4726L43.731 6.40422L9.51804 13.3488Z" fill="#093F68"/>
<path d="M27.1412 14.0215C27.2029 14.3465 27.2679 14.6455 27.3264 14.9607C27.3264 15.0192 27.3589 15.0355 27.4206 15.0387C27.8968 15.0302 28.3673 15.142 28.7888 15.3637C29.2302 15.6005 29.5691 15.9915 29.7409 16.4621C29.7897 16.5888 29.8287 16.7221 29.8709 16.8585L28.4248 17.1445C28.3806 16.9285 28.2664 16.7332 28.0998 16.5888C27.9519 16.4929 27.799 16.4051 27.6416 16.3256L27.6221 16.3516L27.9796 18.1552H28.1421C28.5491 18.1545 28.9548 18.2014 29.351 18.2949C29.6476 18.3596 29.9212 18.5034 30.1427 18.7111C30.3641 18.9188 30.5251 19.1826 30.6086 19.4746C30.8007 20.0115 30.7774 20.602 30.5436 21.1222C30.35 21.5468 30.0285 21.9002 29.6239 22.1328C29.3737 22.2791 29.1072 22.396 28.8375 22.5293L28.974 23.2312L27.6416 23.4944L27.4986 22.773C27.2159 22.7535 26.9462 22.747 26.683 22.7113C26.1676 22.655 25.6865 22.4259 25.3181 22.0613C25.0095 21.7389 24.8046 21.3314 24.7299 20.8914L26.1565 20.6087C26.2136 20.8547 26.3503 21.075 26.5454 21.2354C26.7404 21.3958 26.983 21.4874 27.2354 21.4959C27.1098 20.8459 26.983 20.196 26.8552 19.5461C26.5692 19.5233 26.2832 19.5038 25.9973 19.4713C25.6501 19.4466 25.3148 19.3349 25.0224 19.1463C24.7254 18.9538 24.4976 18.6714 24.3724 18.3404C24.2045 17.9427 24.1504 17.5061 24.2164 17.0795C24.2693 16.7777 24.3875 16.4911 24.5626 16.2396C24.7377 15.9881 24.9656 15.7779 25.2303 15.6237C25.4522 15.5017 25.6812 15.3932 25.916 15.2987L26.0005 15.2629L25.8088 14.288L27.1412 14.0215ZM28.5743 21.2554C28.7883 21.1841 28.9777 21.0533 29.1202 20.8784C29.2365 20.7255 29.2928 20.5353 29.2784 20.3437C29.264 20.1521 29.18 19.9724 29.0422 19.8385C28.8036 19.6876 28.5284 19.6045 28.2461 19.598L28.5743 21.2554ZM26.241 16.4978C26.08 16.6072 25.9269 16.7277 25.7828 16.8585C25.7104 16.9356 25.6558 17.0275 25.6227 17.1279C25.5896 17.2283 25.5789 17.3347 25.5913 17.4396C25.6037 17.5446 25.6389 17.6456 25.6944 17.7355C25.7499 17.8254 25.8245 17.9021 25.9128 17.9602C26.1163 18.0558 26.3379 18.1068 26.5627 18.1097L26.241 16.4978Z" fill="#093F68"/>
<path d="M12.771 24.3751C15.7216 24.3751 18.1135 21.9832 18.1135 19.0326C18.1135 16.082 15.7216 13.6901 12.771 13.6901C9.8204 13.6901 7.42847 16.082 7.42847 19.0326C7.42847 21.9832 9.8204 24.3751 12.771 24.3751Z" fill="#FFBC0E"/>
<path d="M12.771 24.7033C11.6493 24.7039 10.5526 24.3719 9.6196 23.7492C8.68662 23.1265 7.95928 22.241 7.52958 21.2049C7.09987 20.1688 6.98711 19.0285 7.20555 17.9282C7.42399 16.828 7.96382 15.8173 8.75676 15.0239C9.54969 14.2305 10.5601 13.6901 11.6602 13.471C12.7603 13.2519 13.9007 13.3641 14.9371 13.7932C15.9735 14.2223 16.8593 14.9491 17.4826 15.8817C18.1058 16.8143 18.4385 17.9109 18.4385 19.0326C18.4376 20.5357 17.8403 21.9771 16.7777 23.0403C15.7152 24.1035 14.2741 24.7016 12.771 24.7033ZM12.771 14.015C11.7777 14.0144 10.8065 14.3084 9.98035 14.8598C9.15418 15.4113 8.51015 16.1954 8.12974 17.1129C7.74932 18.0305 7.64962 19.0403 7.84324 20.0145C8.03687 20.9888 8.51512 21.8837 9.21749 22.586C9.91985 23.2884 10.8148 23.7667 11.789 23.9603C12.7633 24.1539 13.773 24.0542 14.6906 23.6738C15.6082 23.2934 16.3923 22.6493 16.9437 21.8232C17.4952 20.997 17.7892 20.0259 17.7885 19.0326C17.7868 17.7024 17.2576 16.4271 16.317 15.4865C15.3764 14.5459 14.1012 14.0167 12.771 14.015Z" fill="#093F68"/>
<path d="M22.3543 8.36058C22.0066 7.06069 20.9862 5.74456 19.4816 4.8184C17.977 3.89223 16.3261 3.59976 15.0262 3.85973L14.1391 3.31378L12.9919 5.18561C11.9195 6.9307 13.0894 9.59547 15.5917 11.1391C18.094 12.6827 21.0155 12.5202 22.0911 10.7751L23.2383 8.90653L22.3543 8.36058Z" fill="#FFBC0E"/>
<path d="M19.1014 12.5235C17.8005 12.497 16.5317 12.1149 15.4325 11.4186C12.7677 9.7937 11.5328 6.90796 12.7092 5.01338L13.8564 3.1448C13.8787 3.1082 13.908 3.07638 13.9427 3.05116C13.9773 3.02595 14.0166 3.00783 14.0583 2.99786C14.1 2.9879 14.1432 2.98627 14.1855 2.99308C14.2279 2.9999 14.2684 3.01501 14.3048 3.03756L15.0848 3.51852C16.5114 3.26179 18.1655 3.63226 19.6344 4.54217C21.1032 5.45209 22.1984 6.76498 22.6176 8.1526L23.3975 8.63031C23.4697 8.67689 23.5218 8.74875 23.5438 8.83179C23.5633 8.915 23.5493 9.00256 23.5048 9.07552L22.3544 10.9441C21.7792 11.8833 20.7295 12.4422 19.3906 12.517L19.1014 12.5235ZM14.2431 3.74925L13.2682 5.3416C12.2933 6.93071 13.4177 9.40374 15.7737 10.8499C16.8462 11.5379 18.1006 11.8878 19.3744 11.854C20.4923 11.7923 21.36 11.3438 21.8214 10.5931L22.7963 9.00077L22.1756 8.64006C22.1053 8.59665 22.0542 8.52809 22.0327 8.44832C21.6914 7.19069 20.671 5.9363 19.3029 5.09787C17.9348 4.25945 16.3554 3.91173 15.0783 4.17821C14.9967 4.19504 14.9118 4.17992 14.841 4.13596L14.2431 3.74925Z" fill="#093F68"/>
<path d="M23.2426 8.91035C24.3141 7.16522 23.1444 4.49897 20.6299 2.95509C18.1155 1.41122 15.2085 1.57436 14.137 3.31948C13.0655 5.06461 14.2352 7.73087 16.7496 9.27474C19.2641 10.8186 22.1711 10.6555 23.2426 8.91035Z" fill="#FFBC0E"/>
<path d="M20.2421 10.6483C18.9434 10.6237 17.6764 10.2426 16.5797 9.54669C13.9149 7.92184 12.68 5.03934 13.8564 3.14476C15.0328 1.25018 18.1363 1.03895 20.7978 2.67356C23.4593 4.30816 24.6974 7.1809 23.521 9.07548C22.8808 10.1154 21.6557 10.6483 20.2421 10.6483ZM17.1191 2.1991C15.9362 2.1991 14.9288 2.62806 14.4121 3.47299C13.4372 5.06209 14.5616 7.53512 16.9176 8.98124C19.2737 10.4274 21.9904 10.3136 22.9653 8.72451C23.9402 7.13216 22.8158 4.66238 20.4598 3.20001C19.4565 2.57375 18.3017 2.23225 17.1191 2.2121V2.1991Z" fill="#093F68"/>
<path d="M41.1507 12.0912C41.4984 10.7913 42.5188 9.49142 44.0234 8.549C45.528 7.60659 47.1757 7.31736 48.482 7.57409L49.3692 7.02814L50.5196 8.89672C51.5888 10.6418 50.4189 13.3098 47.9036 14.8534C45.3883 16.397 42.4831 16.2346 41.4042 14.4895L40.257 12.6209L41.1507 12.0912Z" fill="#FFBC0E"/>
<path d="M44.4068 16.2541H44.0981C42.7625 16.1761 41.7096 15.6042 41.1344 14.6813L39.9872 12.8127C39.9427 12.7394 39.929 12.6514 39.9491 12.568C39.9692 12.4846 40.0214 12.4125 40.0945 12.3675L40.8744 11.8865C41.2904 10.4989 42.3693 9.19253 43.8544 8.27936C45.3395 7.36619 46.9936 6.99572 48.404 7.25245L49.1839 6.77474C49.2203 6.75219 49.2609 6.73708 49.3032 6.73027C49.3455 6.72345 49.3888 6.72508 49.4304 6.73505C49.4721 6.74501 49.5114 6.76313 49.5461 6.78835C49.5807 6.81356 49.61 6.84539 49.6324 6.88198L50.7795 8.75056C51.3547 9.68973 51.3742 10.8791 50.838 12.1043C50.2395 13.3767 49.2712 14.439 48.0595 15.1525C46.9649 15.8453 45.702 16.2262 44.4068 16.2541ZM40.6989 12.7445L41.6738 14.3368C42.1353 15.0875 43.003 15.536 44.1209 15.5977C45.3912 15.6059 46.6385 15.258 47.7212 14.5935C48.8039 13.9289 49.6788 12.9743 50.2466 11.8378C50.695 10.8141 50.6885 9.83597 50.2271 9.08528L49.2521 7.49293L48.6412 7.86664C48.5705 7.91061 48.4855 7.92573 48.404 7.90889C47.1301 7.64241 45.5507 7.98688 44.1793 8.82531C42.808 9.66373 41.7908 10.9214 41.4496 12.1758C41.4399 12.2157 41.4222 12.2533 41.3976 12.2862C41.3731 12.3191 41.3421 12.3468 41.3066 12.3675L40.6989 12.7445Z" fill="#093F68"/>
<path d="M46.7552 12.9976C49.2697 11.4537 50.4394 8.78747 49.3679 7.04235C48.2964 5.29723 45.3894 5.13408 42.875 6.67796C40.3605 8.22183 39.1908 10.8881 40.2623 12.6332C41.3338 14.3783 44.2408 14.5415 46.7552 12.9976Z" fill="#FFBC0E"/>
<path d="M43.2597 14.3855C43.1558 14.3855 43.0518 14.3855 42.951 14.3855C41.6154 14.3108 40.5625 13.7551 39.9873 12.8159C39.4121 11.8767 39.3893 10.6873 39.9288 9.46221C40.5491 8.20412 41.5127 7.14717 42.7082 6.41343C43.9037 5.67969 45.2823 5.29909 46.6849 5.31558C48.0206 5.39032 49.0735 5.94602 49.6487 6.88519C50.8121 8.77977 49.5902 11.6525 46.9287 13.2871C45.829 13.9816 44.5601 14.3615 43.2597 14.3855ZM46.373 5.93627C45.1925 5.96462 44.0421 6.31402 43.0453 6.94693C41.9474 7.5919 41.0688 8.55204 40.5235 9.70268C40.0718 10.7296 40.0783 11.7078 40.5235 12.4584C40.9849 13.2091 41.8526 13.6543 42.9705 13.7193C44.2443 13.7535 45.4989 13.4036 46.5712 12.7152C48.9305 11.2658 50.0549 8.79602 49.0767 7.19066C48.6153 6.43998 47.7476 5.99152 46.6297 5.92652L46.373 5.93627Z" fill="#093F68"/>
<path d="M51.6829 22.6007V45.2252C51.6829 45.9147 51.409 46.576 50.9215 47.0635C50.4339 47.5511 49.7727 47.825 49.0832 47.825H8.92004C8.3166 47.825 7.71908 47.7061 7.16158 47.4752C6.60407 47.2443 6.09752 46.9058 5.67082 46.4791C5.24413 46.0524 4.90566 45.5459 4.67473 44.9883C4.44381 44.4308 4.32495 43.8333 4.32495 43.2299V16.8748C4.32495 17.7116 4.6574 18.5142 5.24917 19.106C5.84093 19.6978 6.64354 20.0302 7.48042 20.0302H49.0962C49.7784 20.0336 50.4319 20.305 50.9158 20.7859C51.3998 21.2667 51.6753 21.9186 51.6829 22.6007Z" fill="#68E1FD"/>
<path d="M49.0962 48.137H8.92006C7.61544 48.1361 6.36451 47.6175 5.442 46.695C4.5195 45.7725 4.00086 44.5215 4 43.2169V16.8618C4 16.7756 4.03424 16.6929 4.09518 16.632C4.15613 16.571 4.23878 16.5368 4.32497 16.5368C4.41116 16.5368 4.49382 16.571 4.55476 16.632C4.6157 16.6929 4.64994 16.7756 4.64994 16.8618C4.6508 17.6122 4.94929 18.3317 5.47992 18.8623C6.01056 19.3929 6.73001 19.6914 7.48044 19.6923H49.0962C49.8691 19.6923 50.6105 19.9982 51.1586 20.5432C51.7066 21.0881 52.0166 21.8279 52.0209 22.6008V45.2252C52.0175 45.9987 51.7078 46.7392 51.1597 47.2849C50.6116 47.8306 49.8696 48.137 49.0962 48.137ZM4.64994 18.8733V43.2072C4.65166 44.3391 5.1021 45.4243 5.90253 46.2247C6.70296 47.0251 7.78808 47.4756 8.92006 47.4773H49.0962C49.6995 47.4773 50.2781 47.2376 50.7047 46.811C51.1313 46.3844 51.371 45.8058 51.371 45.2025V22.6008C51.3667 22.0003 51.1251 21.4258 50.699 21.0027C50.2729 20.5796 49.6967 20.3422 49.0962 20.3422H7.48044C6.92558 20.3415 6.37899 20.2077 5.8865 19.9521C5.39401 19.6965 4.96997 19.3266 4.64994 18.8733Z" fill="#093F68"/>
<path d="M43.8772 30.7413H53.6751V39.327H43.8772C43.1282 39.327 42.4099 39.0295 41.8803 38.4999C41.3507 37.9703 41.0532 37.252 41.0532 36.503V33.5783C41.0515 33.2063 41.1233 32.8377 41.2644 32.4936C41.4056 32.1495 41.6133 31.8366 41.8757 31.573C42.1381 31.3094 42.45 31.1002 42.7935 30.9575C43.137 30.8147 43.5052 30.7413 43.8772 30.7413Z" fill="#F56132"/>
<path d="M53.675 39.652H43.8771C43.0419 39.6511 42.2412 39.3192 41.6503 38.7289C41.0594 38.1387 40.7266 37.3382 40.7249 36.503V33.5783C40.7266 32.7431 41.0594 31.9427 41.6503 31.3524C42.2412 30.7621 43.0419 30.4302 43.8771 30.4293H53.675C53.7612 30.4293 53.8438 30.4636 53.9048 30.5245C53.9657 30.5854 54 30.6681 54 30.7543V39.34C53.9966 39.4239 53.9609 39.5033 53.9003 39.5615C53.8397 39.6196 53.759 39.6521 53.675 39.652ZM43.8771 31.0663C43.2143 31.0671 42.5788 31.3306 42.1098 31.799C41.6409 32.2673 41.3766 32.9025 41.3749 33.5653V36.49C41.3766 37.1528 41.6409 37.788 42.1098 38.2564C42.5788 38.7247 43.2143 38.9882 43.8771 38.9891H53.35V31.0663H43.8771Z" fill="#093F68"/>
<path d="M45.3915 37.0067C46.4809 37.0067 47.3641 36.1236 47.3641 35.0342C47.3641 33.9447 46.4809 33.0616 45.3915 33.0616C44.3021 33.0616 43.4189 33.9447 43.4189 35.0342C43.4189 36.1236 44.3021 37.0067 45.3915 37.0067Z" fill="#FFBC0E"/>
<path d="M45.3915 37.3317C44.9371 37.3317 44.4929 37.197 44.115 36.9445C43.7372 36.6921 43.4427 36.3332 43.2688 35.9134C43.0949 35.4936 43.0494 35.0316 43.1381 34.5859C43.2267 34.1403 43.4456 33.7309 43.7669 33.4096C44.0882 33.0883 44.4976 32.8694 44.9433 32.7808C45.3889 32.6921 45.8509 32.7376 46.2707 32.9115C46.6905 33.0854 47.0494 33.3799 47.3018 33.7577C47.5543 34.1356 47.689 34.5798 47.689 35.0342C47.6882 35.6433 47.4458 36.2271 47.0151 36.6578C46.5845 37.0885 46.0006 37.3309 45.3915 37.3317ZM45.3915 33.3866C45.0656 33.3866 44.7471 33.4832 44.4761 33.6642C44.2052 33.8453 43.994 34.1026 43.8693 34.4037C43.7446 34.7047 43.712 35.036 43.7755 35.3556C43.8391 35.6752 43.996 35.9688 44.2264 36.1992C44.4569 36.4296 44.7504 36.5865 45.07 36.6501C45.3897 36.7137 45.7209 36.6811 46.022 36.5564C46.323 36.4317 46.5804 36.2205 46.7614 35.9495C46.9424 35.6786 47.0391 35.36 47.0391 35.0342C47.0391 34.5972 46.8655 34.1781 46.5565 33.8691C46.2475 33.5602 45.8285 33.3866 45.3915 33.3866Z" fill="#093F68"/>
<path d="M11.2371 48.137C11.1509 48.137 11.0682 48.1028 11.0073 48.0418C10.9463 47.9809 10.9121 47.8982 10.9121 47.812V20.0173C10.9121 19.9311 10.9463 19.8484 11.0073 19.7875C11.0682 19.7266 11.1509 19.6923 11.2371 19.6923C11.3233 19.6923 11.4059 19.7266 11.4669 19.7875C11.5278 19.8484 11.5621 19.9311 11.5621 20.0173V47.812C11.5621 47.8982 11.5278 47.9809 11.4669 48.0418C11.4059 48.1028 11.3233 48.137 11.2371 48.137Z" fill="#093F68"/>
</g>
<defs>
<filter id="filter0_d_87_203" x="0" y="0" width="57.9999" height="56.137" filterUnits="userSpaceOnUse" color-interpolation-filters="sRGB">
<feFlood flood-opacity="0" result="BackgroundImageFix"/>
<feColorMatrix in="SourceAlpha" type="matrix" values="0 0 0 0 0 0 0 0 0 0 0 0 0 0 0 0 0 0 127 0" result="hardAlpha"/>
<feOffset dy="4"/>
<feGaussianBlur stdDeviation="2"/>
<feComposite in2="hardAlpha" operator="out"/>
<feColorMatrix type="matrix" values="0 0 0 0 0 0 0 0 0 0 0 0 0 0 0 0 0 0 0.25 0"/>
<feBlend mode="normal" in2="BackgroundImageFix" result="effect1_dropShadow_87_203"/>
<feBlend mode="normal" in="SourceGraphic" in2="effect1_dropShadow_87_203" result="shape"/>
</filter>
</defs>
</svg>
